<?xml version="1.0" encoding="UTF-8"?>
<svg xmlns="http://www.w3.org/2000/svg" width="1200" height="900" viewBox="0 0 1200 900">
  <rect x="0" y="0" width="1200" height="900" fill="#1a1a2e"/>
  <polygon points="717.0,796.2 716.6,770.3 715.4,744.4 713.4,718.6 710.5,692.9 706.9,667.3 702.4,641.8 697.2,616.5 691.1,591.3 684.3,566.4 676.7,541.6 668.3,517.2 659.2,493.0 649.3,469.1 638.6,445.5 627.2,422.2 615.1,399.4 602.3,376.9 588.8,354.8 574.6,333.2 559.7,312.1 544.2,291.4 528.0,271.2 511.2,251.5 493.8,232.4 475.8,213.8 457.2,195.8 438.1,178.4 418.4,161.6 398.2,145.4 462.6,62.3 485.4,80.5 507.6,99.5 529.2,119.1 550.1,139.4 570.4,160.4 590.1,182.0 609.0,204.2 627.3,226.9 644.8,250.3 661.6,274.1 677.6,298.5 692.8,323.4 707.3,348.7 720.9,374.5 733.8,400.7 745.8,427.3 756.9,454.3 767.2,481.6 776.7,509.2 785.3,537.0 793.0,565.2 799.8,593.6 805.7,622.1 810.7,650.9 814.8,679.8 818.0,708.8 820.3,737.8 821.7,767.0 822.1,796.2 " fill="#2d2d44" stroke="none"/>
  <polyline points="717.0,796.2 716.6,770.3 715.4,744.4 713.4,718.6 710.5,692.9 706.9,667.3 702.4,641.8 697.2,616.5 691.1,591.3 684.3,566.4 676.7,541.6 668.3,517.2 659.2,493.0 649.3,469.1 638.6,445.5 627.2,422.2 615.1,399.4 602.3,376.9 588.8,354.8 574.6,333.2 559.7,312.1 544.2,291.4 528.0,271.2 511.2,251.5 493.8,232.4 475.8,213.8 457.2,195.8 438.1,178.4 418.4,161.6 398.2,145.4 717.0,796.2 " fill="none" stroke="#555555" stroke-width="10.51"/>
  <polyline points="822.1,796.2 821.7,767.0 820.3,737.8 818.0,708.8 814.8,679.8 810.7,650.9 805.7,622.1 799.8,593.6 793.0,565.2 785.3,537.0 776.7,509.2 767.2,481.6 756.9,454.3 745.8,427.3 733.8,400.7 720.9,374.5 707.3,348.7 692.8,323.4 677.6,298.5 661.6,274.1 644.8,250.3 627.3,226.9 609.0,204.2 590.1,182.0 570.4,160.4 550.1,139.4 529.2,119.1 507.6,99.5 485.4,80.5 462.6,62.3 822.1,796.2 " fill="none" stroke="#555555" stroke-width="10.51"/>
  <line x1="769.6" y1="796.2" x2="769.1" y2="768.6" stroke="#0041ff" stroke-width="26.29" stroke-linecap="round"/>
  <line x1="769.1" y1="768.6" x2="767.9" y2="741.1" stroke="#00ff0a" stroke-width="26.29" stroke-linecap="round"/>
  <line x1="767.9" y1="741.1" x2="765.7" y2="713.7" stroke="#ff9e00" stroke-width="26.29" stroke-linecap="round"/>
  <line x1="765.7" y1="713.7" x2="762.7" y2="686.3" stroke="#ff1f00" stroke-width="26.29" stroke-linecap="round"/>
  <line x1="762.7" y1="686.3" x2="758.8" y2="659.1" stroke="#ff0400" stroke-width="26.29" stroke-linecap="round"/>
  <line x1="758.8" y1="659.1" x2="754.1" y2="632.0" stroke="#ff0000" stroke-width="26.29" stroke-linecap="round"/>
  <line x1="754.1" y1="632.0" x2="748.5" y2="605.0" stroke="#ff0000" stroke-width="26.29" stroke-linecap="round"/>
  <line x1="748.5" y1="605.0" x2="742.1" y2="578.3" stroke="#ff0000" stroke-width="26.29" stroke-linecap="round"/>
  <line x1="742.1" y1="578.3" x2="734.8" y2="551.7" stroke="#ff0000" stroke-width="26.29" stroke-linecap="round"/>
  <line x1="734.8" y1="551.7" x2="726.7" y2="525.4" stroke="#ff0000" stroke-width="26.29" stroke-linecap="round"/>
  <line x1="726.7" y1="525.4" x2="717.8" y2="499.4" stroke="#ff0000" stroke-width="26.29" stroke-linecap="round"/>
  <line x1="717.8" y1="499.4" x2="708.1" y2="473.6" stroke="#ff0000" stroke-width="26.29" stroke-linecap="round"/>
  <line x1="708.1" y1="473.6" x2="697.5" y2="448.2" stroke="#ff0000" stroke-width="26.29" stroke-linecap="round"/>
  <line x1="697.5" y1="448.2" x2="686.2" y2="423.1" stroke="#ff0000" stroke-width="26.29" stroke-linecap="round"/>
  <line x1="686.2" y1="423.1" x2="674.1" y2="398.4" stroke="#ff0000" stroke-width="26.29" stroke-linecap="round"/>
  <line x1="674.1" y1="398.4" x2="661.2" y2="374.1" stroke="#ff0000" stroke-width="26.29" stroke-linecap="round"/>
  <line x1="661.2" y1="374.1" x2="647.6" y2="350.1" stroke="#ff0000" stroke-width="26.29" stroke-linecap="round"/>
  <line x1="647.6" y1="350.1" x2="633.2" y2="326.7" stroke="#ff0000" stroke-width="26.29" stroke-linecap="round"/>
  <line x1="633.2" y1="326.7" x2="618.1" y2="303.7" stroke="#ff0000" stroke-width="26.29" stroke-linecap="round"/>
  <line x1="618.1" y1="303.7" x2="602.2" y2="281.2" stroke="#ff0000" stroke-width="26.29" stroke-linecap="round"/>
  <line x1="602.2" y1="281.2" x2="585.7" y2="259.1" stroke="#ff0000" stroke-width="26.29" stroke-linecap="round"/>
  <line x1="585.7" y1="259.1" x2="568.5" y2="237.7" stroke="#ff0000" stroke-width="26.29" stroke-linecap="round"/>
  <line x1="568.5" y1="237.7" x2="550.6" y2="216.7" stroke="#ff0000" stroke-width="26.29" stroke-linecap="round"/>
  <line x1="550.6" y1="216.7" x2="532.1" y2="196.4" stroke="#ff0000" stroke-width="26.29" stroke-linecap="round"/>
  <line x1="532.1" y1="196.4" x2="513.0" y2="176.6" stroke="#ff0100" stroke-width="26.29" stroke-linecap="round"/>
  <line x1="513.0" y1="176.6" x2="493.2" y2="157.5" stroke="#ff0500" stroke-width="26.29" stroke-linecap="round"/>
  <line x1="493.2" y1="157.5" x2="472.8" y2="138.9" stroke="#ff2000" stroke-width="26.29" stroke-linecap="round"/>
  <line x1="472.8" y1="138.9" x2="451.9" y2="121.1" stroke="#ffa100" stroke-width="26.29" stroke-linecap="round"/>
  <line x1="451.9" y1="121.1" x2="430.4" y2="103.8" stroke="#00ff1c" stroke-width="26.29" stroke-linecap="round"/>
  <line x1="430.4" y1="103.8" x2="769.6" y2="796.2" stroke="#0000ff" stroke-width="26.29" stroke-linecap="round"/>
  <line x1="717.0" y1="796.2" x2="822.1" y2="796.2" stroke="#ffffff" stroke-width="10.51"/>
  <text x="30" y="50" font-family="sans-serif" font-size="34" fill="#ffffff">Apex-14 — Optimized Circle</text>
  <rect x="910.0" y="842.0" width="5.33" height="18.0" fill="#0000ff"/>
  <rect x="914.4" y="842.0" width="5.33" height="18.0" fill="#0011ff"/>
  <rect x="918.8" y="842.0" width="5.33" height="18.0" fill="#0023ff"/>
  <rect x="923.2" y="842.0" width="5.33" height="18.0" fill="#0034ff"/>
  <rect x="927.6" y="842.0" width="5.33" height="18.0" fill="#0045ff"/>
  <rect x="932.0" y="842.0" width="5.33" height="18.0" fill="#0056ff"/>
  <rect x="936.4" y="842.0" width="5.33" height="18.0" fill="#0068ff"/>
  <rect x="940.8" y="842.0" width="5.33" height="18.0" fill="#0079ff"/>
  <rect x="945.3" y="842.0" width="5.33" height="18.0" fill="#008aff"/>
  <rect x="949.7" y="842.0" width="5.33" height="18.0" fill="#009cff"/>
  <rect x="954.1" y="842.0" width="5.33" height="18.0" fill="#00adff"/>
  <rect x="958.5" y="842.0" width="5.33" height="18.0" fill="#00beff"/>
  <rect x="962.9" y="842.0" width="5.33" height="18.0" fill="#00cfff"/>
  <rect x="967.3" y="842.0" width="5.33" height="18.0" fill="#00e1ff"/>
  <rect x="971.7" y="842.0" width="5.33" height="18.0" fill="#00f2ff"/>
  <rect x="976.1" y="842.0" width="5.33" height="18.0" fill="#00fffb"/>
  <rect x="980.5" y="842.0" width="5.33" height="18.0" fill="#00ffe9"/>
  <rect x="984.9" y="842.0" width="5.33" height="18.0" fill="#00ffd8"/>
  <rect x="989.3" y="842.0" width="5.33" height="18.0" fill="#00ffc7"/>
  <rect x="993.7" y="842.0" width="5.33" height="18.0" fill="#00ffb6"/>
  <rect x="998.1" y="842.0" width="5.33" height="18.0" fill="#00ffa4"/>
  <rect x="1002.5" y="842.0" width="5.33" height="18.0" fill="#00ff93"/>
  <rect x="1006.9" y="842.0" width="5.33" height="18.0" fill="#00ff82"/>
  <rect x="1011.4" y="842.0" width="5.33" height="18.0" fill="#00ff70"/>
  <rect x="1015.8" y="842.0" width="5.33" height="18.0" fill="#00ff5f"/>
  <rect x="1020.2" y="842.0" width="5.33" height="18.0" fill="#00ff4e"/>
  <rect x="1024.6" y="842.0" width="5.33" height="18.0" fill="#00ff3d"/>
  <rect x="1029.0" y="842.0" width="5.33" height="18.0" fill="#00ff2b"/>
  <rect x="1033.4" y="842.0" width="5.33" height="18.0" fill="#00ff1a"/>
  <rect x="1037.8" y="842.0" width="5.33" height="18.0" fill="#00ff09"/>
  <rect x="1042.2" y="842.0" width="5.33" height="18.0" fill="#09ff00"/>
  <rect x="1046.6" y="842.0" width="5.33" height="18.0" fill="#1aff00"/>
  <rect x="1051.0" y="842.0" width="5.33" height="18.0" fill="#2bff00"/>
  <rect x="1055.4" y="842.0" width="5.33" height="18.0" fill="#3dff00"/>
  <rect x="1059.8" y="842.0" width="5.33" height="18.0" fill="#4eff00"/>
  <rect x="1064.2" y="842.0" width="5.33" height="18.0" fill="#5fff00"/>
  <rect x="1068.6" y="842.0" width="5.33" height="18.0" fill="#70ff00"/>
  <rect x="1073.1" y="842.0" width="5.33" height="18.0" fill="#82ff00"/>
  <rect x="1077.5" y="842.0" width="5.33" height="18.0" fill="#93ff00"/>
  <rect x="1081.9" y="842.0" width="5.33" height="18.0" fill="#a4ff00"/>
  <rect x="1086.3" y="842.0" width="5.33" height="18.0" fill="#b6ff00"/>
  <rect x="1090.7" y="842.0" width="5.33" height="18.0" fill="#c7ff00"/>
  <rect x="1095.1" y="842.0" width="5.33" height="18.0" fill="#d8ff00"/>
  <rect x="1099.5" y="842.0" width="5.33" height="18.0" fill="#e9ff00"/>
  <rect x="1103.9" y="842.0" width="5.33" height="18.0" fill="#fbff00"/>
  <rect x="1108.3" y="842.0" width="5.33" height="18.0" fill="#fff200"/>
  <rect x="1112.7" y="842.0" width="5.33" height="18.0" fill="#ffe100"/>
  <rect x="1117.1" y="842.0" width="5.33" height="18.0" fill="#ffcf00"/>
  <rect x="1121.5" y="842.0" width="5.33" height="18.0" fill="#ffbe00"/>
  <rect x="1125.9" y="842.0" width="5.33" height="18.0" fill="#ffad00"/>
  <rect x="1130.3" y="842.0" width="5.33" height="18.0" fill="#ff9c00"/>
  <rect x="1134.7" y="842.0" width="5.33" height="18.0" fill="#ff8a00"/>
  <rect x="1139.2" y="842.0" width="5.33" height="18.0" fill="#ff7900"/>
  <rect x="1143.6" y="842.0" width="5.33" height="18.0" fill="#ff6800"/>
  <rect x="1148.0" y="842.0" width="5.33" height="18.0" fill="#ff5600"/>
  <rect x="1152.4" y="842.0" width="5.33" height="18.0" fill="#ff4500"/>
  <rect x="1156.8" y="842.0" width="5.33" height="18.0" fill="#ff3400"/>
  <rect x="1161.2" y="842.0" width="5.33" height="18.0" fill="#ff2300"/>
  <rect x="1165.6" y="842.0" width="5.33" height="18.0" fill="#ff1100"/>
  <rect x="1170.0" y="842.0" width="5.33" height="18.0" fill="#ff0000"/>
  <text x="910.0" y="836.0" font-family="sans-serif" font-size="18" fill="#ffffff" text-anchor="start">272 km/h</text>
  <text x="1170.0" y="836.0" font-family="sans-serif" font-size="18" fill="#ffffff" text-anchor="end">272 km/h</text>
</svg>
