<?xml version="1.0" encoding="UTF-8"?>
<svg xmlns="http://www.w3.org/2000/svg" width="1200" height="900" viewBox="0 0 1200 900">
  <rect x="0" y="0" width="1200" height="900" fill="#1a1a2e"/>
  <polygon points="138.8,427.4 157.3,427.4 176.1,427.4 195.0,427.4 213.8,427.4 232.7,427.4 251.5,427.4 270.3,427.4 289.2,427.4 308.0,427.4 326.8,427.4 345.7,427.4 364.5,427.4 383.4,427.4 402.2,427.4 421.0,427.4 439.9,427.4 458.7,427.4 477.6,427.4 496.4,427.4 515.2,427.4 534.1,427.4 552.9,427.4 571.7,427.4 590.6,427.4 609.4,427.4 628.3,427.4 647.1,427.4 665.9,427.4 684.8,427.4 703.6,427.4 722.4,427.4 741.3,427.4 760.1,427.4 779.0,427.4 797.8,427.4 816.6,427.4 835.5,427.4 854.3,427.4 873.2,427.4 892.0,427.4 910.8,427.4 929.7,427.4 948.5,427.4 967.3,427.4 986.2,427.4 1005.0,427.4 1023.9,427.4 1042.7,427.4 1061.5,427.4 1061.5,472.6 1042.7,472.6 1023.9,472.6 1005.0,472.6 986.2,472.6 967.3,472.6 948.5,472.6 929.7,472.6 910.8,472.6 892.0,472.6 873.2,472.6 854.3,472.6 835.5,472.6 816.6,472.6 797.8,472.6 779.0,472.6 760.1,472.6 741.3,472.6 722.4,472.6 703.6,472.6 684.8,472.6 665.9,472.6 647.1,472.6 628.3,472.6 609.4,472.6 590.6,472.6 571.7,472.6 552.9,472.6 534.1,472.6 515.2,472.6 496.4,472.6 477.6,472.6 458.7,472.6 439.9,472.6 421.0,472.6 402.2,472.6 383.4,472.6 364.5,472.6 345.7,472.6 326.8,472.6 308.0,472.6 289.2,472.6 270.3,472.6 251.5,472.6 232.7,472.6 213.8,472.6 195.0,472.6 176.1,472.6 157.3,472.6 138.1,472.6 " fill="#2d2d44" stroke="none"/>
  <polyline points="138.8,427.4 157.3,427.4 176.1,427.4 195.0,427.4 213.8,427.4 232.7,427.4 251.5,427.4 270.3,427.4 289.2,427.4 308.0,427.4 326.8,427.4 345.7,427.4 364.5,427.4 383.4,427.4 402.2,427.4 421.0,427.4 439.9,427.4 458.7,427.4 477.6,427.4 496.4,427.4 515.2,427.4 534.1,427.4 552.9,427.4 571.7,427.4 590.6,427.4 609.4,427.4 628.3,427.4 647.1,427.4 665.9,427.4 684.8,427.4 703.6,427.4 722.4,427.4 741.3,427.4 760.1,427.4 779.0,427.4 797.8,427.4 816.6,427.4 835.5,427.4 854.3,427.4 873.2,427.4 892.0,427.4 910.8,427.4 929.7,427.4 948.5,427.4 967.3,427.4 986.2,427.4 1005.0,427.4 1023.9,427.4 1042.7,427.4 1061.5,427.4 138.8,427.4 " fill="none" stroke="#555555" stroke-width="4.51"/>
  <polyline points="138.1,472.6 157.3,472.6 176.1,472.6 195.0,472.6 213.8,472.6 232.7,472.6 251.5,472.6 270.3,472.6 289.2,472.6 308.0,472.6 326.8,472.6 345.7,472.6 364.5,472.6 383.4,472.6 402.2,472.6 421.0,472.6 439.9,472.6 458.7,472.6 477.6,472.6 496.4,472.6 515.2,472.6 534.1,472.6 552.9,472.6 571.7,472.6 590.6,472.6 609.4,472.6 628.3,472.6 647.1,472.6 665.9,472.6 684.8,472.6 703.6,472.6 722.4,472.6 741.3,472.6 760.1,472.6 779.0,472.6 797.8,472.6 816.6,472.6 835.5,472.6 854.3,472.6 873.2,472.6 892.0,472.6 910.8,472.6 929.7,472.6 948.5,472.6 967.3,472.6 986.2,472.6 1005.0,472.6 1023.9,472.6 1042.7,472.6 1061.5,472.6 138.1,472.6 " fill="none" stroke="#555555" stroke-width="4.51"/>
  <line x1="138.5" y1="450.0" x2="157.3" y2="450.0" stroke="#0026ff" stroke-width="11.28" stroke-linecap="round"/>
  <line x1="157.3" y1="450.0" x2="176.1" y2="450.0" stroke="#00b9ff" stroke-width="11.28" stroke-linecap="round"/>
  <line x1="176.1" y1="450.0" x2="195.0" y2="450.0" stroke="#00ffca" stroke-width="11.28" stroke-linecap="round"/>
  <line x1="195.0" y1="450.0" x2="213.8" y2="450.0" stroke="#00ff5f" stroke-width="11.28" stroke-linecap="round"/>
  <line x1="213.8" y1="450.0" x2="232.7" y2="450.0" stroke="#00ff03" stroke-width="11.28" stroke-linecap="round"/>
  <line x1="232.7" y1="450.0" x2="251.5" y2="450.0" stroke="#50ff00" stroke-width="11.28" stroke-linecap="round"/>
  <line x1="251.5" y1="450.0" x2="270.3" y2="450.0" stroke="#99ff00" stroke-width="11.28" stroke-linecap="round"/>
  <line x1="270.3" y1="450.0" x2="289.2" y2="450.0" stroke="#dbff00" stroke-width="11.28" stroke-linecap="round"/>
  <line x1="289.2" y1="450.0" x2="308.0" y2="450.0" stroke="#ffe500" stroke-width="11.28" stroke-linecap="round"/>
  <line x1="308.0" y1="450.0" x2="326.8" y2="450.0" stroke="#ffab00" stroke-width="11.28" stroke-linecap="round"/>
  <line x1="326.8" y1="450.0" x2="345.7" y2="450.0" stroke="#ff7100" stroke-width="11.28" stroke-linecap="round"/>
  <line x1="345.7" y1="450.0" x2="364.5" y2="450.0" stroke="#ff3700" stroke-width="11.28" stroke-linecap="round"/>
  <line x1="364.5" y1="450.0" x2="383.4" y2="450.0" stroke="#ff0000" stroke-width="11.28" stroke-linecap="round"/>
  <line x1="383.4" y1="450.0" x2="402.2" y2="450.0" stroke="#ff3700" stroke-width="11.28" stroke-linecap="round"/>
  <line x1="402.2" y1="450.0" x2="421.0" y2="450.0" stroke="#faff00" stroke-width="11.28" stroke-linecap="round"/>
  <line x1="421.0" y1="450.0" x2="439.9" y2="450.0" stroke="#00ff38" stroke-width="11.28" stroke-linecap="round"/>
  <line x1="439.9" y1="450.0" x2="458.7" y2="450.0" stroke="#00adff" stroke-width="11.28" stroke-linecap="round"/>
  <line x1="458.7" y1="450.0" x2="477.6" y2="450.0" stroke="#004bff" stroke-width="11.28" stroke-linecap="round"/>
  <line x1="477.6" y1="450.0" x2="496.4" y2="450.0" stroke="#0037ff" stroke-width="11.28" stroke-linecap="round"/>
  <line x1="496.4" y1="450.0" x2="515.2" y2="450.0" stroke="#0026ff" stroke-width="11.28" stroke-linecap="round"/>
  <line x1="515.2" y1="450.0" x2="534.1" y2="450.0" stroke="#001aff" stroke-width="11.28" stroke-linecap="round"/>
  <line x1="534.1" y1="450.0" x2="552.9" y2="450.0" stroke="#0011ff" stroke-width="11.28" stroke-linecap="round"/>
  <line x1="552.9" y1="450.0" x2="571.7" y2="450.0" stroke="#0008ff" stroke-width="11.28" stroke-linecap="round"/>
  <line x1="571.7" y1="450.0" x2="590.6" y2="450.0" stroke="#0000ff" stroke-width="11.28" stroke-linecap="round"/>
  <line x1="590.6" y1="450.0" x2="609.4" y2="450.0" stroke="#002cff" stroke-width="11.28" stroke-linecap="round"/>
  <line x1="609.4" y1="450.0" x2="628.3" y2="450.0" stroke="#0098ff" stroke-width="11.28" stroke-linecap="round"/>
  <line x1="628.3" y1="450.0" x2="647.1" y2="450.0" stroke="#00fff0" stroke-width="11.28" stroke-linecap="round"/>
  <line x1="647.1" y1="450.0" x2="665.9" y2="450.0" stroke="#00ff89" stroke-width="11.28" stroke-linecap="round"/>
  <line x1="665.9" y1="450.0" x2="684.8" y2="450.0" stroke="#00ff2c" stroke-width="11.28" stroke-linecap="round"/>
  <line x1="684.8" y1="450.0" x2="703.6" y2="450.0" stroke="#29ff00" stroke-width="11.28" stroke-linecap="round"/>
  <line x1="703.6" y1="450.0" x2="722.4" y2="450.0" stroke="#76ff00" stroke-width="11.28" stroke-linecap="round"/>
  <line x1="722.4" y1="450.0" x2="741.3" y2="450.0" stroke="#bbff00" stroke-width="11.28" stroke-linecap="round"/>
  <line x1="741.3" y1="450.0" x2="760.1" y2="450.0" stroke="#faff00" stroke-width="11.28" stroke-linecap="round"/>
  <line x1="760.1" y1="450.0" x2="779.0" y2="450.0" stroke="#ffc800" stroke-width="11.28" stroke-linecap="round"/>
  <line x1="779.0" y1="450.0" x2="797.8" y2="450.0" stroke="#ff8e00" stroke-width="11.28" stroke-linecap="round"/>
  <line x1="797.8" y1="450.0" x2="816.6" y2="450.0" stroke="#ff5400" stroke-width="11.28" stroke-linecap="round"/>
  <line x1="816.6" y1="450.0" x2="835.5" y2="450.0" stroke="#ff1b00" stroke-width="11.28" stroke-linecap="round"/>
  <line x1="835.5" y1="450.0" x2="854.3" y2="450.0" stroke="#ff0400" stroke-width="11.28" stroke-linecap="round"/>
  <line x1="854.3" y1="450.0" x2="873.2" y2="450.0" stroke="#ff8000" stroke-width="11.28" stroke-linecap="round"/>
  <line x1="873.2" y1="450.0" x2="892.0" y2="450.0" stroke="#6bff00" stroke-width="11.28" stroke-linecap="round"/>
  <line x1="892.0" y1="450.0" x2="910.8" y2="450.0" stroke="#00ffdd" stroke-width="11.28" stroke-linecap="round"/>
  <line x1="910.8" y1="450.0" x2="929.7" y2="450.0" stroke="#0054ff" stroke-width="11.28" stroke-linecap="round"/>
  <line x1="929.7" y1="450.0" x2="948.5" y2="450.0" stroke="#003eff" stroke-width="11.28" stroke-linecap="round"/>
  <line x1="948.5" y1="450.0" x2="967.3" y2="450.0" stroke="#002cff" stroke-width="11.28" stroke-linecap="round"/>
  <line x1="967.3" y1="450.0" x2="986.2" y2="450.0" stroke="#0020ff" stroke-width="11.28" stroke-linecap="round"/>
  <line x1="986.2" y1="450.0" x2="1005.0" y2="450.0" stroke="#001aff" stroke-width="11.28" stroke-linecap="round"/>
  <line x1="1005.0" y1="450.0" x2="1023.9" y2="450.0" stroke="#0019ff" stroke-width="11.28" stroke-linecap="round"/>
  <line x1="1023.9" y1="450.0" x2="1042.7" y2="450.0" stroke="#001aff" stroke-width="11.28" stroke-linecap="round"/>
  <line x1="1042.7" y1="450.0" x2="1061.5" y2="450.0" stroke="#001dff" stroke-width="11.28" stroke-linecap="round"/>
  <line x1="1061.5" y1="450.0" x2="138.5" y2="450.0" stroke="#0021ff" stroke-width="11.28" stroke-linecap="round"/>
  <line x1="138.8" y1="427.4" x2="138.1" y2="472.6" stroke="#ffffff" stroke-width="4.51"/>
  <text x="30" y="50" font-family="sans-serif" font-size="34" fill="#ffffff">Apex-14 — Optimized Oval</text>
  <rect x="910.0" y="842.0" width="5.33" height="18.0" fill="#0000ff"/>
  <rect x="914.4" y="842.0" width="5.33" height="18.0" fill="#0011ff"/>
  <rect x="918.8" y="842.0" width="5.33" height="18.0" fill="#0023ff"/>
  <rect x="923.2" y="842.0" width="5.33" height="18.0" fill="#0034ff"/>
  <rect x="927.6" y="842.0" width="5.33" height="18.0" fill="#0045ff"/>
  <rect x="932.0" y="842.0" width="5.33" height="18.0" fill="#0056ff"/>
  <rect x="936.4" y="842.0" width="5.33" height="18.0" fill="#0068ff"/>
  <rect x="940.8" y="842.0" width="5.33" height="18.0" fill="#0079ff"/>
  <rect x="945.3" y="842.0" width="5.33" height="18.0" fill="#008aff"/>
  <rect x="949.7" y="842.0" width="5.33" height="18.0" fill="#009cff"/>
  <rect x="954.1" y="842.0" width="5.33" height="18.0" fill="#00adff"/>
  <rect x="958.5" y="842.0" width="5.33" height="18.0" fill="#00beff"/>
  <rect x="962.9" y="842.0" width="5.33" height="18.0" fill="#00cfff"/>
  <rect x="967.3" y="842.0" width="5.33" height="18.0" fill="#00e1ff"/>
  <rect x="971.7" y="842.0" width="5.33" height="18.0" fill="#00f2ff"/>
  <rect x="976.1" y="842.0" width="5.33" height="18.0" fill="#00fffb"/>
  <rect x="980.5" y="842.0" width="5.33" height="18.0" fill="#00ffe9"/>
  <rect x="984.9" y="842.0" width="5.33" height="18.0" fill="#00ffd8"/>
  <rect x="989.3" y="842.0" width="5.33" height="18.0" fill="#00ffc7"/>
  <rect x="993.7" y="842.0" width="5.33" height="18.0" fill="#00ffb6"/>
  <rect x="998.1" y="842.0" width="5.33" height="18.0" fill="#00ffa4"/>
  <rect x="1002.5" y="842.0" width="5.33" height="18.0" fill="#00ff93"/>
  <rect x="1006.9" y="842.0" width="5.33" height="18.0" fill="#00ff82"/>
  <rect x="1011.4" y="842.0" width="5.33" height="18.0" fill="#00ff70"/>
  <rect x="1015.8" y="842.0" width="5.33" height="18.0" fill="#00ff5f"/>
  <rect x="1020.2" y="842.0" width="5.33" height="18.0" fill="#00ff4e"/>
  <rect x="1024.6" y="842.0" width="5.33" height="18.0" fill="#00ff3d"/>
  <rect x="1029.0" y="842.0" width="5.33" height="18.0" fill="#00ff2b"/>
  <rect x="1033.4" y="842.0" width="5.33" height="18.0" fill="#00ff1a"/>
  <rect x="1037.8" y="842.0" width="5.33" height="18.0" fill="#00ff09"/>
  <rect x="1042.2" y="842.0" width="5.33" height="18.0" fill="#09ff00"/>
  <rect x="1046.6" y="842.0" width="5.33" height="18.0" fill="#1aff00"/>
  <rect x="1051.0" y="842.0" width="5.33" height="18.0" fill="#2bff00"/>
  <rect x="1055.4" y="842.0" width="5.33" height="18.0" fill="#3dff00"/>
  <rect x="1059.8" y="842.0" width="5.33" height="18.0" fill="#4eff00"/>
  <rect x="1064.2" y="842.0" width="5.33" height="18.0" fill="#5fff00"/>
  <rect x="1068.6" y="842.0" width="5.33" height="18.0" fill="#70ff00"/>
  <rect x="1073.1" y="842.0" width="5.33" height="18.0" fill="#82ff00"/>
  <rect x="1077.5" y="842.0" width="5.33" height="18.0" fill="#93ff00"/>
  <rect x="1081.9" y="842.0" width="5.33" height="18.0" fill="#a4ff00"/>
  <rect x="1086.3" y="842.0" width="5.33" height="18.0" fill="#b6ff00"/>
  <rect x="1090.7" y="842.0" width="5.33" height="18.0" fill="#c7ff00"/>
  <rect x="1095.1" y="842.0" width="5.33" height="18.0" fill="#d8ff00"/>
  <rect x="1099.5" y="842.0" width="5.33" height="18.0" fill="#e9ff00"/>
  <rect x="1103.9" y="842.0" width="5.33" height="18.0" fill="#fbff00"/>
  <rect x="1108.3" y="842.0" width="5.33" height="18.0" fill="#fff200"/>
  <rect x="1112.7" y="842.0" width="5.33" height="18.0" fill="#ffe100"/>
  <rect x="1117.1" y="842.0" width="5.33" height="18.0" fill="#ffcf00"/>
  <rect x="1121.5" y="842.0" width="5.33" height="18.0" fill="#ffbe00"/>
  <rect x="1125.9" y="842.0" width="5.33" height="18.0" fill="#ffad00"/>
  <rect x="1130.3" y="842.0" width="5.33" height="18.0" fill="#ff9c00"/>
  <rect x="1134.7" y="842.0" width="5.33" height="18.0" fill="#ff8a00"/>
  <rect x="1139.2" y="842.0" width="5.33" height="18.0" fill="#ff7900"/>
  <rect x="1143.6" y="842.0" width="5.33" height="18.0" fill="#ff6800"/>
  <rect x="1148.0" y="842.0" width="5.33" height="18.0" fill="#ff5600"/>
  <rect x="1152.4" y="842.0" width="5.33" height="18.0" fill="#ff4500"/>
  <rect x="1156.8" y="842.0" width="5.33" height="18.0" fill="#ff3400"/>
  <rect x="1161.2" y="842.0" width="5.33" height="18.0" fill="#ff2300"/>
  <rect x="1165.6" y="842.0" width="5.33" height="18.0" fill="#ff1100"/>
  <rect x="1170.0" y="842.0" width="5.33" height="18.0" fill="#ff0000"/>
  <text x="910.0" y="836.0" font-family="sans-serif" font-size="18" fill="#ffffff" text-anchor="start">197 km/h</text>
  <text x="1170.0" y="836.0" font-family="sans-serif" font-size="18" fill="#ffffff" text-anchor="end">388 km/h</text>
</svg>
