<?xml version="1.0" encoding="UTF-8"?>
<svg xmlns="http://www.w3.org/2000/svg" width="1200" height="900" viewBox="0 0 1200 900">
  <rect x="0" y="0" width="1200" height="900" fill="#1a1a2e"/>
  <polygon points="215.4,522.3 219.4,522.3 223.5,522.3 227.5,522.3 231.6,522.3 235.6,522.3 239.6,522.3 243.7,522.3 247.7,522.3 251.8,522.3 255.8,522.3 259.9,522.3 263.9,522.3 267.9,522.3 272.0,522.3 276.0,522.3 280.1,522.3 284.1,522.3 288.2,522.3 292.2,522.3 296.3,522.3 300.3,522.3 304.3,522.3 308.4,522.3 312.4,522.3 316.5,522.3 320.5,522.3 324.6,522.3 328.6,522.3 332.6,522.3 336.7,522.3 340.7,522.3 344.8,522.3 348.8,522.3 352.9,522.3 356.9,522.3 361.0,522.3 365.0,522.3 369.0,522.3 373.1,522.3 377.1,522.3 381.2,522.3 385.2,522.3 389.3,522.3 393.3,522.3 397.3,522.3 401.4,522.3 405.4,522.3 409.5,522.3 413.5,522.3 417.6,522.3 421.6,522.3 425.6,522.3 429.7,522.3 433.7,522.3 437.8,522.3 441.8,522.3 445.9,522.3 449.9,522.3 454.0,522.3 458.0,522.3 462.0,522.3 466.1,522.3 470.1,522.3 474.2,522.3 478.2,522.3 482.3,522.3 486.3,522.3 490.3,522.3 494.4,522.3 498.4,522.3 502.5,522.3 506.5,522.3 510.6,522.3 514.6,522.3 518.7,522.3 522.7,522.3 526.7,522.3 530.8,522.3 534.8,522.3 538.9,522.3 542.9,522.3 547.0,522.3 551.0,522.3 555.0,522.3 559.1,522.3 563.1,522.3 567.2,522.3 571.2,522.3 575.3,522.3 579.3,522.3 583.3,522.3 587.4,522.3 591.4,522.3 595.5,522.3 599.5,522.3 603.6,522.3 607.6,522.3 611.7,522.3 615.7,522.3 619.7,522.3 623.8,522.3 627.8,522.3 631.9,522.3 635.9,522.3 640.0,522.3 644.0,522.3 648.0,522.3 652.1,522.3 656.1,522.3 660.2,522.3 664.2,522.3 668.3,522.3 672.3,522.3 676.4,522.3 680.4,522.3 684.4,522.3 688.5,522.3 692.5,522.3 696.6,522.3 700.6,522.3 704.7,522.3 708.7,522.3 712.7,522.3 716.8,522.3 720.8,522.3 724.9,522.3 728.9,522.3 733.0,522.3 737.0,522.3 741.0,522.3 745.1,522.3 749.1,522.3 753.2,522.3 757.2,522.3 761.3,522.3 765.3,522.3 769.4,522.3 773.4,522.3 777.4,522.3 781.5,522.3 785.5,522.3 789.6,522.3 793.6,522.3 797.7,522.3 801.7,522.3 805.7,522.3 809.8,522.3 813.8,522.3 817.9,522.3 821.9,522.3 826.0,522.3 830.0,522.3 834.1,522.3 838.1,522.3 842.1,522.3 846.2,522.3 850.2,522.3 854.3,522.3 858.3,522.3 862.4,522.3 866.4,522.3 870.4,522.3 874.5,522.3 878.5,522.3 882.6,522.3 886.6,522.3 890.7,522.3 894.7,522.3 898.7,522.3 902.8,522.3 906.8,522.3 910.9,522.3 914.9,522.3 919.0,522.3 923.0,522.3 927.1,522.3 931.1,522.3 935.1,522.3 939.2,522.3 943.2,522.3 947.3,522.3 951.3,522.3 955.4,522.3 959.4,522.3 963.4,522.3 967.5,522.3 971.5,522.3 975.6,522.3 979.6,522.3 983.6,522.3 987.5,522.2 991.3,522.0 995.1,521.5 998.8,520.9 1002.5,520.1 1006.2,519.0 1009.8,517.8 1013.3,516.4 1016.8,514.8 1020.1,513.0 1023.4,511.0 1026.5,508.9 1029.6,506.6 1032.5,504.2 1035.3,501.6 1037.9,498.9 1040.4,496.0 1042.7,493.0 1044.9,489.9 1046.9,486.7 1048.8,483.3 1050.4,479.9 1051.9,476.4 1053.2,472.9 1054.3,469.2 1055.2,465.5 1056.0,461.8 1056.5,458.0 1056.8,454.2 1056.9,450.4 1056.8,446.6 1056.6,442.9 1056.1,439.1 1055.4,435.3 1054.6,431.6 1053.5,428.0 1052.2,424.4 1050.8,420.9 1049.2,417.5 1047.4,414.1 1045.4,410.9 1043.3,407.7 1041.0,404.7 1038.5,401.8 1035.9,399.0 1033.2,396.4 1030.3,393.9 1027.3,391.6 1024.1,389.4 1020.9,387.5 1017.6,385.6 1014.1,384.0 1010.6,382.5 1007.0,381.3 1003.4,380.2 999.7,379.3 996.0,378.6 992.2,378.1 988.4,377.8 984.6,377.7 980.6,377.7 976.5,377.7 972.5,377.7 968.4,377.7 964.4,377.7 960.4,377.7 956.3,377.7 952.3,377.7 948.2,377.7 944.2,377.7 940.1,377.7 936.1,377.7 932.1,377.7 928.0,377.7 924.0,377.7 919.9,377.7 915.9,377.7 911.8,377.7 907.8,377.7 903.7,377.7 899.7,377.7 895.7,377.7 891.6,377.7 887.6,377.7 883.5,377.7 879.5,377.7 875.4,377.7 871.4,377.7 867.4,377.7 863.3,377.7 859.3,377.7 855.2,377.7 851.2,377.7 847.1,377.7 843.1,377.7 839.0,377.7 835.0,377.7 831.0,377.7 826.9,377.7 822.9,377.7 818.8,377.7 814.8,377.7 810.7,377.7 806.7,377.7 802.7,377.7 798.6,377.7 794.6,377.7 790.5,377.7 786.5,377.7 782.4,377.7 778.4,377.7 774.4,377.7 770.3,377.7 766.3,377.7 762.2,377.7 758.2,377.7 754.1,377.7 750.1,377.7 746.0,377.7 742.0,377.7 738.0,377.7 733.9,377.7 729.9,377.7 725.8,377.7 721.8,377.7 717.7,377.7 713.7,377.7 709.7,377.7 705.6,377.7 701.6,377.7 697.5,377.7 693.5,377.7 689.4,377.7 685.4,377.7 681.3,377.7 677.3,377.7 673.3,377.7 669.2,377.7 665.2,377.7 661.1,377.7 657.1,377.7 653.0,377.7 649.0,377.7 645.0,377.7 640.9,377.7 636.9,377.7 632.8,377.7 628.8,377.7 624.7,377.7 620.7,377.7 616.7,377.7 612.6,377.7 608.6,377.7 604.5,377.7 600.5,377.7 596.4,377.7 592.4,377.7 588.3,377.7 584.3,377.7 580.3,377.7 576.2,377.7 572.2,377.7 568.1,377.7 564.1,377.7 560.0,377.7 556.0,377.7 552.0,377.7 547.9,377.7 543.9,377.7 539.8,377.7 535.8,377.7 531.7,377.7 527.7,377.7 523.6,377.7 519.6,377.7 515.6,377.7 511.5,377.7 507.5,377.7 503.4,377.7 499.4,377.7 495.3,377.7 491.3,377.7 487.3,377.7 483.2,377.7 479.2,377.7 475.1,377.7 471.1,377.7 467.0,377.7 463.0,377.7 459.0,377.7 454.9,377.7 450.9,377.7 446.8,377.7 442.8,377.7 438.7,377.7 434.7,377.7 430.6,377.7 426.6,377.7 422.6,377.7 418.5,377.7 414.5,377.7 410.4,377.7 406.4,377.7 402.3,377.7 398.3,377.7 394.3,377.7 390.2,377.7 386.2,377.7 382.1,377.7 378.1,377.7 374.0,377.7 370.0,377.7 365.9,377.7 361.9,377.7 357.9,377.7 353.8,377.7 349.8,377.7 345.7,377.7 341.7,377.7 337.6,377.7 333.6,377.7 329.6,377.7 325.5,377.7 321.5,377.7 317.4,377.7 313.4,377.7 309.3,377.7 305.3,377.7 301.3,377.7 297.2,377.7 293.2,377.7 289.1,377.7 285.1,377.7 281.0,377.7 277.0,377.7 272.9,377.7 268.9,377.7 264.9,377.7 260.8,377.7 256.8,377.7 252.7,377.7 248.7,377.7 244.6,377.7 240.6,377.7 236.6,377.7 232.5,377.7 228.5,377.7 224.4,377.7 220.4,377.7 216.4,377.7 212.5,377.8 208.7,378.0 204.9,378.5 201.2,379.1 197.5,379.9 193.8,381.0 190.2,382.2 186.7,383.6 183.2,385.2 179.9,387.0 176.6,389.0 173.5,391.1 170.4,393.4 167.5,395.8 164.7,398.4 162.1,401.1 159.6,404.0 157.3,407.0 155.1,410.1 153.1,413.3 151.2,416.7 149.6,420.1 148.1,423.6 146.8,427.1 145.7,430.8 144.8,434.5 144.0,438.2 143.5,442.0 143.2,445.8 143.1,449.6 143.2,453.4 143.4,457.1 143.9,460.9 144.6,464.7 145.4,468.4 146.5,472.0 147.8,475.6 149.2,479.1 150.8,482.5 152.6,485.9 154.6,489.1 156.7,492.3 159.0,495.3 161.5,498.2 164.1,501.0 166.8,503.6 169.7,506.1 172.7,508.4 175.9,510.6 179.1,512.5 182.4,514.4 185.9,516.0 189.4,517.5 193.0,518.7 196.6,519.8 200.3,520.7 204.0,521.4 207.8,521.9 211.6,522.2 211.1,531.4 206.8,531.1 202.6,530.5 198.4,529.7 194.2,528.7 190.1,527.5 186.1,526.1 182.1,524.4 178.2,522.6 174.5,520.5 170.8,518.3 167.3,515.8 163.9,513.2 160.6,510.4 157.5,507.5 154.6,504.4 151.8,501.1 149.2,497.7 146.8,494.1 144.6,490.5 142.6,486.7 140.7,482.8 139.1,478.9 137.7,474.8 136.5,470.7 135.5,466.5 134.8,462.3 134.2,458.1 133.9,453.8 133.8,449.5 134.0,445.2 134.3,440.9 134.9,436.7 135.7,432.5 136.8,428.3 138.0,424.2 139.5,420.2 141.2,416.3 143.0,412.4 145.1,408.6 147.4,405.0 149.8,401.5 152.5,398.1 155.3,394.9 158.3,391.8 161.4,388.9 164.7,386.1 168.1,383.6 171.7,381.2 175.3,379.0 179.1,377.0 183.0,375.2 187.0,373.6 191.1,372.2 195.2,371.0 199.4,370.1 203.6,369.3 207.8,368.8 212.1,368.5 216.3,368.5 220.4,368.5 224.4,368.5 228.5,368.5 232.5,368.5 236.6,368.5 240.6,368.5 244.6,368.5 248.7,368.5 252.7,368.5 256.8,368.5 260.8,368.5 264.9,368.5 268.9,368.5 272.9,368.5 277.0,368.5 281.0,368.5 285.1,368.5 289.1,368.5 293.2,368.5 297.2,368.5 301.3,368.5 305.3,368.5 309.3,368.5 313.4,368.5 317.4,368.5 321.5,368.5 325.5,368.5 329.6,368.5 333.6,368.5 337.6,368.5 341.7,368.5 345.7,368.5 349.8,368.5 353.8,368.5 357.9,368.5 361.9,368.5 365.9,368.5 370.0,368.5 374.0,368.5 378.1,368.5 382.1,368.5 386.2,368.5 390.2,368.5 394.3,368.5 398.3,368.5 402.3,368.5 406.4,368.5 410.4,368.5 414.5,368.5 418.5,368.5 422.6,368.5 426.6,368.5 430.6,368.5 434.7,368.5 438.7,368.5 442.8,368.5 446.8,368.5 450.9,368.5 454.9,368.5 459.0,368.5 463.0,368.5 467.0,368.5 471.1,368.5 475.1,368.5 479.2,368.5 483.2,368.5 487.3,368.5 491.3,368.5 495.3,368.5 499.4,368.5 503.4,368.5 507.5,368.5 511.5,368.5 515.6,368.5 519.6,368.5 523.6,368.5 527.7,368.5 531.7,368.5 535.8,368.5 539.8,368.5 543.9,368.5 547.9,368.5 552.0,368.5 556.0,368.5 560.0,368.5 564.1,368.5 568.1,368.5 572.2,368.5 576.2,368.5 580.3,368.5 584.3,368.5 588.3,368.5 592.4,368.5 596.4,368.5 600.5,368.5 604.5,368.5 608.6,368.5 612.6,368.5 616.7,368.5 620.7,368.5 624.7,368.5 628.8,368.5 632.8,368.5 636.9,368.5 640.9,368.5 645.0,368.5 649.0,368.5 653.0,368.5 657.1,368.5 661.1,368.5 665.2,368.5 669.2,368.5 673.3,368.5 677.3,368.5 681.3,368.5 685.4,368.5 689.4,368.5 693.5,368.5 697.5,368.5 701.6,368.5 705.6,368.5 709.7,368.5 713.7,368.5 717.7,368.5 721.8,368.5 725.8,368.5 729.9,368.5 733.9,368.5 738.0,368.5 742.0,368.5 746.0,368.5 750.1,368.5 754.1,368.5 758.2,368.5 762.2,368.5 766.3,368.5 770.3,368.5 774.4,368.5 778.4,368.5 782.4,368.5 786.5,368.5 790.5,368.5 794.6,368.5 798.6,368.5 802.7,368.5 806.7,368.5 810.7,368.5 814.8,368.5 818.8,368.5 822.9,368.5 826.9,368.5 831.0,368.5 835.0,368.5 839.0,368.5 843.1,368.5 847.1,368.5 851.2,368.5 855.2,368.5 859.3,368.5 863.3,368.5 867.4,368.5 871.4,368.5 875.4,368.5 879.5,368.5 883.5,368.5 887.6,368.5 891.6,368.5 895.7,368.5 899.7,368.5 903.7,368.5 907.8,368.5 911.8,368.5 915.9,368.5 919.9,368.5 924.0,368.5 928.0,368.5 932.1,368.5 936.1,368.5 940.1,368.5 944.2,368.5 948.2,368.5 952.3,368.5 956.3,368.5 960.4,368.5 964.4,368.5 968.4,368.5 972.5,368.5 976.5,368.5 980.6,368.5 984.7,368.5 988.9,368.6 993.2,368.9 997.4,369.5 1001.6,370.3 1005.8,371.3 1009.9,372.5 1013.9,373.9 1017.9,375.6 1021.8,377.4 1025.5,379.5 1029.2,381.7 1032.7,384.2 1036.1,386.8 1039.4,389.6 1042.5,392.5 1045.4,395.6 1048.2,398.9 1050.8,402.3 1053.2,405.9 1055.4,409.5 1057.4,413.3 1059.3,417.2 1060.9,421.1 1062.3,425.2 1063.5,429.3 1064.5,433.5 1065.2,437.7 1065.8,441.9 1066.1,446.2 1066.2,450.5 1066.0,454.8 1065.7,459.1 1065.1,463.3 1064.3,467.5 1063.2,471.7 1062.0,475.8 1060.5,479.8 1058.8,483.7 1057.0,487.6 1054.9,491.4 1052.6,495.0 1050.2,498.5 1047.5,501.9 1044.7,505.1 1041.7,508.2 1038.6,511.1 1035.3,513.9 1031.9,516.4 1028.3,518.8 1024.7,521.0 1020.9,523.0 1017.0,524.8 1013.0,526.4 1008.9,527.8 1004.8,529.0 1000.6,529.9 996.4,530.7 992.2,531.2 987.9,531.5 983.7,531.5 979.6,531.5 975.6,531.5 971.5,531.5 967.5,531.5 963.4,531.5 959.4,531.5 955.4,531.5 951.3,531.5 947.3,531.5 943.2,531.5 939.2,531.5 935.1,531.5 931.1,531.5 927.1,531.5 923.0,531.5 919.0,531.5 914.9,531.5 910.9,531.5 906.8,531.5 902.8,531.5 898.7,531.5 894.7,531.5 890.7,531.5 886.6,531.5 882.6,531.5 878.5,531.5 874.5,531.5 870.4,531.5 866.4,531.5 862.4,531.5 858.3,531.5 854.3,531.5 850.2,531.5 846.2,531.5 842.1,531.5 838.1,531.5 834.1,531.5 830.0,531.5 826.0,531.5 821.9,531.5 817.9,531.5 813.8,531.5 809.8,531.5 805.7,531.5 801.7,531.5 797.7,531.5 793.6,531.5 789.6,531.5 785.5,531.5 781.5,531.5 777.4,531.5 773.4,531.5 769.4,531.5 765.3,531.5 761.3,531.5 757.2,531.5 753.2,531.5 749.1,531.5 745.1,531.5 741.0,531.5 737.0,531.5 733.0,531.5 728.9,531.5 724.9,531.5 720.8,531.5 716.8,531.5 712.7,531.5 708.7,531.5 704.7,531.5 700.6,531.5 696.6,531.5 692.5,531.5 688.5,531.5 684.4,531.5 680.4,531.5 676.4,531.5 672.3,531.5 668.3,531.5 664.2,531.5 660.2,531.5 656.1,531.5 652.1,531.5 648.0,531.5 644.0,531.5 640.0,531.5 635.9,531.5 631.9,531.5 627.8,531.5 623.8,531.5 619.7,531.5 615.7,531.5 611.7,531.5 607.6,531.5 603.6,531.5 599.5,531.5 595.5,531.5 591.4,531.5 587.4,531.5 583.3,531.5 579.3,531.5 575.3,531.5 571.2,531.5 567.2,531.5 563.1,531.5 559.1,531.5 555.0,531.5 551.0,531.5 547.0,531.5 542.9,531.5 538.9,531.5 534.8,531.5 530.8,531.5 526.7,531.5 522.7,531.5 518.7,531.5 514.6,531.5 510.6,531.5 506.5,531.5 502.5,531.5 498.4,531.5 494.4,531.5 490.3,531.5 486.3,531.5 482.3,531.5 478.2,531.5 474.2,531.5 470.1,531.5 466.1,531.5 462.0,531.5 458.0,531.5 454.0,531.5 449.9,531.5 445.9,531.5 441.8,531.5 437.8,531.5 433.7,531.5 429.7,531.5 425.6,531.5 421.6,531.5 417.6,531.5 413.5,531.5 409.5,531.5 405.4,531.5 401.4,531.5 397.3,531.5 393.3,531.5 389.3,531.5 385.2,531.5 381.2,531.5 377.1,531.5 373.1,531.5 369.0,531.5 365.0,531.5 361.0,531.5 356.9,531.5 352.9,531.5 348.8,531.5 344.8,531.5 340.7,531.5 336.7,531.5 332.6,531.5 328.6,531.5 324.6,531.5 320.5,531.5 316.5,531.5 312.4,531.5 308.4,531.5 304.3,531.5 300.3,531.5 296.3,531.5 292.2,531.5 288.2,531.5 284.1,531.5 280.1,531.5 276.0,531.5 272.0,531.5 267.9,531.5 263.9,531.5 259.9,531.5 255.8,531.5 251.8,531.5 247.7,531.5 243.7,531.5 239.6,531.5 235.6,531.5 231.6,531.5 227.5,531.5 223.5,531.5 219.4,531.5 215.3,531.5 " fill="#2d2d44" stroke="none"/>
  <polyline points="215.4,522.3 219.4,522.3 223.5,522.3 227.5,522.3 231.6,522.3 235.6,522.3 239.6,522.3 243.7,522.3 247.7,522.3 251.8,522.3 255.8,522.3 259.9,522.3 263.9,522.3 267.9,522.3 272.0,522.3 276.0,522.3 280.1,522.3 284.1,522.3 288.2,522.3 292.2,522.3 296.3,522.3 300.3,522.3 304.3,522.3 308.4,522.3 312.4,522.3 316.5,522.3 320.5,522.3 324.6,522.3 328.6,522.3 332.6,522.3 336.7,522.3 340.7,522.3 344.8,522.3 348.8,522.3 352.9,522.3 356.9,522.3 361.0,522.3 365.0,522.3 369.0,522.3 373.1,522.3 377.1,522.3 381.2,522.3 385.2,522.3 389.3,522.3 393.3,522.3 397.3,522.3 401.4,522.3 405.4,522.3 409.5,522.3 413.5,522.3 417.6,522.3 421.6,522.3 425.6,522.3 429.7,522.3 433.7,522.3 437.8,522.3 441.8,522.3 445.9,522.3 449.9,522.3 454.0,522.3 458.0,522.3 462.0,522.3 466.1,522.3 470.1,522.3 474.2,522.3 478.2,522.3 482.3,522.3 486.3,522.3 490.3,522.3 494.4,522.3 498.4,522.3 502.5,522.3 506.5,522.3 510.6,522.3 514.6,522.3 518.7,522.3 522.7,522.3 526.7,522.3 530.8,522.3 534.8,522.3 538.9,522.3 542.9,522.3 547.0,522.3 551.0,522.3 555.0,522.3 559.1,522.3 563.1,522.3 567.2,522.3 571.2,522.3 575.3,522.3 579.3,522.3 583.3,522.3 587.4,522.3 591.4,522.3 595.5,522.3 599.5,522.3 603.6,522.3 607.6,522.3 611.7,522.3 615.7,522.3 619.7,522.3 623.8,522.3 627.8,522.3 631.9,522.3 635.9,522.3 640.0,522.3 644.0,522.3 648.0,522.3 652.1,522.3 656.1,522.3 660.2,522.3 664.2,522.3 668.3,522.3 672.3,522.3 676.4,522.3 680.4,522.3 684.4,522.3 688.5,522.3 692.5,522.3 696.6,522.3 700.6,522.3 704.7,522.3 708.7,522.3 712.7,522.3 716.8,522.3 720.8,522.3 724.9,522.3 728.9,522.3 733.0,522.3 737.0,522.3 741.0,522.3 745.1,522.3 749.1,522.3 753.2,522.3 757.2,522.3 761.3,522.3 765.3,522.3 769.4,522.3 773.4,522.3 777.4,522.3 781.5,522.3 785.5,522.3 789.6,522.3 793.6,522.3 797.7,522.3 801.7,522.3 805.7,522.3 809.8,522.3 813.8,522.3 817.9,522.3 821.9,522.3 826.0,522.3 830.0,522.3 834.1,522.3 838.1,522.3 842.1,522.3 846.2,522.3 850.2,522.3 854.3,522.3 858.3,522.3 862.4,522.3 866.4,522.3 870.4,522.3 874.5,522.3 878.5,522.3 882.6,522.3 886.6,522.3 890.7,522.3 894.7,522.3 898.7,522.3 902.8,522.3 906.8,522.3 910.9,522.3 914.9,522.3 919.0,522.3 923.0,522.3 927.1,522.3 931.1,522.3 935.1,522.3 939.2,522.3 943.2,522.3 947.3,522.3 951.3,522.3 955.4,522.3 959.4,522.3 963.4,522.3 967.5,522.3 971.5,522.3 975.6,522.3 979.6,522.3 983.6,522.3 987.5,522.2 991.3,522.0 995.1,521.5 998.8,520.9 1002.5,520.1 1006.2,519.0 1009.8,517.8 1013.3,516.4 1016.8,514.8 1020.1,513.0 1023.4,511.0 1026.5,508.9 1029.6,506.6 1032.5,504.2 1035.3,501.6 1037.9,498.9 1040.4,496.0 1042.7,493.0 1044.9,489.9 1046.9,486.7 1048.8,483.3 1050.4,479.9 1051.9,476.4 1053.2,472.9 1054.3,469.2 1055.2,465.5 1056.0,461.8 1056.5,458.0 1056.8,454.2 1056.9,450.4 1056.8,446.6 1056.6,442.9 1056.1,439.1 1055.4,435.3 1054.6,431.6 1053.5,428.0 1052.2,424.4 1050.8,420.9 1049.2,417.5 1047.4,414.1 1045.4,410.9 1043.3,407.7 1041.0,404.7 1038.5,401.8 1035.9,399.0 1033.2,396.4 1030.3,393.9 1027.3,391.6 1024.1,389.4 1020.9,387.5 1017.6,385.6 1014.1,384.0 1010.6,382.5 1007.0,381.3 1003.4,380.2 999.7,379.3 996.0,378.6 992.2,378.1 988.4,377.8 984.6,377.7 980.6,377.7 976.5,377.7 972.5,377.7 968.4,377.7 964.4,377.7 960.4,377.7 956.3,377.7 952.3,377.7 948.2,377.7 944.2,377.7 940.1,377.7 936.1,377.7 932.1,377.7 928.0,377.7 924.0,377.7 919.9,377.7 915.9,377.7 911.8,377.7 907.8,377.7 903.7,377.7 899.7,377.7 895.7,377.7 891.6,377.7 887.6,377.7 883.5,377.7 879.5,377.7 875.4,377.7 871.4,377.7 867.4,377.7 863.3,377.7 859.3,377.7 855.2,377.7 851.2,377.7 847.1,377.7 843.1,377.7 839.0,377.7 835.0,377.7 831.0,377.7 826.9,377.7 822.9,377.7 818.8,377.7 814.8,377.7 810.7,377.7 806.7,377.7 802.7,377.7 798.6,377.7 794.6,377.7 790.5,377.7 786.5,377.7 782.4,377.7 778.4,377.7 774.4,377.7 770.3,377.7 766.3,377.7 762.2,377.7 758.2,377.7 754.1,377.7 750.1,377.7 746.0,377.7 742.0,377.7 738.0,377.7 733.9,377.7 729.9,377.7 725.8,377.7 721.8,377.7 717.7,377.7 713.7,377.7 709.7,377.7 705.6,377.7 701.6,377.7 697.5,377.7 693.5,377.7 689.4,377.7 685.4,377.7 681.3,377.7 677.3,377.7 673.3,377.7 669.2,377.7 665.2,377.7 661.1,377.7 657.1,377.7 653.0,377.7 649.0,377.7 645.0,377.7 640.9,377.7 636.9,377.7 632.8,377.7 628.8,377.7 624.7,377.7 620.7,377.7 616.7,377.7 612.6,377.7 608.6,377.7 604.5,377.7 600.5,377.7 596.4,377.7 592.4,377.7 588.3,377.7 584.3,377.7 580.3,377.7 576.2,377.7 572.2,377.7 568.1,377.7 564.1,377.7 560.0,377.7 556.0,377.7 552.0,377.7 547.9,377.7 543.9,377.7 539.8,377.7 535.8,377.7 531.7,377.7 527.7,377.7 523.6,377.7 519.6,377.7 515.6,377.7 511.5,377.7 507.5,377.7 503.4,377.7 499.4,377.7 495.3,377.7 491.3,377.7 487.3,377.7 483.2,377.7 479.2,377.7 475.1,377.7 471.1,377.7 467.0,377.7 463.0,377.7 459.0,377.7 454.9,377.7 450.9,377.7 446.8,377.7 442.8,377.7 438.7,377.7 434.7,377.7 430.6,377.7 426.6,377.7 422.6,377.7 418.5,377.7 414.5,377.7 410.4,377.7 406.4,377.7 402.3,377.7 398.3,377.7 394.3,377.7 390.2,377.7 386.2,377.7 382.1,377.7 378.1,377.7 374.0,377.7 370.0,377.7 365.9,377.7 361.9,377.7 357.9,377.7 353.8,377.7 349.8,377.7 345.7,377.7 341.7,377.7 337.6,377.7 333.6,377.7 329.6,377.7 325.5,377.7 321.5,377.7 317.4,377.7 313.4,377.7 309.3,377.7 305.3,377.7 301.3,377.7 297.2,377.7 293.2,377.7 289.1,377.7 285.1,377.7 281.0,377.7 277.0,377.7 272.9,377.7 268.9,377.7 264.9,377.7 260.8,377.7 256.8,377.7 252.7,377.7 248.7,377.7 244.6,377.7 240.6,377.7 236.6,377.7 232.5,377.7 228.5,377.7 224.4,377.7 220.4,377.7 216.4,377.7 212.5,377.8 208.7,378.0 204.9,378.5 201.2,379.1 197.5,379.9 193.8,381.0 190.2,382.2 186.7,383.6 183.2,385.2 179.9,387.0 176.6,389.0 173.5,391.1 170.4,393.4 167.5,395.8 164.7,398.4 162.1,401.1 159.6,404.0 157.3,407.0 155.1,410.1 153.1,413.3 151.2,416.7 149.6,420.1 148.1,423.6 146.8,427.1 145.7,430.8 144.8,434.5 144.0,438.2 143.5,442.0 143.2,445.8 143.1,449.6 143.2,453.4 143.4,457.1 143.9,460.9 144.6,464.7 145.4,468.4 146.5,472.0 147.8,475.6 149.2,479.1 150.8,482.5 152.6,485.9 154.6,489.1 156.7,492.3 159.0,495.3 161.5,498.2 164.1,501.0 166.8,503.6 169.7,506.1 172.7,508.4 175.9,510.6 179.1,512.5 182.4,514.4 185.9,516.0 189.4,517.5 193.0,518.7 196.6,519.8 200.3,520.7 204.0,521.4 207.8,521.9 211.6,522.2 215.4,522.3 " fill="none" stroke="#555555" stroke-width="1.00"/>
  <polyline points="215.3,531.5 219.4,531.5 223.5,531.5 227.5,531.5 231.6,531.5 235.6,531.5 239.6,531.5 243.7,531.5 247.7,531.5 251.8,531.5 255.8,531.5 259.9,531.5 263.9,531.5 267.9,531.5 272.0,531.5 276.0,531.5 280.1,531.5 284.1,531.5 288.2,531.5 292.2,531.5 296.3,531.5 300.3,531.5 304.3,531.5 308.4,531.5 312.4,531.5 316.5,531.5 320.5,531.5 324.6,531.5 328.6,531.5 332.6,531.5 336.7,531.5 340.7,531.5 344.8,531.5 348.8,531.5 352.9,531.5 356.9,531.5 361.0,531.5 365.0,531.5 369.0,531.5 373.1,531.5 377.1,531.5 381.2,531.5 385.2,531.5 389.3,531.5 393.3,531.5 397.3,531.5 401.4,531.5 405.4,531.5 409.5,531.5 413.5,531.5 417.6,531.5 421.6,531.5 425.6,531.5 429.7,531.5 433.7,531.5 437.8,531.5 441.8,531.5 445.9,531.5 449.9,531.5 454.0,531.5 458.0,531.5 462.0,531.5 466.1,531.5 470.1,531.5 474.2,531.5 478.2,531.5 482.3,531.5 486.3,531.5 490.3,531.5 494.4,531.5 498.4,531.5 502.5,531.5 506.5,531.5 510.6,531.5 514.6,531.5 518.7,531.5 522.7,531.5 526.7,531.5 530.8,531.5 534.8,531.5 538.9,531.5 542.9,531.5 547.0,531.5 551.0,531.5 555.0,531.5 559.1,531.5 563.1,531.5 567.2,531.5 571.2,531.5 575.3,531.5 579.3,531.5 583.3,531.5 587.4,531.5 591.4,531.5 595.5,531.5 599.5,531.5 603.6,531.5 607.6,531.5 611.7,531.5 615.7,531.5 619.7,531.5 623.8,531.5 627.8,531.5 631.9,531.5 635.9,531.5 640.0,531.5 644.0,531.5 648.0,531.5 652.1,531.5 656.1,531.5 660.2,531.5 664.2,531.5 668.3,531.5 672.3,531.5 676.4,531.5 680.4,531.5 684.4,531.5 688.5,531.5 692.5,531.5 696.6,531.5 700.6,531.5 704.7,531.5 708.7,531.5 712.7,531.5 716.8,531.5 720.8,531.5 724.9,531.5 728.9,531.5 733.0,531.5 737.0,531.5 741.0,531.5 745.1,531.5 749.1,531.5 753.2,531.5 757.2,531.5 761.3,531.5 765.3,531.5 769.4,531.5 773.4,531.5 777.4,531.5 781.5,531.5 785.5,531.5 789.6,531.5 793.6,531.5 797.7,531.5 801.7,531.5 805.7,531.5 809.8,531.5 813.8,531.5 817.9,531.5 821.9,531.5 826.0,531.5 830.0,531.5 834.1,531.5 838.1,531.5 842.1,531.5 846.2,531.5 850.2,531.5 854.3,531.5 858.3,531.5 862.4,531.5 866.4,531.5 870.4,531.5 874.5,531.5 878.5,531.5 882.6,531.5 886.6,531.5 890.7,531.5 894.7,531.5 898.7,531.5 902.8,531.5 906.8,531.5 910.9,531.5 914.9,531.5 919.0,531.5 923.0,531.5 927.1,531.5 931.1,531.5 935.1,531.5 939.2,531.5 943.2,531.5 947.3,531.5 951.3,531.5 955.4,531.5 959.4,531.5 963.4,531.5 967.5,531.5 971.5,531.5 975.6,531.5 979.6,531.5 983.7,531.5 987.9,531.5 992.2,531.2 996.4,530.7 1000.6,529.9 1004.8,529.0 1008.9,527.8 1013.0,526.4 1017.0,524.8 1020.9,523.0 1024.7,521.0 1028.3,518.8 1031.9,516.4 1035.3,513.9 1038.6,511.1 1041.7,508.2 1044.7,505.1 1047.5,501.9 1050.2,498.5 1052.6,495.0 1054.9,491.4 1057.0,487.6 1058.8,483.7 1060.5,479.8 1062.0,475.8 1063.2,471.7 1064.3,467.5 1065.1,463.3 1065.7,459.1 1066.0,454.8 1066.2,450.5 1066.1,446.2 1065.8,441.9 1065.2,437.7 1064.5,433.5 1063.5,429.3 1062.3,425.2 1060.9,421.1 1059.3,417.2 1057.4,413.3 1055.4,409.5 1053.2,405.9 1050.8,402.3 1048.2,398.9 1045.4,395.6 1042.5,392.5 1039.4,389.6 1036.1,386.8 1032.7,384.2 1029.2,381.7 1025.5,379.5 1021.8,377.4 1017.9,375.6 1013.9,373.9 1009.9,372.5 1005.8,371.3 1001.6,370.3 997.4,369.5 993.2,368.9 988.9,368.6 984.7,368.5 980.6,368.5 976.5,368.5 972.5,368.5 968.4,368.5 964.4,368.5 960.4,368.5 956.3,368.5 952.3,368.5 948.2,368.5 944.2,368.5 940.1,368.5 936.1,368.5 932.1,368.5 928.0,368.5 924.0,368.5 919.9,368.5 915.9,368.5 911.8,368.5 907.8,368.5 903.7,368.5 899.7,368.5 895.7,368.5 891.6,368.5 887.6,368.5 883.5,368.5 879.5,368.5 875.4,368.5 871.4,368.5 867.4,368.5 863.3,368.5 859.3,368.5 855.2,368.5 851.2,368.5 847.1,368.5 843.1,368.5 839.0,368.5 835.0,368.5 831.0,368.5 826.9,368.5 822.9,368.5 818.8,368.5 814.8,368.5 810.7,368.5 806.7,368.5 802.7,368.5 798.6,368.5 794.6,368.5 790.5,368.5 786.5,368.5 782.4,368.5 778.4,368.5 774.4,368.5 770.3,368.5 766.3,368.5 762.2,368.5 758.2,368.5 754.1,368.5 750.1,368.5 746.0,368.5 742.0,368.5 738.0,368.5 733.9,368.5 729.9,368.5 725.8,368.5 721.8,368.5 717.7,368.5 713.7,368.5 709.7,368.5 705.6,368.5 701.6,368.5 697.5,368.5 693.5,368.5 689.4,368.5 685.4,368.5 681.3,368.5 677.3,368.5 673.3,368.5 669.2,368.5 665.2,368.5 661.1,368.5 657.1,368.5 653.0,368.5 649.0,368.5 645.0,368.5 640.9,368.5 636.9,368.5 632.8,368.5 628.8,368.5 624.7,368.5 620.7,368.5 616.7,368.5 612.6,368.5 608.6,368.5 604.5,368.5 600.5,368.5 596.4,368.5 592.4,368.5 588.3,368.5 584.3,368.5 580.3,368.5 576.2,368.5 572.2,368.5 568.1,368.5 564.1,368.5 560.0,368.5 556.0,368.5 552.0,368.5 547.9,368.5 543.9,368.5 539.8,368.5 535.8,368.5 531.7,368.5 527.7,368.5 523.6,368.5 519.6,368.5 515.6,368.5 511.5,368.5 507.5,368.5 503.4,368.5 499.4,368.5 495.3,368.5 491.3,368.5 487.3,368.5 483.2,368.5 479.2,368.5 475.1,368.5 471.1,368.5 467.0,368.5 463.0,368.5 459.0,368.5 454.9,368.5 450.9,368.5 446.8,368.5 442.8,368.5 438.7,368.5 434.7,368.5 430.6,368.5 426.6,368.5 422.6,368.5 418.5,368.5 414.5,368.5 410.4,368.5 406.4,368.5 402.3,368.5 398.3,368.5 394.3,368.5 390.2,368.5 386.2,368.5 382.1,368.5 378.1,368.5 374.0,368.5 370.0,368.5 365.9,368.5 361.9,368.5 357.9,368.5 353.8,368.5 349.8,368.5 345.7,368.5 341.7,368.5 337.6,368.5 333.6,368.5 329.6,368.5 325.5,368.5 321.5,368.5 317.4,368.5 313.4,368.5 309.3,368.5 305.3,368.5 301.3,368.5 297.2,368.5 293.2,368.5 289.1,368.5 285.1,368.5 281.0,368.5 277.0,368.5 272.9,368.5 268.9,368.5 264.9,368.5 260.8,368.5 256.8,368.5 252.7,368.5 248.7,368.5 244.6,368.5 240.6,368.5 236.6,368.5 232.5,368.5 228.5,368.5 224.4,368.5 220.4,368.5 216.3,368.5 212.1,368.5 207.8,368.8 203.6,369.3 199.4,370.1 195.2,371.0 191.1,372.2 187.0,373.6 183.0,375.2 179.1,377.0 175.3,379.0 171.7,381.2 168.1,383.6 164.7,386.1 161.4,388.9 158.3,391.8 155.3,394.9 152.5,398.1 149.8,401.5 147.4,405.0 145.1,408.6 143.0,412.4 141.2,416.3 139.5,420.2 138.0,424.2 136.8,428.3 135.7,432.5 134.9,436.7 134.3,440.9 134.0,445.2 133.8,449.5 133.9,453.8 134.2,458.1 134.8,462.3 135.5,466.5 136.5,470.7 137.7,474.8 139.1,478.9 140.7,482.8 142.6,486.7 144.6,490.5 146.8,494.1 149.2,497.7 151.8,501.1 154.6,504.4 157.5,507.5 160.6,510.4 163.9,513.2 167.3,515.8 170.8,518.3 174.5,520.5 178.2,522.6 182.1,524.4 186.1,526.1 190.1,527.5 194.2,528.7 198.4,529.7 202.6,530.5 206.8,531.1 211.1,531.4 215.3,531.5 " fill="none" stroke="#555555" stroke-width="1.00"/>
  <line x1="215.4" y1="526.9" x2="219.4" y2="526.9" stroke="#0011ff" stroke-width="2.50" stroke-linecap="round"/>
  <line x1="219.4" y1="526.9" x2="223.5" y2="526.9" stroke="#0023ff" stroke-width="2.50" stroke-linecap="round"/>
  <line x1="223.5" y1="526.9" x2="227.5" y2="526.9" stroke="#0033ff" stroke-width="2.50" stroke-linecap="round"/>
  <line x1="227.5" y1="526.9" x2="231.6" y2="526.9" stroke="#0044ff" stroke-width="2.50" stroke-linecap="round"/>
  <line x1="231.6" y1="526.9" x2="235.6" y2="526.9" stroke="#0054ff" stroke-width="2.50" stroke-linecap="round"/>
  <line x1="235.6" y1="526.9" x2="239.6" y2="526.9" stroke="#0063ff" stroke-width="2.50" stroke-linecap="round"/>
  <line x1="239.6" y1="526.9" x2="243.7" y2="526.9" stroke="#0073ff" stroke-width="2.50" stroke-linecap="round"/>
  <line x1="243.7" y1="526.9" x2="247.7" y2="526.9" stroke="#0082ff" stroke-width="2.50" stroke-linecap="round"/>
  <line x1="247.7" y1="526.9" x2="251.8" y2="526.9" stroke="#0090ff" stroke-width="2.50" stroke-linecap="round"/>
  <line x1="251.8" y1="526.9" x2="255.8" y2="526.9" stroke="#009fff" stroke-width="2.50" stroke-linecap="round"/>
  <line x1="255.8" y1="526.9" x2="259.9" y2="526.9" stroke="#00adff" stroke-width="2.50" stroke-linecap="round"/>
  <line x1="259.9" y1="526.9" x2="263.9" y2="526.9" stroke="#00bbff" stroke-width="2.50" stroke-linecap="round"/>
  <line x1="263.9" y1="526.9" x2="267.9" y2="526.9" stroke="#00c9ff" stroke-width="2.50" stroke-linecap="round"/>
  <line x1="267.9" y1="526.9" x2="272.0" y2="526.9" stroke="#00d6ff" stroke-width="2.50" stroke-linecap="round"/>
  <line x1="272.0" y1="526.9" x2="276.0" y2="526.9" stroke="#00e3ff" stroke-width="2.50" stroke-linecap="round"/>
  <line x1="276.0" y1="526.9" x2="280.1" y2="526.9" stroke="#00f0ff" stroke-width="2.50" stroke-linecap="round"/>
  <line x1="280.1" y1="526.9" x2="284.1" y2="526.9" stroke="#00fdff" stroke-width="2.50" stroke-linecap="round"/>
  <line x1="284.1" y1="526.9" x2="288.2" y2="526.9" stroke="#00fff5" stroke-width="2.50" stroke-linecap="round"/>
  <line x1="288.2" y1="526.9" x2="292.2" y2="526.9" stroke="#00ffe9" stroke-width="2.50" stroke-linecap="round"/>
  <line x1="292.2" y1="526.9" x2="296.3" y2="526.9" stroke="#00ffdd" stroke-width="2.50" stroke-linecap="round"/>
  <line x1="296.3" y1="526.9" x2="300.3" y2="526.9" stroke="#00ffd1" stroke-width="2.50" stroke-linecap="round"/>
  <line x1="300.3" y1="526.9" x2="304.3" y2="526.9" stroke="#00ffc5" stroke-width="2.50" stroke-linecap="round"/>
  <line x1="304.3" y1="526.9" x2="308.4" y2="526.9" stroke="#00ffba" stroke-width="2.50" stroke-linecap="round"/>
  <line x1="308.4" y1="526.9" x2="312.4" y2="526.9" stroke="#00ffaf" stroke-width="2.50" stroke-linecap="round"/>
  <line x1="312.4" y1="526.9" x2="316.5" y2="526.9" stroke="#00ffa4" stroke-width="2.50" stroke-linecap="round"/>
  <line x1="316.5" y1="526.9" x2="320.5" y2="526.9" stroke="#00ff99" stroke-width="2.50" stroke-linecap="round"/>
  <line x1="320.5" y1="526.9" x2="324.6" y2="526.9" stroke="#00ff8e" stroke-width="2.50" stroke-linecap="round"/>
  <line x1="324.6" y1="526.9" x2="328.6" y2="526.9" stroke="#00ff84" stroke-width="2.50" stroke-linecap="round"/>
  <line x1="328.6" y1="526.9" x2="332.6" y2="526.9" stroke="#00ff7a" stroke-width="2.50" stroke-linecap="round"/>
  <line x1="332.6" y1="526.9" x2="336.7" y2="526.9" stroke="#00ff6f" stroke-width="2.50" stroke-linecap="round"/>
  <line x1="336.7" y1="526.9" x2="340.7" y2="526.9" stroke="#00ff66" stroke-width="2.50" stroke-linecap="round"/>
  <line x1="340.7" y1="526.9" x2="344.8" y2="526.9" stroke="#00ff5c" stroke-width="2.50" stroke-linecap="round"/>
  <line x1="344.8" y1="526.9" x2="348.8" y2="526.9" stroke="#00ff52" stroke-width="2.50" stroke-linecap="round"/>
  <line x1="348.8" y1="526.9" x2="352.9" y2="526.9" stroke="#00ff49" stroke-width="2.50" stroke-linecap="round"/>
  <line x1="352.9" y1="526.9" x2="356.9" y2="526.9" stroke="#00ff3f" stroke-width="2.50" stroke-linecap="round"/>
  <line x1="356.9" y1="526.9" x2="361.0" y2="526.9" stroke="#00ff36" stroke-width="2.50" stroke-linecap="round"/>
  <line x1="361.0" y1="526.9" x2="365.0" y2="526.9" stroke="#00ff2d" stroke-width="2.50" stroke-linecap="round"/>
  <line x1="365.0" y1="526.9" x2="369.0" y2="526.9" stroke="#00ff24" stroke-width="2.50" stroke-linecap="round"/>
  <line x1="369.0" y1="526.9" x2="373.1" y2="526.9" stroke="#00ff1b" stroke-width="2.50" stroke-linecap="round"/>
  <line x1="373.1" y1="526.9" x2="377.1" y2="526.9" stroke="#00ff13" stroke-width="2.50" stroke-linecap="round"/>
  <line x1="377.1" y1="526.9" x2="381.2" y2="526.9" stroke="#00ff0a" stroke-width="2.50" stroke-linecap="round"/>
  <line x1="381.2" y1="526.9" x2="385.2" y2="526.9" stroke="#00ff02" stroke-width="2.50" stroke-linecap="round"/>
  <line x1="385.2" y1="526.9" x2="389.3" y2="526.9" stroke="#07ff00" stroke-width="2.50" stroke-linecap="round"/>
  <line x1="389.3" y1="526.9" x2="393.3" y2="526.9" stroke="#0fff00" stroke-width="2.50" stroke-linecap="round"/>
  <line x1="393.3" y1="526.9" x2="397.3" y2="526.9" stroke="#17ff00" stroke-width="2.50" stroke-linecap="round"/>
  <line x1="397.3" y1="526.9" x2="401.4" y2="526.9" stroke="#1fff00" stroke-width="2.50" stroke-linecap="round"/>
  <line x1="401.4" y1="526.9" x2="405.4" y2="526.9" stroke="#26ff00" stroke-width="2.50" stroke-linecap="round"/>
  <line x1="405.4" y1="526.9" x2="409.5" y2="526.9" stroke="#2eff00" stroke-width="2.50" stroke-linecap="round"/>
  <line x1="409.5" y1="526.9" x2="413.5" y2="526.9" stroke="#36ff00" stroke-width="2.50" stroke-linecap="round"/>
  <line x1="413.5" y1="526.9" x2="417.6" y2="526.9" stroke="#3dff00" stroke-width="2.50" stroke-linecap="round"/>
  <line x1="417.6" y1="526.9" x2="421.6" y2="526.9" stroke="#44ff00" stroke-width="2.50" stroke-linecap="round"/>
  <line x1="421.6" y1="526.9" x2="425.6" y2="526.9" stroke="#4cff00" stroke-width="2.50" stroke-linecap="round"/>
  <line x1="425.6" y1="526.9" x2="429.7" y2="526.9" stroke="#53ff00" stroke-width="2.50" stroke-linecap="round"/>
  <line x1="429.7" y1="526.9" x2="433.7" y2="526.9" stroke="#5aff00" stroke-width="2.50" stroke-linecap="round"/>
  <line x1="433.7" y1="526.9" x2="437.8" y2="526.9" stroke="#61ff00" stroke-width="2.50" stroke-linecap="round"/>
  <line x1="437.8" y1="526.9" x2="441.8" y2="526.9" stroke="#68ff00" stroke-width="2.50" stroke-linecap="round"/>
  <line x1="441.8" y1="526.9" x2="445.9" y2="526.9" stroke="#6eff00" stroke-width="2.50" stroke-linecap="round"/>
  <line x1="445.9" y1="526.9" x2="449.9" y2="526.9" stroke="#75ff00" stroke-width="2.50" stroke-linecap="round"/>
  <line x1="449.9" y1="526.9" x2="454.0" y2="526.9" stroke="#7bff00" stroke-width="2.50" stroke-linecap="round"/>
  <line x1="454.0" y1="526.9" x2="458.0" y2="526.9" stroke="#82ff00" stroke-width="2.50" stroke-linecap="round"/>
  <line x1="458.0" y1="526.9" x2="462.0" y2="526.9" stroke="#88ff00" stroke-width="2.50" stroke-linecap="round"/>
  <line x1="462.0" y1="526.9" x2="466.1" y2="526.9" stroke="#8fff00" stroke-width="2.50" stroke-linecap="round"/>
  <line x1="466.1" y1="526.9" x2="470.1" y2="526.9" stroke="#95ff00" stroke-width="2.50" stroke-linecap="round"/>
  <line x1="470.1" y1="526.9" x2="474.2" y2="526.9" stroke="#9bff00" stroke-width="2.50" stroke-linecap="round"/>
  <line x1="474.2" y1="526.9" x2="478.2" y2="526.9" stroke="#a1ff00" stroke-width="2.50" stroke-linecap="round"/>
  <line x1="478.2" y1="526.9" x2="482.3" y2="526.9" stroke="#a7ff00" stroke-width="2.50" stroke-linecap="round"/>
  <line x1="482.3" y1="526.9" x2="486.3" y2="526.9" stroke="#adff00" stroke-width="2.50" stroke-linecap="round"/>
  <line x1="486.3" y1="526.9" x2="490.3" y2="526.9" stroke="#b3ff00" stroke-width="2.50" stroke-linecap="round"/>
  <line x1="490.3" y1="526.9" x2="494.4" y2="526.9" stroke="#b8ff00" stroke-width="2.50" stroke-linecap="round"/>
  <line x1="494.4" y1="526.9" x2="498.4" y2="526.9" stroke="#beff00" stroke-width="2.50" stroke-linecap="round"/>
  <line x1="498.4" y1="526.9" x2="502.5" y2="526.9" stroke="#c3ff00" stroke-width="2.50" stroke-linecap="round"/>
  <line x1="502.5" y1="526.9" x2="506.5" y2="526.9" stroke="#c9ff00" stroke-width="2.50" stroke-linecap="round"/>
  <line x1="506.5" y1="526.9" x2="510.6" y2="526.9" stroke="#ceff00" stroke-width="2.50" stroke-linecap="round"/>
  <line x1="510.6" y1="526.9" x2="514.6" y2="526.9" stroke="#d4ff00" stroke-width="2.50" stroke-linecap="round"/>
  <line x1="514.6" y1="526.9" x2="518.7" y2="526.9" stroke="#d9ff00" stroke-width="2.50" stroke-linecap="round"/>
  <line x1="518.7" y1="526.9" x2="522.7" y2="526.9" stroke="#deff00" stroke-width="2.50" stroke-linecap="round"/>
  <line x1="522.7" y1="526.9" x2="526.7" y2="526.9" stroke="#e3ff00" stroke-width="2.50" stroke-linecap="round"/>
  <line x1="526.7" y1="526.9" x2="530.8" y2="526.9" stroke="#e8ff00" stroke-width="2.50" stroke-linecap="round"/>
  <line x1="530.8" y1="526.9" x2="534.8" y2="526.9" stroke="#edff00" stroke-width="2.50" stroke-linecap="round"/>
  <line x1="534.8" y1="526.9" x2="538.9" y2="526.9" stroke="#f2ff00" stroke-width="2.50" stroke-linecap="round"/>
  <line x1="538.9" y1="526.9" x2="542.9" y2="526.9" stroke="#f7ff00" stroke-width="2.50" stroke-linecap="round"/>
  <line x1="542.9" y1="526.9" x2="547.0" y2="526.9" stroke="#fcff00" stroke-width="2.50" stroke-linecap="round"/>
  <line x1="547.0" y1="526.9" x2="551.0" y2="526.9" stroke="#fffd00" stroke-width="2.50" stroke-linecap="round"/>
  <line x1="551.0" y1="526.9" x2="555.0" y2="526.9" stroke="#fff900" stroke-width="2.50" stroke-linecap="round"/>
  <line x1="555.0" y1="526.9" x2="559.1" y2="526.9" stroke="#fff400" stroke-width="2.50" stroke-linecap="round"/>
  <line x1="559.1" y1="526.9" x2="563.1" y2="526.9" stroke="#fff000" stroke-width="2.50" stroke-linecap="round"/>
  <line x1="563.1" y1="526.9" x2="567.2" y2="526.9" stroke="#ffeb00" stroke-width="2.50" stroke-linecap="round"/>
  <line x1="567.2" y1="526.9" x2="571.2" y2="526.9" stroke="#ffe700" stroke-width="2.50" stroke-linecap="round"/>
  <line x1="571.2" y1="526.9" x2="575.3" y2="526.9" stroke="#ffe200" stroke-width="2.50" stroke-linecap="round"/>
  <line x1="575.3" y1="526.9" x2="579.3" y2="526.9" stroke="#ffde00" stroke-width="2.50" stroke-linecap="round"/>
  <line x1="579.3" y1="526.9" x2="583.3" y2="526.9" stroke="#ffda00" stroke-width="2.50" stroke-linecap="round"/>
  <line x1="583.3" y1="526.9" x2="587.4" y2="526.9" stroke="#ffd500" stroke-width="2.50" stroke-linecap="round"/>
  <line x1="587.4" y1="526.9" x2="591.4" y2="526.9" stroke="#ffd100" stroke-width="2.50" stroke-linecap="round"/>
  <line x1="591.4" y1="526.9" x2="595.5" y2="526.9" stroke="#ffcd00" stroke-width="2.50" stroke-linecap="round"/>
  <line x1="595.5" y1="526.9" x2="599.5" y2="526.9" stroke="#ffc900" stroke-width="2.50" stroke-linecap="round"/>
  <line x1="599.5" y1="526.9" x2="603.6" y2="526.9" stroke="#ffc500" stroke-width="2.50" stroke-linecap="round"/>
  <line x1="603.6" y1="526.9" x2="607.6" y2="526.9" stroke="#ffc100" stroke-width="2.50" stroke-linecap="round"/>
  <line x1="607.6" y1="526.9" x2="611.7" y2="526.9" stroke="#ffbd00" stroke-width="2.50" stroke-linecap="round"/>
  <line x1="611.7" y1="526.9" x2="615.7" y2="526.9" stroke="#ffb900" stroke-width="2.50" stroke-linecap="round"/>
  <line x1="615.7" y1="526.9" x2="619.7" y2="526.9" stroke="#ffb600" stroke-width="2.50" stroke-linecap="round"/>
  <line x1="619.7" y1="526.9" x2="623.8" y2="526.9" stroke="#ffb200" stroke-width="2.50" stroke-linecap="round"/>
  <line x1="623.8" y1="526.9" x2="627.8" y2="526.9" stroke="#ffae00" stroke-width="2.50" stroke-linecap="round"/>
  <line x1="627.8" y1="526.9" x2="631.9" y2="526.9" stroke="#ffaa00" stroke-width="2.50" stroke-linecap="round"/>
  <line x1="631.9" y1="526.9" x2="635.9" y2="526.9" stroke="#ffa700" stroke-width="2.50" stroke-linecap="round"/>
  <line x1="635.9" y1="526.9" x2="640.0" y2="526.9" stroke="#ffa300" stroke-width="2.50" stroke-linecap="round"/>
  <line x1="640.0" y1="526.9" x2="644.0" y2="526.9" stroke="#ffa000" stroke-width="2.50" stroke-linecap="round"/>
  <line x1="644.0" y1="526.9" x2="648.0" y2="526.9" stroke="#ff9c00" stroke-width="2.50" stroke-linecap="round"/>
  <line x1="648.0" y1="526.9" x2="652.1" y2="526.9" stroke="#ff9900" stroke-width="2.50" stroke-linecap="round"/>
  <line x1="652.1" y1="526.9" x2="656.1" y2="526.9" stroke="#ff9500" stroke-width="2.50" stroke-linecap="round"/>
  <line x1="656.1" y1="526.9" x2="660.2" y2="526.9" stroke="#ff9200" stroke-width="2.50" stroke-linecap="round"/>
  <line x1="660.2" y1="526.9" x2="664.2" y2="526.9" stroke="#ff8f00" stroke-width="2.50" stroke-linecap="round"/>
  <line x1="664.2" y1="526.9" x2="668.3" y2="526.9" stroke="#ff8b00" stroke-width="2.50" stroke-linecap="round"/>
  <line x1="668.3" y1="526.9" x2="672.3" y2="526.9" stroke="#ff8800" stroke-width="2.50" stroke-linecap="round"/>
  <line x1="672.3" y1="526.9" x2="676.4" y2="526.9" stroke="#ff8500" stroke-width="2.50" stroke-linecap="round"/>
  <line x1="676.4" y1="526.9" x2="680.4" y2="526.9" stroke="#ff8200" stroke-width="2.50" stroke-linecap="round"/>
  <line x1="680.4" y1="526.9" x2="684.4" y2="526.9" stroke="#ff7f00" stroke-width="2.50" stroke-linecap="round"/>
  <line x1="684.4" y1="526.9" x2="688.5" y2="526.9" stroke="#ff7c00" stroke-width="2.50" stroke-linecap="round"/>
  <line x1="688.5" y1="526.9" x2="692.5" y2="526.9" stroke="#ff7800" stroke-width="2.50" stroke-linecap="round"/>
  <line x1="692.5" y1="526.9" x2="696.6" y2="526.9" stroke="#ff7500" stroke-width="2.50" stroke-linecap="round"/>
  <line x1="696.6" y1="526.9" x2="700.6" y2="526.9" stroke="#ff7300" stroke-width="2.50" stroke-linecap="round"/>
  <line x1="700.6" y1="526.9" x2="704.7" y2="526.9" stroke="#ff7000" stroke-width="2.50" stroke-linecap="round"/>
  <line x1="704.7" y1="526.9" x2="708.7" y2="526.9" stroke="#ff6d00" stroke-width="2.50" stroke-linecap="round"/>
  <line x1="708.7" y1="526.9" x2="712.7" y2="526.9" stroke="#ff6a00" stroke-width="2.50" stroke-linecap="round"/>
  <line x1="712.7" y1="526.9" x2="716.8" y2="526.9" stroke="#ff6700" stroke-width="2.50" stroke-linecap="round"/>
  <line x1="716.8" y1="526.9" x2="720.8" y2="526.9" stroke="#ff6400" stroke-width="2.50" stroke-linecap="round"/>
  <line x1="720.8" y1="526.9" x2="724.9" y2="526.9" stroke="#ff6100" stroke-width="2.50" stroke-linecap="round"/>
  <line x1="724.9" y1="526.9" x2="728.9" y2="526.9" stroke="#ff5f00" stroke-width="2.50" stroke-linecap="round"/>
  <line x1="728.9" y1="526.9" x2="733.0" y2="526.9" stroke="#ff5c00" stroke-width="2.50" stroke-linecap="round"/>
  <line x1="733.0" y1="526.9" x2="737.0" y2="526.9" stroke="#ff5900" stroke-width="2.50" stroke-linecap="round"/>
  <line x1="737.0" y1="526.9" x2="741.0" y2="526.9" stroke="#ff5700" stroke-width="2.50" stroke-linecap="round"/>
  <line x1="741.0" y1="526.9" x2="745.1" y2="526.9" stroke="#ff5400" stroke-width="2.50" stroke-linecap="round"/>
  <line x1="745.1" y1="526.9" x2="749.1" y2="526.9" stroke="#ff5100" stroke-width="2.50" stroke-linecap="round"/>
  <line x1="749.1" y1="526.9" x2="753.2" y2="526.9" stroke="#ff4f00" stroke-width="2.50" stroke-linecap="round"/>
  <line x1="753.2" y1="526.9" x2="757.2" y2="526.9" stroke="#ff4c00" stroke-width="2.50" stroke-linecap="round"/>
  <line x1="757.2" y1="526.9" x2="761.3" y2="526.9" stroke="#ff4a00" stroke-width="2.50" stroke-linecap="round"/>
  <line x1="761.3" y1="526.9" x2="765.3" y2="526.9" stroke="#ff4700" stroke-width="2.50" stroke-linecap="round"/>
  <line x1="765.3" y1="526.9" x2="769.4" y2="526.9" stroke="#ff4500" stroke-width="2.50" stroke-linecap="round"/>
  <line x1="769.4" y1="526.9" x2="773.4" y2="526.9" stroke="#ff4300" stroke-width="2.50" stroke-linecap="round"/>
  <line x1="773.4" y1="526.9" x2="777.4" y2="526.9" stroke="#ff4000" stroke-width="2.50" stroke-linecap="round"/>
  <line x1="777.4" y1="526.9" x2="781.5" y2="526.9" stroke="#ff3e00" stroke-width="2.50" stroke-linecap="round"/>
  <line x1="781.5" y1="526.9" x2="785.5" y2="526.9" stroke="#ff3c00" stroke-width="2.50" stroke-linecap="round"/>
  <line x1="785.5" y1="526.9" x2="789.6" y2="526.9" stroke="#ff3900" stroke-width="2.50" stroke-linecap="round"/>
  <line x1="789.6" y1="526.9" x2="793.6" y2="526.9" stroke="#ff3700" stroke-width="2.50" stroke-linecap="round"/>
  <line x1="793.6" y1="526.9" x2="797.7" y2="526.9" stroke="#ff3500" stroke-width="2.50" stroke-linecap="round"/>
  <line x1="797.7" y1="526.9" x2="801.7" y2="526.9" stroke="#ff3300" stroke-width="2.50" stroke-linecap="round"/>
  <line x1="801.7" y1="526.9" x2="805.7" y2="526.9" stroke="#ff3100" stroke-width="2.50" stroke-linecap="round"/>
  <line x1="805.7" y1="526.9" x2="809.8" y2="526.9" stroke="#ff2e00" stroke-width="2.50" stroke-linecap="round"/>
  <line x1="809.8" y1="526.9" x2="813.8" y2="526.9" stroke="#ff2c00" stroke-width="2.50" stroke-linecap="round"/>
  <line x1="813.8" y1="526.9" x2="817.9" y2="526.9" stroke="#ff2a00" stroke-width="2.50" stroke-linecap="round"/>
  <line x1="817.9" y1="526.9" x2="821.9" y2="526.9" stroke="#ff2800" stroke-width="2.50" stroke-linecap="round"/>
  <line x1="821.9" y1="526.9" x2="826.0" y2="526.9" stroke="#ff2600" stroke-width="2.50" stroke-linecap="round"/>
  <line x1="826.0" y1="526.9" x2="830.0" y2="526.9" stroke="#ff2400" stroke-width="2.50" stroke-linecap="round"/>
  <line x1="830.0" y1="526.9" x2="834.1" y2="526.9" stroke="#ff2200" stroke-width="2.50" stroke-linecap="round"/>
  <line x1="834.1" y1="526.9" x2="838.1" y2="526.9" stroke="#ff2000" stroke-width="2.50" stroke-linecap="round"/>
  <line x1="838.1" y1="526.9" x2="842.1" y2="526.9" stroke="#ff1e00" stroke-width="2.50" stroke-linecap="round"/>
  <line x1="842.1" y1="526.9" x2="846.2" y2="526.9" stroke="#ff1c00" stroke-width="2.50" stroke-linecap="round"/>
  <line x1="846.2" y1="526.9" x2="850.2" y2="526.9" stroke="#ff1a00" stroke-width="2.50" stroke-linecap="round"/>
  <line x1="850.2" y1="526.9" x2="854.3" y2="526.9" stroke="#ff1800" stroke-width="2.50" stroke-linecap="round"/>
  <line x1="854.3" y1="526.9" x2="858.3" y2="526.9" stroke="#ff1600" stroke-width="2.50" stroke-linecap="round"/>
  <line x1="858.3" y1="526.9" x2="862.4" y2="526.9" stroke="#ff1500" stroke-width="2.50" stroke-linecap="round"/>
  <line x1="862.4" y1="526.9" x2="866.4" y2="526.9" stroke="#ff1300" stroke-width="2.50" stroke-linecap="round"/>
  <line x1="866.4" y1="526.9" x2="870.4" y2="526.9" stroke="#ff1100" stroke-width="2.50" stroke-linecap="round"/>
  <line x1="870.4" y1="526.9" x2="874.5" y2="526.9" stroke="#ff0f00" stroke-width="2.50" stroke-linecap="round"/>
  <line x1="874.5" y1="526.9" x2="878.5" y2="526.9" stroke="#ff0d00" stroke-width="2.50" stroke-linecap="round"/>
  <line x1="878.5" y1="526.9" x2="882.6" y2="526.9" stroke="#ff0c00" stroke-width="2.50" stroke-linecap="round"/>
  <line x1="882.6" y1="526.9" x2="886.6" y2="526.9" stroke="#ff0a00" stroke-width="2.50" stroke-linecap="round"/>
  <line x1="886.6" y1="526.9" x2="890.7" y2="526.9" stroke="#ff0800" stroke-width="2.50" stroke-linecap="round"/>
  <line x1="890.7" y1="526.9" x2="894.7" y2="526.9" stroke="#ff0700" stroke-width="2.50" stroke-linecap="round"/>
  <line x1="894.7" y1="526.9" x2="898.7" y2="526.9" stroke="#ff0500" stroke-width="2.50" stroke-linecap="round"/>
  <line x1="898.7" y1="526.9" x2="902.8" y2="526.9" stroke="#ff0300" stroke-width="2.50" stroke-linecap="round"/>
  <line x1="902.8" y1="526.9" x2="906.8" y2="526.9" stroke="#ff0200" stroke-width="2.50" stroke-linecap="round"/>
  <line x1="906.8" y1="526.9" x2="910.9" y2="526.9" stroke="#ff0000" stroke-width="2.50" stroke-linecap="round"/>
  <line x1="910.9" y1="526.9" x2="914.9" y2="526.9" stroke="#ff2500" stroke-width="2.50" stroke-linecap="round"/>
  <line x1="914.9" y1="526.9" x2="919.0" y2="526.9" stroke="#ff5200" stroke-width="2.50" stroke-linecap="round"/>
  <line x1="919.0" y1="526.9" x2="923.0" y2="526.9" stroke="#ff7f00" stroke-width="2.50" stroke-linecap="round"/>
  <line x1="923.0" y1="526.9" x2="927.1" y2="526.9" stroke="#ffad00" stroke-width="2.50" stroke-linecap="round"/>
  <line x1="927.1" y1="526.9" x2="931.1" y2="526.9" stroke="#ffdb00" stroke-width="2.50" stroke-linecap="round"/>
  <line x1="931.1" y1="526.9" x2="935.1" y2="526.9" stroke="#f5ff00" stroke-width="2.50" stroke-linecap="round"/>
  <line x1="935.1" y1="526.9" x2="939.2" y2="526.9" stroke="#c6ff00" stroke-width="2.50" stroke-linecap="round"/>
  <line x1="939.2" y1="526.9" x2="943.2" y2="526.9" stroke="#97ff00" stroke-width="2.50" stroke-linecap="round"/>
  <line x1="943.2" y1="526.9" x2="947.3" y2="526.9" stroke="#67ff00" stroke-width="2.50" stroke-linecap="round"/>
  <line x1="947.3" y1="526.9" x2="951.3" y2="526.9" stroke="#36ff00" stroke-width="2.50" stroke-linecap="round"/>
  <line x1="951.3" y1="526.9" x2="955.4" y2="526.9" stroke="#05ff00" stroke-width="2.50" stroke-linecap="round"/>
  <line x1="955.4" y1="526.9" x2="959.4" y2="526.9" stroke="#00ff2d" stroke-width="2.50" stroke-linecap="round"/>
  <line x1="959.4" y1="526.9" x2="963.4" y2="526.9" stroke="#00ff5f" stroke-width="2.50" stroke-linecap="round"/>
  <line x1="963.4" y1="526.9" x2="967.5" y2="526.9" stroke="#00ff93" stroke-width="2.50" stroke-linecap="round"/>
  <line x1="967.5" y1="526.9" x2="971.5" y2="526.9" stroke="#00ffc7" stroke-width="2.50" stroke-linecap="round"/>
  <line x1="971.5" y1="526.9" x2="975.6" y2="526.9" stroke="#00fffc" stroke-width="2.50" stroke-linecap="round"/>
  <line x1="975.6" y1="526.9" x2="979.6" y2="526.9" stroke="#00ccff" stroke-width="2.50" stroke-linecap="round"/>
  <line x1="979.6" y1="526.9" x2="983.7" y2="526.9" stroke="#0094ff" stroke-width="2.50" stroke-linecap="round"/>
  <line x1="983.7" y1="526.9" x2="987.7" y2="526.9" stroke="#005cff" stroke-width="2.50" stroke-linecap="round"/>
  <line x1="987.7" y1="526.9" x2="991.7" y2="526.6" stroke="#0026ff" stroke-width="2.50" stroke-linecap="round"/>
  <line x1="991.7" y1="526.6" x2="995.8" y2="526.1" stroke="#0017ff" stroke-width="2.50" stroke-linecap="round"/>
  <line x1="995.8" y1="526.1" x2="999.7" y2="525.4" stroke="#000eff" stroke-width="2.50" stroke-linecap="round"/>
  <line x1="999.7" y1="525.4" x2="1003.7" y2="524.5" stroke="#0006ff" stroke-width="2.50" stroke-linecap="round"/>
  <line x1="1003.7" y1="524.5" x2="1007.6" y2="523.4" stroke="#0004ff" stroke-width="2.50" stroke-linecap="round"/>
  <line x1="1007.6" y1="523.4" x2="1011.4" y2="522.1" stroke="#0003ff" stroke-width="2.50" stroke-linecap="round"/>
  <line x1="1011.4" y1="522.1" x2="1015.1" y2="520.6" stroke="#0002ff" stroke-width="2.50" stroke-linecap="round"/>
  <line x1="1015.1" y1="520.6" x2="1018.8" y2="518.9" stroke="#0001ff" stroke-width="2.50" stroke-linecap="round"/>
  <line x1="1018.8" y1="518.9" x2="1022.4" y2="517.0" stroke="#0001ff" stroke-width="2.50" stroke-linecap="round"/>
  <line x1="1022.4" y1="517.0" x2="1025.9" y2="514.9" stroke="#0001ff" stroke-width="2.50" stroke-linecap="round"/>
  <line x1="1025.9" y1="514.9" x2="1029.2" y2="512.7" stroke="#0000ff" stroke-width="2.50" stroke-linecap="round"/>
  <line x1="1029.2" y1="512.7" x2="1032.4" y2="510.2" stroke="#0000ff" stroke-width="2.50" stroke-linecap="round"/>
  <line x1="1032.4" y1="510.2" x2="1035.5" y2="507.7" stroke="#0000ff" stroke-width="2.50" stroke-linecap="round"/>
  <line x1="1035.5" y1="507.7" x2="1038.5" y2="504.9" stroke="#0000ff" stroke-width="2.50" stroke-linecap="round"/>
  <line x1="1038.5" y1="504.9" x2="1041.3" y2="502.0" stroke="#0000ff" stroke-width="2.50" stroke-linecap="round"/>
  <line x1="1041.3" y1="502.0" x2="1044.0" y2="498.9" stroke="#0000ff" stroke-width="2.50" stroke-linecap="round"/>
  <line x1="1044.0" y1="498.9" x2="1046.5" y2="495.8" stroke="#0000ff" stroke-width="2.50" stroke-linecap="round"/>
  <line x1="1046.5" y1="495.8" x2="1048.8" y2="492.4" stroke="#0000ff" stroke-width="2.50" stroke-linecap="round"/>
  <line x1="1048.8" y1="492.4" x2="1050.9" y2="489.0" stroke="#0000ff" stroke-width="2.50" stroke-linecap="round"/>
  <line x1="1050.9" y1="489.0" x2="1052.9" y2="485.5" stroke="#0000ff" stroke-width="2.50" stroke-linecap="round"/>
  <line x1="1052.9" y1="485.5" x2="1054.6" y2="481.8" stroke="#0000ff" stroke-width="2.50" stroke-linecap="round"/>
  <line x1="1054.6" y1="481.8" x2="1056.2" y2="478.1" stroke="#0000ff" stroke-width="2.50" stroke-linecap="round"/>
  <line x1="1056.2" y1="478.1" x2="1057.6" y2="474.3" stroke="#0000ff" stroke-width="2.50" stroke-linecap="round"/>
  <line x1="1057.6" y1="474.3" x2="1058.8" y2="470.4" stroke="#0000ff" stroke-width="2.50" stroke-linecap="round"/>
  <line x1="1058.8" y1="470.4" x2="1059.7" y2="466.5" stroke="#0000ff" stroke-width="2.50" stroke-linecap="round"/>
  <line x1="1059.7" y1="466.5" x2="1060.5" y2="462.6" stroke="#0000ff" stroke-width="2.50" stroke-linecap="round"/>
  <line x1="1060.5" y1="462.6" x2="1061.1" y2="458.5" stroke="#0000ff" stroke-width="2.50" stroke-linecap="round"/>
  <line x1="1061.1" y1="458.5" x2="1061.4" y2="454.5" stroke="#0000ff" stroke-width="2.50" stroke-linecap="round"/>
  <line x1="1061.4" y1="454.5" x2="1061.5" y2="450.5" stroke="#0000ff" stroke-width="2.50" stroke-linecap="round"/>
  <line x1="1061.5" y1="450.5" x2="1061.5" y2="446.4" stroke="#0000ff" stroke-width="2.50" stroke-linecap="round"/>
  <line x1="1061.5" y1="446.4" x2="1061.2" y2="442.4" stroke="#0000ff" stroke-width="2.50" stroke-linecap="round"/>
  <line x1="1061.2" y1="442.4" x2="1060.7" y2="438.4" stroke="#0000ff" stroke-width="2.50" stroke-linecap="round"/>
  <line x1="1060.7" y1="438.4" x2="1059.9" y2="434.4" stroke="#0000ff" stroke-width="2.50" stroke-linecap="round"/>
  <line x1="1059.9" y1="434.4" x2="1059.0" y2="430.5" stroke="#0000ff" stroke-width="2.50" stroke-linecap="round"/>
  <line x1="1059.0" y1="430.5" x2="1057.9" y2="426.6" stroke="#0000ff" stroke-width="2.50" stroke-linecap="round"/>
  <line x1="1057.9" y1="426.6" x2="1056.6" y2="422.8" stroke="#0000ff" stroke-width="2.50" stroke-linecap="round"/>
  <line x1="1056.6" y1="422.8" x2="1055.0" y2="419.0" stroke="#0000ff" stroke-width="2.50" stroke-linecap="round"/>
  <line x1="1055.0" y1="419.0" x2="1053.3" y2="415.4" stroke="#0000ff" stroke-width="2.50" stroke-linecap="round"/>
  <line x1="1053.3" y1="415.4" x2="1051.4" y2="411.8" stroke="#0000ff" stroke-width="2.50" stroke-linecap="round"/>
  <line x1="1051.4" y1="411.8" x2="1049.3" y2="408.4" stroke="#0000ff" stroke-width="2.50" stroke-linecap="round"/>
  <line x1="1049.3" y1="408.4" x2="1047.0" y2="405.0" stroke="#0000ff" stroke-width="2.50" stroke-linecap="round"/>
  <line x1="1047.0" y1="405.0" x2="1044.6" y2="401.8" stroke="#0000ff" stroke-width="2.50" stroke-linecap="round"/>
  <line x1="1044.6" y1="401.8" x2="1042.0" y2="398.7" stroke="#0000ff" stroke-width="2.50" stroke-linecap="round"/>
  <line x1="1042.0" y1="398.7" x2="1039.2" y2="395.8" stroke="#0000ff" stroke-width="2.50" stroke-linecap="round"/>
  <line x1="1039.2" y1="395.8" x2="1036.3" y2="393.0" stroke="#0000ff" stroke-width="2.50" stroke-linecap="round"/>
  <line x1="1036.3" y1="393.0" x2="1033.2" y2="390.3" stroke="#0000ff" stroke-width="2.50" stroke-linecap="round"/>
  <line x1="1033.2" y1="390.3" x2="1030.0" y2="387.9" stroke="#0000ff" stroke-width="2.50" stroke-linecap="round"/>
  <line x1="1030.0" y1="387.9" x2="1026.7" y2="385.6" stroke="#0000ff" stroke-width="2.50" stroke-linecap="round"/>
  <line x1="1026.7" y1="385.6" x2="1023.2" y2="383.5" stroke="#0000ff" stroke-width="2.50" stroke-linecap="round"/>
  <line x1="1023.2" y1="383.5" x2="1019.7" y2="381.5" stroke="#0000ff" stroke-width="2.50" stroke-linecap="round"/>
  <line x1="1019.7" y1="381.5" x2="1016.0" y2="379.8" stroke="#0000ff" stroke-width="2.50" stroke-linecap="round"/>
  <line x1="1016.0" y1="379.8" x2="1012.3" y2="378.2" stroke="#0000ff" stroke-width="2.50" stroke-linecap="round"/>
  <line x1="1012.3" y1="378.2" x2="1008.5" y2="376.9" stroke="#0000ff" stroke-width="2.50" stroke-linecap="round"/>
  <line x1="1008.5" y1="376.9" x2="1004.6" y2="375.7" stroke="#0000ff" stroke-width="2.50" stroke-linecap="round"/>
  <line x1="1004.6" y1="375.7" x2="1000.7" y2="374.8" stroke="#0000ff" stroke-width="2.50" stroke-linecap="round"/>
  <line x1="1000.7" y1="374.8" x2="996.7" y2="374.0" stroke="#0000ff" stroke-width="2.50" stroke-linecap="round"/>
  <line x1="996.7" y1="374.0" x2="992.7" y2="373.5" stroke="#0000ff" stroke-width="2.50" stroke-linecap="round"/>
  <line x1="992.7" y1="373.5" x2="988.7" y2="373.2" stroke="#0000ff" stroke-width="2.50" stroke-linecap="round"/>
  <line x1="988.7" y1="373.2" x2="984.6" y2="373.1" stroke="#0000ff" stroke-width="2.50" stroke-linecap="round"/>
  <line x1="984.6" y1="373.1" x2="980.6" y2="373.1" stroke="#0011ff" stroke-width="2.50" stroke-linecap="round"/>
  <line x1="980.6" y1="373.1" x2="976.5" y2="373.1" stroke="#0023ff" stroke-width="2.50" stroke-linecap="round"/>
  <line x1="976.5" y1="373.1" x2="972.5" y2="373.1" stroke="#0033ff" stroke-width="2.50" stroke-linecap="round"/>
  <line x1="972.5" y1="373.1" x2="968.4" y2="373.1" stroke="#0044ff" stroke-width="2.50" stroke-linecap="round"/>
  <line x1="968.4" y1="373.1" x2="964.4" y2="373.1" stroke="#0054ff" stroke-width="2.50" stroke-linecap="round"/>
  <line x1="964.4" y1="373.1" x2="960.4" y2="373.1" stroke="#0063ff" stroke-width="2.50" stroke-linecap="round"/>
  <line x1="960.4" y1="373.1" x2="956.3" y2="373.1" stroke="#0073ff" stroke-width="2.50" stroke-linecap="round"/>
  <line x1="956.3" y1="373.1" x2="952.3" y2="373.1" stroke="#0082ff" stroke-width="2.50" stroke-linecap="round"/>
  <line x1="952.3" y1="373.1" x2="948.2" y2="373.1" stroke="#0090ff" stroke-width="2.50" stroke-linecap="round"/>
  <line x1="948.2" y1="373.1" x2="944.2" y2="373.1" stroke="#009fff" stroke-width="2.50" stroke-linecap="round"/>
  <line x1="944.2" y1="373.1" x2="940.1" y2="373.1" stroke="#00adff" stroke-width="2.50" stroke-linecap="round"/>
  <line x1="940.1" y1="373.1" x2="936.1" y2="373.1" stroke="#00bbff" stroke-width="2.50" stroke-linecap="round"/>
  <line x1="936.1" y1="373.1" x2="932.1" y2="373.1" stroke="#00c9ff" stroke-width="2.50" stroke-linecap="round"/>
  <line x1="932.1" y1="373.1" x2="928.0" y2="373.1" stroke="#00d6ff" stroke-width="2.50" stroke-linecap="round"/>
  <line x1="928.0" y1="373.1" x2="924.0" y2="373.1" stroke="#00e3ff" stroke-width="2.50" stroke-linecap="round"/>
  <line x1="924.0" y1="373.1" x2="919.9" y2="373.1" stroke="#00f0ff" stroke-width="2.50" stroke-linecap="round"/>
  <line x1="919.9" y1="373.1" x2="915.9" y2="373.1" stroke="#00fdff" stroke-width="2.50" stroke-linecap="round"/>
  <line x1="915.9" y1="373.1" x2="911.8" y2="373.1" stroke="#00fff5" stroke-width="2.50" stroke-linecap="round"/>
  <line x1="911.8" y1="373.1" x2="907.8" y2="373.1" stroke="#00ffe9" stroke-width="2.50" stroke-linecap="round"/>
  <line x1="907.8" y1="373.1" x2="903.7" y2="373.1" stroke="#00ffdd" stroke-width="2.50" stroke-linecap="round"/>
  <line x1="903.7" y1="373.1" x2="899.7" y2="373.1" stroke="#00ffd1" stroke-width="2.50" stroke-linecap="round"/>
  <line x1="899.7" y1="373.1" x2="895.7" y2="373.1" stroke="#00ffc5" stroke-width="2.50" stroke-linecap="round"/>
  <line x1="895.7" y1="373.1" x2="891.6" y2="373.1" stroke="#00ffba" stroke-width="2.50" stroke-linecap="round"/>
  <line x1="891.6" y1="373.1" x2="887.6" y2="373.1" stroke="#00ffaf" stroke-width="2.50" stroke-linecap="round"/>
  <line x1="887.6" y1="373.1" x2="883.5" y2="373.1" stroke="#00ffa4" stroke-width="2.50" stroke-linecap="round"/>
  <line x1="883.5" y1="373.1" x2="879.5" y2="373.1" stroke="#00ff99" stroke-width="2.50" stroke-linecap="round"/>
  <line x1="879.5" y1="373.1" x2="875.4" y2="373.1" stroke="#00ff8e" stroke-width="2.50" stroke-linecap="round"/>
  <line x1="875.4" y1="373.1" x2="871.4" y2="373.1" stroke="#00ff84" stroke-width="2.50" stroke-linecap="round"/>
  <line x1="871.4" y1="373.1" x2="867.4" y2="373.1" stroke="#00ff7a" stroke-width="2.50" stroke-linecap="round"/>
  <line x1="867.4" y1="373.1" x2="863.3" y2="373.1" stroke="#00ff6f" stroke-width="2.50" stroke-linecap="round"/>
  <line x1="863.3" y1="373.1" x2="859.3" y2="373.1" stroke="#00ff66" stroke-width="2.50" stroke-linecap="round"/>
  <line x1="859.3" y1="373.1" x2="855.2" y2="373.1" stroke="#00ff5c" stroke-width="2.50" stroke-linecap="round"/>
  <line x1="855.2" y1="373.1" x2="851.2" y2="373.1" stroke="#00ff52" stroke-width="2.50" stroke-linecap="round"/>
  <line x1="851.2" y1="373.1" x2="847.1" y2="373.1" stroke="#00ff49" stroke-width="2.50" stroke-linecap="round"/>
  <line x1="847.1" y1="373.1" x2="843.1" y2="373.1" stroke="#00ff3f" stroke-width="2.50" stroke-linecap="round"/>
  <line x1="843.1" y1="373.1" x2="839.0" y2="373.1" stroke="#00ff36" stroke-width="2.50" stroke-linecap="round"/>
  <line x1="839.0" y1="373.1" x2="835.0" y2="373.1" stroke="#00ff2d" stroke-width="2.50" stroke-linecap="round"/>
  <line x1="835.0" y1="373.1" x2="831.0" y2="373.1" stroke="#00ff24" stroke-width="2.50" stroke-linecap="round"/>
  <line x1="831.0" y1="373.1" x2="826.9" y2="373.1" stroke="#00ff1b" stroke-width="2.50" stroke-linecap="round"/>
  <line x1="826.9" y1="373.1" x2="822.9" y2="373.1" stroke="#00ff13" stroke-width="2.50" stroke-linecap="round"/>
  <line x1="822.9" y1="373.1" x2="818.8" y2="373.1" stroke="#00ff0a" stroke-width="2.50" stroke-linecap="round"/>
  <line x1="818.8" y1="373.1" x2="814.8" y2="373.1" stroke="#00ff02" stroke-width="2.50" stroke-linecap="round"/>
  <line x1="814.8" y1="373.1" x2="810.7" y2="373.1" stroke="#07ff00" stroke-width="2.50" stroke-linecap="round"/>
  <line x1="810.7" y1="373.1" x2="806.7" y2="373.1" stroke="#0fff00" stroke-width="2.50" stroke-linecap="round"/>
  <line x1="806.7" y1="373.1" x2="802.7" y2="373.1" stroke="#17ff00" stroke-width="2.50" stroke-linecap="round"/>
  <line x1="802.7" y1="373.1" x2="798.6" y2="373.1" stroke="#1fff00" stroke-width="2.50" stroke-linecap="round"/>
  <line x1="798.6" y1="373.1" x2="794.6" y2="373.1" stroke="#26ff00" stroke-width="2.50" stroke-linecap="round"/>
  <line x1="794.6" y1="373.1" x2="790.5" y2="373.1" stroke="#2eff00" stroke-width="2.50" stroke-linecap="round"/>
  <line x1="790.5" y1="373.1" x2="786.5" y2="373.1" stroke="#36ff00" stroke-width="2.50" stroke-linecap="round"/>
  <line x1="786.5" y1="373.1" x2="782.4" y2="373.1" stroke="#3dff00" stroke-width="2.50" stroke-linecap="round"/>
  <line x1="782.4" y1="373.1" x2="778.4" y2="373.1" stroke="#44ff00" stroke-width="2.50" stroke-linecap="round"/>
  <line x1="778.4" y1="373.1" x2="774.4" y2="373.1" stroke="#4cff00" stroke-width="2.50" stroke-linecap="round"/>
  <line x1="774.4" y1="373.1" x2="770.3" y2="373.1" stroke="#53ff00" stroke-width="2.50" stroke-linecap="round"/>
  <line x1="770.3" y1="373.1" x2="766.3" y2="373.1" stroke="#5aff00" stroke-width="2.50" stroke-linecap="round"/>
  <line x1="766.3" y1="373.1" x2="762.2" y2="373.1" stroke="#61ff00" stroke-width="2.50" stroke-linecap="round"/>
  <line x1="762.2" y1="373.1" x2="758.2" y2="373.1" stroke="#68ff00" stroke-width="2.50" stroke-linecap="round"/>
  <line x1="758.2" y1="373.1" x2="754.1" y2="373.1" stroke="#6eff00" stroke-width="2.50" stroke-linecap="round"/>
  <line x1="754.1" y1="373.1" x2="750.1" y2="373.1" stroke="#75ff00" stroke-width="2.50" stroke-linecap="round"/>
  <line x1="750.1" y1="373.1" x2="746.0" y2="373.1" stroke="#7bff00" stroke-width="2.50" stroke-linecap="round"/>
  <line x1="746.0" y1="373.1" x2="742.0" y2="373.1" stroke="#82ff00" stroke-width="2.50" stroke-linecap="round"/>
  <line x1="742.0" y1="373.1" x2="738.0" y2="373.1" stroke="#88ff00" stroke-width="2.50" stroke-linecap="round"/>
  <line x1="738.0" y1="373.1" x2="733.9" y2="373.1" stroke="#8fff00" stroke-width="2.50" stroke-linecap="round"/>
  <line x1="733.9" y1="373.1" x2="729.9" y2="373.1" stroke="#95ff00" stroke-width="2.50" stroke-linecap="round"/>
  <line x1="729.9" y1="373.1" x2="725.8" y2="373.1" stroke="#9bff00" stroke-width="2.50" stroke-linecap="round"/>
  <line x1="725.8" y1="373.1" x2="721.8" y2="373.1" stroke="#a1ff00" stroke-width="2.50" stroke-linecap="round"/>
  <line x1="721.8" y1="373.1" x2="717.7" y2="373.1" stroke="#a7ff00" stroke-width="2.50" stroke-linecap="round"/>
  <line x1="717.7" y1="373.1" x2="713.7" y2="373.1" stroke="#adff00" stroke-width="2.50" stroke-linecap="round"/>
  <line x1="713.7" y1="373.1" x2="709.7" y2="373.1" stroke="#b3ff00" stroke-width="2.50" stroke-linecap="round"/>
  <line x1="709.7" y1="373.1" x2="705.6" y2="373.1" stroke="#b8ff00" stroke-width="2.50" stroke-linecap="round"/>
  <line x1="705.6" y1="373.1" x2="701.6" y2="373.1" stroke="#beff00" stroke-width="2.50" stroke-linecap="round"/>
  <line x1="701.6" y1="373.1" x2="697.5" y2="373.1" stroke="#c3ff00" stroke-width="2.50" stroke-linecap="round"/>
  <line x1="697.5" y1="373.1" x2="693.5" y2="373.1" stroke="#c9ff00" stroke-width="2.50" stroke-linecap="round"/>
  <line x1="693.5" y1="373.1" x2="689.4" y2="373.1" stroke="#ceff00" stroke-width="2.50" stroke-linecap="round"/>
  <line x1="689.4" y1="373.1" x2="685.4" y2="373.1" stroke="#d4ff00" stroke-width="2.50" stroke-linecap="round"/>
  <line x1="685.4" y1="373.1" x2="681.3" y2="373.1" stroke="#d9ff00" stroke-width="2.50" stroke-linecap="round"/>
  <line x1="681.3" y1="373.1" x2="677.3" y2="373.1" stroke="#deff00" stroke-width="2.50" stroke-linecap="round"/>
  <line x1="677.3" y1="373.1" x2="673.3" y2="373.1" stroke="#e3ff00" stroke-width="2.50" stroke-linecap="round"/>
  <line x1="673.3" y1="373.1" x2="669.2" y2="373.1" stroke="#e8ff00" stroke-width="2.50" stroke-linecap="round"/>
  <line x1="669.2" y1="373.1" x2="665.2" y2="373.1" stroke="#edff00" stroke-width="2.50" stroke-linecap="round"/>
  <line x1="665.2" y1="373.1" x2="661.1" y2="373.1" stroke="#f2ff00" stroke-width="2.50" stroke-linecap="round"/>
  <line x1="661.1" y1="373.1" x2="657.1" y2="373.1" stroke="#f7ff00" stroke-width="2.50" stroke-linecap="round"/>
  <line x1="657.1" y1="373.1" x2="653.0" y2="373.1" stroke="#fcff00" stroke-width="2.50" stroke-linecap="round"/>
  <line x1="653.0" y1="373.1" x2="649.0" y2="373.1" stroke="#fffd00" stroke-width="2.50" stroke-linecap="round"/>
  <line x1="649.0" y1="373.1" x2="645.0" y2="373.1" stroke="#fff900" stroke-width="2.50" stroke-linecap="round"/>
  <line x1="645.0" y1="373.1" x2="640.9" y2="373.1" stroke="#fff400" stroke-width="2.50" stroke-linecap="round"/>
  <line x1="640.9" y1="373.1" x2="636.9" y2="373.1" stroke="#fff000" stroke-width="2.50" stroke-linecap="round"/>
  <line x1="636.9" y1="373.1" x2="632.8" y2="373.1" stroke="#ffeb00" stroke-width="2.50" stroke-linecap="round"/>
  <line x1="632.8" y1="373.1" x2="628.8" y2="373.1" stroke="#ffe700" stroke-width="2.50" stroke-linecap="round"/>
  <line x1="628.8" y1="373.1" x2="624.7" y2="373.1" stroke="#ffe200" stroke-width="2.50" stroke-linecap="round"/>
  <line x1="624.7" y1="373.1" x2="620.7" y2="373.1" stroke="#ffde00" stroke-width="2.50" stroke-linecap="round"/>
  <line x1="620.7" y1="373.1" x2="616.7" y2="373.1" stroke="#ffda00" stroke-width="2.50" stroke-linecap="round"/>
  <line x1="616.7" y1="373.1" x2="612.6" y2="373.1" stroke="#ffd500" stroke-width="2.50" stroke-linecap="round"/>
  <line x1="612.6" y1="373.1" x2="608.6" y2="373.1" stroke="#ffd100" stroke-width="2.50" stroke-linecap="round"/>
  <line x1="608.6" y1="373.1" x2="604.5" y2="373.1" stroke="#ffcd00" stroke-width="2.50" stroke-linecap="round"/>
  <line x1="604.5" y1="373.1" x2="600.5" y2="373.1" stroke="#ffc900" stroke-width="2.50" stroke-linecap="round"/>
  <line x1="600.5" y1="373.1" x2="596.4" y2="373.1" stroke="#ffc500" stroke-width="2.50" stroke-linecap="round"/>
  <line x1="596.4" y1="373.1" x2="592.4" y2="373.1" stroke="#ffc100" stroke-width="2.50" stroke-linecap="round"/>
  <line x1="592.4" y1="373.1" x2="588.3" y2="373.1" stroke="#ffbd00" stroke-width="2.50" stroke-linecap="round"/>
  <line x1="588.3" y1="373.1" x2="584.3" y2="373.1" stroke="#ffb900" stroke-width="2.50" stroke-linecap="round"/>
  <line x1="584.3" y1="373.1" x2="580.3" y2="373.1" stroke="#ffb600" stroke-width="2.50" stroke-linecap="round"/>
  <line x1="580.3" y1="373.1" x2="576.2" y2="373.1" stroke="#ffb200" stroke-width="2.50" stroke-linecap="round"/>
  <line x1="576.2" y1="373.1" x2="572.2" y2="373.1" stroke="#ffae00" stroke-width="2.50" stroke-linecap="round"/>
  <line x1="572.2" y1="373.1" x2="568.1" y2="373.1" stroke="#ffaa00" stroke-width="2.50" stroke-linecap="round"/>
  <line x1="568.1" y1="373.1" x2="564.1" y2="373.1" stroke="#ffa700" stroke-width="2.50" stroke-linecap="round"/>
  <line x1="564.1" y1="373.1" x2="560.0" y2="373.1" stroke="#ffa300" stroke-width="2.50" stroke-linecap="round"/>
  <line x1="560.0" y1="373.1" x2="556.0" y2="373.1" stroke="#ffa000" stroke-width="2.50" stroke-linecap="round"/>
  <line x1="556.0" y1="373.1" x2="552.0" y2="373.1" stroke="#ff9c00" stroke-width="2.50" stroke-linecap="round"/>
  <line x1="552.0" y1="373.1" x2="547.9" y2="373.1" stroke="#ff9900" stroke-width="2.50" stroke-linecap="round"/>
  <line x1="547.9" y1="373.1" x2="543.9" y2="373.1" stroke="#ff9500" stroke-width="2.50" stroke-linecap="round"/>
  <line x1="543.9" y1="373.1" x2="539.8" y2="373.1" stroke="#ff9200" stroke-width="2.50" stroke-linecap="round"/>
  <line x1="539.8" y1="373.1" x2="535.8" y2="373.1" stroke="#ff8f00" stroke-width="2.50" stroke-linecap="round"/>
  <line x1="535.8" y1="373.1" x2="531.7" y2="373.1" stroke="#ff8b00" stroke-width="2.50" stroke-linecap="round"/>
  <line x1="531.7" y1="373.1" x2="527.7" y2="373.1" stroke="#ff8800" stroke-width="2.50" stroke-linecap="round"/>
  <line x1="527.7" y1="373.1" x2="523.6" y2="373.1" stroke="#ff8500" stroke-width="2.50" stroke-linecap="round"/>
  <line x1="523.6" y1="373.1" x2="519.6" y2="373.1" stroke="#ff8200" stroke-width="2.50" stroke-linecap="round"/>
  <line x1="519.6" y1="373.1" x2="515.6" y2="373.1" stroke="#ff7f00" stroke-width="2.50" stroke-linecap="round"/>
  <line x1="515.6" y1="373.1" x2="511.5" y2="373.1" stroke="#ff7c00" stroke-width="2.50" stroke-linecap="round"/>
  <line x1="511.5" y1="373.1" x2="507.5" y2="373.1" stroke="#ff7800" stroke-width="2.50" stroke-linecap="round"/>
  <line x1="507.5" y1="373.1" x2="503.4" y2="373.1" stroke="#ff7500" stroke-width="2.50" stroke-linecap="round"/>
  <line x1="503.4" y1="373.1" x2="499.4" y2="373.1" stroke="#ff7300" stroke-width="2.50" stroke-linecap="round"/>
  <line x1="499.4" y1="373.1" x2="495.3" y2="373.1" stroke="#ff7000" stroke-width="2.50" stroke-linecap="round"/>
  <line x1="495.3" y1="373.1" x2="491.3" y2="373.1" stroke="#ff6d00" stroke-width="2.50" stroke-linecap="round"/>
  <line x1="491.3" y1="373.1" x2="487.3" y2="373.1" stroke="#ff6a00" stroke-width="2.50" stroke-linecap="round"/>
  <line x1="487.3" y1="373.1" x2="483.2" y2="373.1" stroke="#ff6700" stroke-width="2.50" stroke-linecap="round"/>
  <line x1="483.2" y1="373.1" x2="479.2" y2="373.1" stroke="#ff6400" stroke-width="2.50" stroke-linecap="round"/>
  <line x1="479.2" y1="373.1" x2="475.1" y2="373.1" stroke="#ff6100" stroke-width="2.50" stroke-linecap="round"/>
  <line x1="475.1" y1="373.1" x2="471.1" y2="373.1" stroke="#ff5f00" stroke-width="2.50" stroke-linecap="round"/>
  <line x1="471.1" y1="373.1" x2="467.0" y2="373.1" stroke="#ff5c00" stroke-width="2.50" stroke-linecap="round"/>
  <line x1="467.0" y1="373.1" x2="463.0" y2="373.1" stroke="#ff5900" stroke-width="2.50" stroke-linecap="round"/>
  <line x1="463.0" y1="373.1" x2="459.0" y2="373.1" stroke="#ff5700" stroke-width="2.50" stroke-linecap="round"/>
  <line x1="459.0" y1="373.1" x2="454.9" y2="373.1" stroke="#ff5400" stroke-width="2.50" stroke-linecap="round"/>
  <line x1="454.9" y1="373.1" x2="450.9" y2="373.1" stroke="#ff5100" stroke-width="2.50" stroke-linecap="round"/>
  <line x1="450.9" y1="373.1" x2="446.8" y2="373.1" stroke="#ff4f00" stroke-width="2.50" stroke-linecap="round"/>
  <line x1="446.8" y1="373.1" x2="442.8" y2="373.1" stroke="#ff4c00" stroke-width="2.50" stroke-linecap="round"/>
  <line x1="442.8" y1="373.1" x2="438.7" y2="373.1" stroke="#ff4a00" stroke-width="2.50" stroke-linecap="round"/>
  <line x1="438.7" y1="373.1" x2="434.7" y2="373.1" stroke="#ff4700" stroke-width="2.50" stroke-linecap="round"/>
  <line x1="434.7" y1="373.1" x2="430.6" y2="373.1" stroke="#ff4500" stroke-width="2.50" stroke-linecap="round"/>
  <line x1="430.6" y1="373.1" x2="426.6" y2="373.1" stroke="#ff4300" stroke-width="2.50" stroke-linecap="round"/>
  <line x1="426.6" y1="373.1" x2="422.6" y2="373.1" stroke="#ff4000" stroke-width="2.50" stroke-linecap="round"/>
  <line x1="422.6" y1="373.1" x2="418.5" y2="373.1" stroke="#ff3e00" stroke-width="2.50" stroke-linecap="round"/>
  <line x1="418.5" y1="373.1" x2="414.5" y2="373.1" stroke="#ff3c00" stroke-width="2.50" stroke-linecap="round"/>
  <line x1="414.5" y1="373.1" x2="410.4" y2="373.1" stroke="#ff3900" stroke-width="2.50" stroke-linecap="round"/>
  <line x1="410.4" y1="373.1" x2="406.4" y2="373.1" stroke="#ff3700" stroke-width="2.50" stroke-linecap="round"/>
  <line x1="406.4" y1="373.1" x2="402.3" y2="373.1" stroke="#ff3500" stroke-width="2.50" stroke-linecap="round"/>
  <line x1="402.3" y1="373.1" x2="398.3" y2="373.1" stroke="#ff3300" stroke-width="2.50" stroke-linecap="round"/>
  <line x1="398.3" y1="373.1" x2="394.3" y2="373.1" stroke="#ff3100" stroke-width="2.50" stroke-linecap="round"/>
  <line x1="394.3" y1="373.1" x2="390.2" y2="373.1" stroke="#ff2e00" stroke-width="2.50" stroke-linecap="round"/>
  <line x1="390.2" y1="373.1" x2="386.2" y2="373.1" stroke="#ff2c00" stroke-width="2.50" stroke-linecap="round"/>
  <line x1="386.2" y1="373.1" x2="382.1" y2="373.1" stroke="#ff2a00" stroke-width="2.50" stroke-linecap="round"/>
  <line x1="382.1" y1="373.1" x2="378.1" y2="373.1" stroke="#ff2800" stroke-width="2.50" stroke-linecap="round"/>
  <line x1="378.1" y1="373.1" x2="374.0" y2="373.1" stroke="#ff2600" stroke-width="2.50" stroke-linecap="round"/>
  <line x1="374.0" y1="373.1" x2="370.0" y2="373.1" stroke="#ff2400" stroke-width="2.50" stroke-linecap="round"/>
  <line x1="370.0" y1="373.1" x2="365.9" y2="373.1" stroke="#ff2200" stroke-width="2.50" stroke-linecap="round"/>
  <line x1="365.9" y1="373.1" x2="361.9" y2="373.1" stroke="#ff2000" stroke-width="2.50" stroke-linecap="round"/>
  <line x1="361.9" y1="373.1" x2="357.9" y2="373.1" stroke="#ff1e00" stroke-width="2.50" stroke-linecap="round"/>
  <line x1="357.9" y1="373.1" x2="353.8" y2="373.1" stroke="#ff1c00" stroke-width="2.50" stroke-linecap="round"/>
  <line x1="353.8" y1="373.1" x2="349.8" y2="373.1" stroke="#ff1a00" stroke-width="2.50" stroke-linecap="round"/>
  <line x1="349.8" y1="373.1" x2="345.7" y2="373.1" stroke="#ff1800" stroke-width="2.50" stroke-linecap="round"/>
  <line x1="345.7" y1="373.1" x2="341.7" y2="373.1" stroke="#ff1600" stroke-width="2.50" stroke-linecap="round"/>
  <line x1="341.7" y1="373.1" x2="337.6" y2="373.1" stroke="#ff1500" stroke-width="2.50" stroke-linecap="round"/>
  <line x1="337.6" y1="373.1" x2="333.6" y2="373.1" stroke="#ff1300" stroke-width="2.50" stroke-linecap="round"/>
  <line x1="333.6" y1="373.1" x2="329.6" y2="373.1" stroke="#ff1100" stroke-width="2.50" stroke-linecap="round"/>
  <line x1="329.6" y1="373.1" x2="325.5" y2="373.1" stroke="#ff0f00" stroke-width="2.50" stroke-linecap="round"/>
  <line x1="325.5" y1="373.1" x2="321.5" y2="373.1" stroke="#ff0d00" stroke-width="2.50" stroke-linecap="round"/>
  <line x1="321.5" y1="373.1" x2="317.4" y2="373.1" stroke="#ff0c00" stroke-width="2.50" stroke-linecap="round"/>
  <line x1="317.4" y1="373.1" x2="313.4" y2="373.1" stroke="#ff0a00" stroke-width="2.50" stroke-linecap="round"/>
  <line x1="313.4" y1="373.1" x2="309.3" y2="373.1" stroke="#ff0800" stroke-width="2.50" stroke-linecap="round"/>
  <line x1="309.3" y1="373.1" x2="305.3" y2="373.1" stroke="#ff0700" stroke-width="2.50" stroke-linecap="round"/>
  <line x1="305.3" y1="373.1" x2="301.3" y2="373.1" stroke="#ff0500" stroke-width="2.50" stroke-linecap="round"/>
  <line x1="301.3" y1="373.1" x2="297.2" y2="373.1" stroke="#ff0300" stroke-width="2.50" stroke-linecap="round"/>
  <line x1="297.2" y1="373.1" x2="293.2" y2="373.1" stroke="#ff0200" stroke-width="2.50" stroke-linecap="round"/>
  <line x1="293.2" y1="373.1" x2="289.1" y2="373.1" stroke="#ff0000" stroke-width="2.50" stroke-linecap="round"/>
  <line x1="289.1" y1="373.1" x2="285.1" y2="373.1" stroke="#ff2500" stroke-width="2.50" stroke-linecap="round"/>
  <line x1="285.1" y1="373.1" x2="281.0" y2="373.1" stroke="#ff5200" stroke-width="2.50" stroke-linecap="round"/>
  <line x1="281.0" y1="373.1" x2="277.0" y2="373.1" stroke="#ff7f00" stroke-width="2.50" stroke-linecap="round"/>
  <line x1="277.0" y1="373.1" x2="272.9" y2="373.1" stroke="#ffad00" stroke-width="2.50" stroke-linecap="round"/>
  <line x1="272.9" y1="373.1" x2="268.9" y2="373.1" stroke="#ffdb00" stroke-width="2.50" stroke-linecap="round"/>
  <line x1="268.9" y1="373.1" x2="264.9" y2="373.1" stroke="#f5ff00" stroke-width="2.50" stroke-linecap="round"/>
  <line x1="264.9" y1="373.1" x2="260.8" y2="373.1" stroke="#c6ff00" stroke-width="2.50" stroke-linecap="round"/>
  <line x1="260.8" y1="373.1" x2="256.8" y2="373.1" stroke="#97ff00" stroke-width="2.50" stroke-linecap="round"/>
  <line x1="256.8" y1="373.1" x2="252.7" y2="373.1" stroke="#67ff00" stroke-width="2.50" stroke-linecap="round"/>
  <line x1="252.7" y1="373.1" x2="248.7" y2="373.1" stroke="#36ff00" stroke-width="2.50" stroke-linecap="round"/>
  <line x1="248.7" y1="373.1" x2="244.6" y2="373.1" stroke="#05ff00" stroke-width="2.50" stroke-linecap="round"/>
  <line x1="244.6" y1="373.1" x2="240.6" y2="373.1" stroke="#00ff2d" stroke-width="2.50" stroke-linecap="round"/>
  <line x1="240.6" y1="373.1" x2="236.6" y2="373.1" stroke="#00ff5f" stroke-width="2.50" stroke-linecap="round"/>
  <line x1="236.6" y1="373.1" x2="232.5" y2="373.1" stroke="#00ff93" stroke-width="2.50" stroke-linecap="round"/>
  <line x1="232.5" y1="373.1" x2="228.5" y2="373.1" stroke="#00ffc7" stroke-width="2.50" stroke-linecap="round"/>
  <line x1="228.5" y1="373.1" x2="224.4" y2="373.1" stroke="#00fffc" stroke-width="2.50" stroke-linecap="round"/>
  <line x1="224.4" y1="373.1" x2="220.4" y2="373.1" stroke="#00ccff" stroke-width="2.50" stroke-linecap="round"/>
  <line x1="220.4" y1="373.1" x2="216.3" y2="373.1" stroke="#0094ff" stroke-width="2.50" stroke-linecap="round"/>
  <line x1="216.3" y1="373.1" x2="212.3" y2="373.1" stroke="#005cff" stroke-width="2.50" stroke-linecap="round"/>
  <line x1="212.3" y1="373.1" x2="208.3" y2="373.4" stroke="#0026ff" stroke-width="2.50" stroke-linecap="round"/>
  <line x1="208.3" y1="373.4" x2="204.2" y2="373.9" stroke="#0017ff" stroke-width="2.50" stroke-linecap="round"/>
  <line x1="204.2" y1="373.9" x2="200.3" y2="374.6" stroke="#000eff" stroke-width="2.50" stroke-linecap="round"/>
  <line x1="200.3" y1="374.6" x2="196.3" y2="375.5" stroke="#0006ff" stroke-width="2.50" stroke-linecap="round"/>
  <line x1="196.3" y1="375.5" x2="192.4" y2="376.6" stroke="#0004ff" stroke-width="2.50" stroke-linecap="round"/>
  <line x1="192.4" y1="376.6" x2="188.6" y2="377.9" stroke="#0003ff" stroke-width="2.50" stroke-linecap="round"/>
  <line x1="188.6" y1="377.9" x2="184.9" y2="379.4" stroke="#0002ff" stroke-width="2.50" stroke-linecap="round"/>
  <line x1="184.9" y1="379.4" x2="181.2" y2="381.1" stroke="#0001ff" stroke-width="2.50" stroke-linecap="round"/>
  <line x1="181.2" y1="381.1" x2="177.6" y2="383.0" stroke="#0001ff" stroke-width="2.50" stroke-linecap="round"/>
  <line x1="177.6" y1="383.0" x2="174.1" y2="385.1" stroke="#0001ff" stroke-width="2.50" stroke-linecap="round"/>
  <line x1="174.1" y1="385.1" x2="170.8" y2="387.3" stroke="#0000ff" stroke-width="2.50" stroke-linecap="round"/>
  <line x1="170.8" y1="387.3" x2="167.6" y2="389.8" stroke="#0000ff" stroke-width="2.50" stroke-linecap="round"/>
  <line x1="167.6" y1="389.8" x2="164.5" y2="392.3" stroke="#0000ff" stroke-width="2.50" stroke-linecap="round"/>
  <line x1="164.5" y1="392.3" x2="161.5" y2="395.1" stroke="#0000ff" stroke-width="2.50" stroke-linecap="round"/>
  <line x1="161.5" y1="395.1" x2="158.7" y2="398.0" stroke="#0000ff" stroke-width="2.50" stroke-linecap="round"/>
  <line x1="158.7" y1="398.0" x2="156.0" y2="401.1" stroke="#0000ff" stroke-width="2.50" stroke-linecap="round"/>
  <line x1="156.0" y1="401.1" x2="153.5" y2="404.2" stroke="#0000ff" stroke-width="2.50" stroke-linecap="round"/>
  <line x1="153.5" y1="404.2" x2="151.2" y2="407.6" stroke="#0000ff" stroke-width="2.50" stroke-linecap="round"/>
  <line x1="151.2" y1="407.6" x2="149.1" y2="411.0" stroke="#0000ff" stroke-width="2.50" stroke-linecap="round"/>
  <line x1="149.1" y1="411.0" x2="147.1" y2="414.5" stroke="#0000ff" stroke-width="2.50" stroke-linecap="round"/>
  <line x1="147.1" y1="414.5" x2="145.4" y2="418.2" stroke="#0000ff" stroke-width="2.50" stroke-linecap="round"/>
  <line x1="145.4" y1="418.2" x2="143.8" y2="421.9" stroke="#0000ff" stroke-width="2.50" stroke-linecap="round"/>
  <line x1="143.8" y1="421.9" x2="142.4" y2="425.7" stroke="#0000ff" stroke-width="2.50" stroke-linecap="round"/>
  <line x1="142.4" y1="425.7" x2="141.2" y2="429.6" stroke="#0000ff" stroke-width="2.50" stroke-linecap="round"/>
  <line x1="141.2" y1="429.6" x2="140.3" y2="433.5" stroke="#0000ff" stroke-width="2.50" stroke-linecap="round"/>
  <line x1="140.3" y1="433.5" x2="139.5" y2="437.4" stroke="#0000ff" stroke-width="2.50" stroke-linecap="round"/>
  <line x1="139.5" y1="437.4" x2="138.9" y2="441.5" stroke="#0000ff" stroke-width="2.50" stroke-linecap="round"/>
  <line x1="138.9" y1="441.5" x2="138.6" y2="445.5" stroke="#0000ff" stroke-width="2.50" stroke-linecap="round"/>
  <line x1="138.6" y1="445.5" x2="138.5" y2="449.5" stroke="#0000ff" stroke-width="2.50" stroke-linecap="round"/>
  <line x1="138.5" y1="449.5" x2="138.5" y2="453.6" stroke="#0000ff" stroke-width="2.50" stroke-linecap="round"/>
  <line x1="138.5" y1="453.6" x2="138.8" y2="457.6" stroke="#0000ff" stroke-width="2.50" stroke-linecap="round"/>
  <line x1="138.8" y1="457.6" x2="139.3" y2="461.6" stroke="#0000ff" stroke-width="2.50" stroke-linecap="round"/>
  <line x1="139.3" y1="461.6" x2="140.1" y2="465.6" stroke="#0000ff" stroke-width="2.50" stroke-linecap="round"/>
  <line x1="140.1" y1="465.6" x2="141.0" y2="469.5" stroke="#0000ff" stroke-width="2.50" stroke-linecap="round"/>
  <line x1="141.0" y1="469.5" x2="142.1" y2="473.4" stroke="#0000ff" stroke-width="2.50" stroke-linecap="round"/>
  <line x1="142.1" y1="473.4" x2="143.4" y2="477.2" stroke="#0000ff" stroke-width="2.50" stroke-linecap="round"/>
  <line x1="143.4" y1="477.2" x2="145.0" y2="481.0" stroke="#0000ff" stroke-width="2.50" stroke-linecap="round"/>
  <line x1="145.0" y1="481.0" x2="146.7" y2="484.6" stroke="#0000ff" stroke-width="2.50" stroke-linecap="round"/>
  <line x1="146.7" y1="484.6" x2="148.6" y2="488.2" stroke="#0000ff" stroke-width="2.50" stroke-linecap="round"/>
  <line x1="148.6" y1="488.2" x2="150.7" y2="491.6" stroke="#0000ff" stroke-width="2.50" stroke-linecap="round"/>
  <line x1="150.7" y1="491.6" x2="153.0" y2="495.0" stroke="#0000ff" stroke-width="2.50" stroke-linecap="round"/>
  <line x1="153.0" y1="495.0" x2="155.4" y2="498.2" stroke="#0000ff" stroke-width="2.50" stroke-linecap="round"/>
  <line x1="155.4" y1="498.2" x2="158.0" y2="501.3" stroke="#0000ff" stroke-width="2.50" stroke-linecap="round"/>
  <line x1="158.0" y1="501.3" x2="160.8" y2="504.2" stroke="#0000ff" stroke-width="2.50" stroke-linecap="round"/>
  <line x1="160.8" y1="504.2" x2="163.7" y2="507.0" stroke="#0000ff" stroke-width="2.50" stroke-linecap="round"/>
  <line x1="163.7" y1="507.0" x2="166.8" y2="509.7" stroke="#0000ff" stroke-width="2.50" stroke-linecap="round"/>
  <line x1="166.8" y1="509.7" x2="170.0" y2="512.1" stroke="#0000ff" stroke-width="2.50" stroke-linecap="round"/>
  <line x1="170.0" y1="512.1" x2="173.3" y2="514.4" stroke="#0000ff" stroke-width="2.50" stroke-linecap="round"/>
  <line x1="173.3" y1="514.4" x2="176.8" y2="516.5" stroke="#0000ff" stroke-width="2.50" stroke-linecap="round"/>
  <line x1="176.8" y1="516.5" x2="180.3" y2="518.5" stroke="#0000ff" stroke-width="2.50" stroke-linecap="round"/>
  <line x1="180.3" y1="518.5" x2="184.0" y2="520.2" stroke="#0000ff" stroke-width="2.50" stroke-linecap="round"/>
  <line x1="184.0" y1="520.2" x2="187.7" y2="521.8" stroke="#0000ff" stroke-width="2.50" stroke-linecap="round"/>
  <line x1="187.7" y1="521.8" x2="191.5" y2="523.1" stroke="#0000ff" stroke-width="2.50" stroke-linecap="round"/>
  <line x1="191.5" y1="523.1" x2="195.4" y2="524.3" stroke="#0000ff" stroke-width="2.50" stroke-linecap="round"/>
  <line x1="195.4" y1="524.3" x2="199.3" y2="525.2" stroke="#0000ff" stroke-width="2.50" stroke-linecap="round"/>
  <line x1="199.3" y1="525.2" x2="203.3" y2="526.0" stroke="#0000ff" stroke-width="2.50" stroke-linecap="round"/>
  <line x1="203.3" y1="526.0" x2="207.3" y2="526.5" stroke="#0000ff" stroke-width="2.50" stroke-linecap="round"/>
  <line x1="207.3" y1="526.5" x2="211.3" y2="526.8" stroke="#0000ff" stroke-width="2.50" stroke-linecap="round"/>
  <line x1="211.3" y1="526.8" x2="215.4" y2="526.9" stroke="#0000ff" stroke-width="2.50" stroke-linecap="round"/>
  <line x1="215.4" y1="522.3" x2="215.3" y2="531.5" stroke="#ffffff" stroke-width="1.00"/>
  <text x="30" y="50" font-family="sans-serif" font-size="34" fill="#ffffff">Apex-14 — Oval (R=100m)</text>
  <rect x="910.0" y="842.0" width="5.33" height="18.0" fill="#0000ff"/>
  <rect x="914.4" y="842.0" width="5.33" height="18.0" fill="#0011ff"/>
  <rect x="918.8" y="842.0" width="5.33" height="18.0" fill="#0023ff"/>
  <rect x="923.2" y="842.0" width="5.33" height="18.0" fill="#0034ff"/>
  <rect x="927.6" y="842.0" width="5.33" height="18.0" fill="#0045ff"/>
  <rect x="932.0" y="842.0" width="5.33" height="18.0" fill="#0056ff"/>
  <rect x="936.4" y="842.0" width="5.33" height="18.0" fill="#0068ff"/>
  <rect x="940.8" y="842.0" width="5.33" height="18.0" fill="#0079ff"/>
  <rect x="945.3" y="842.0" width="5.33" height="18.0" fill="#008aff"/>
  <rect x="949.7" y="842.0" width="5.33" height="18.0" fill="#009cff"/>
  <rect x="954.1" y="842.0" width="5.33" height="18.0" fill="#00adff"/>
  <rect x="958.5" y="842.0" width="5.33" height="18.0" fill="#00beff"/>
  <rect x="962.9" y="842.0" width="5.33" height="18.0" fill="#00cfff"/>
  <rect x="967.3" y="842.0" width="5.33" height="18.0" fill="#00e1ff"/>
  <rect x="971.7" y="842.0" width="5.33" height="18.0" fill="#00f2ff"/>
  <rect x="976.1" y="842.0" width="5.33" height="18.0" fill="#00fffb"/>
  <rect x="980.5" y="842.0" width="5.33" height="18.0" fill="#00ffe9"/>
  <rect x="984.9" y="842.0" width="5.33" height="18.0" fill="#00ffd8"/>
  <rect x="989.3" y="842.0" width="5.33" height="18.0" fill="#00ffc7"/>
  <rect x="993.7" y="842.0" width="5.33" height="18.0" fill="#00ffb6"/>
  <rect x="998.1" y="842.0" width="5.33" height="18.0" fill="#00ffa4"/>
  <rect x="1002.5" y="842.0" width="5.33" height="18.0" fill="#00ff93"/>
  <rect x="1006.9" y="842.0" width="5.33" height="18.0" fill="#00ff82"/>
  <rect x="1011.4" y="842.0" width="5.33" height="18.0" fill="#00ff70"/>
  <rect x="1015.8" y="842.0" width="5.33" height="18.0" fill="#00ff5f"/>
  <rect x="1020.2" y="842.0" width="5.33" height="18.0" fill="#00ff4e"/>
  <rect x="1024.6" y="842.0" width="5.33" height="18.0" fill="#00ff3d"/>
  <rect x="1029.0" y="842.0" width="5.33" height="18.0" fill="#00ff2b"/>
  <rect x="1033.4" y="842.0" width="5.33" height="18.0" fill="#00ff1a"/>
  <rect x="1037.8" y="842.0" width="5.33" height="18.0" fill="#00ff09"/>
  <rect x="1042.2" y="842.0" width="5.33" height="18.0" fill="#09ff00"/>
  <rect x="1046.6" y="842.0" width="5.33" height="18.0" fill="#1aff00"/>
  <rect x="1051.0" y="842.0" width="5.33" height="18.0" fill="#2bff00"/>
  <rect x="1055.4" y="842.0" width="5.33" height="18.0" fill="#3dff00"/>
  <rect x="1059.8" y="842.0" width="5.33" height="18.0" fill="#4eff00"/>
  <rect x="1064.2" y="842.0" width="5.33" height="18.0" fill="#5fff00"/>
  <rect x="1068.6" y="842.0" width="5.33" height="18.0" fill="#70ff00"/>
  <rect x="1073.1" y="842.0" width="5.33" height="18.0" fill="#82ff00"/>
  <rect x="1077.5" y="842.0" width="5.33" height="18.0" fill="#93ff00"/>
  <rect x="1081.9" y="842.0" width="5.33" height="18.0" fill="#a4ff00"/>
  <rect x="1086.3" y="842.0" width="5.33" height="18.0" fill="#b6ff00"/>
  <rect x="1090.7" y="842.0" width="5.33" height="18.0" fill="#c7ff00"/>
  <rect x="1095.1" y="842.0" width="5.33" height="18.0" fill="#d8ff00"/>
  <rect x="1099.5" y="842.0" width="5.33" height="18.0" fill="#e9ff00"/>
  <rect x="1103.9" y="842.0" width="5.33" height="18.0" fill="#fbff00"/>
  <rect x="1108.3" y="842.0" width="5.33" height="18.0" fill="#fff200"/>
  <rect x="1112.7" y="842.0" width="5.33" height="18.0" fill="#ffe100"/>
  <rect x="1117.1" y="842.0" width="5.33" height="18.0" fill="#ffcf00"/>
  <rect x="1121.5" y="842.0" width="5.33" height="18.0" fill="#ffbe00"/>
  <rect x="1125.9" y="842.0" width="5.33" height="18.0" fill="#ffad00"/>
  <rect x="1130.3" y="842.0" width="5.33" height="18.0" fill="#ff9c00"/>
  <rect x="1134.7" y="842.0" width="5.33" height="18.0" fill="#ff8a00"/>
  <rect x="1139.2" y="842.0" width="5.33" height="18.0" fill="#ff7900"/>
  <rect x="1143.6" y="842.0" width="5.33" height="18.0" fill="#ff6800"/>
  <rect x="1148.0" y="842.0" width="5.33" height="18.0" fill="#ff5600"/>
  <rect x="1152.4" y="842.0" width="5.33" height="18.0" fill="#ff4500"/>
  <rect x="1156.8" y="842.0" width="5.33" height="18.0" fill="#ff3400"/>
  <rect x="1161.2" y="842.0" width="5.33" height="18.0" fill="#ff2300"/>
  <rect x="1165.6" y="842.0" width="5.33" height="18.0" fill="#ff1100"/>
  <rect x="1170.0" y="842.0" width="5.33" height="18.0" fill="#ff0000"/>
  <text x="910.0" y="836.0" font-family="sans-serif" font-size="18" fill="#ffffff" text-anchor="start">272 km/h</text>
  <text x="1170.0" y="836.0" font-family="sans-serif" font-size="18" fill="#ffffff" text-anchor="end">457 km/h</text>
</svg>
