<?xml version="1.0" encoding="UTF-8"?>
<svg xmlns="http://www.w3.org/2000/svg" width="1200" height="900" viewBox="0 0 1200 900">
  <rect x="0" y="0" width="1200" height="900" fill="#1a1a2e"/>
  <polygon points="220.2,675.8 220.2,670.4 220.2,665.1 220.2,659.8 220.2,654.4 220.2,649.1 220.2,643.8 220.2,638.4 220.2,633.1 220.2,627.8 220.2,622.4 220.2,617.1 220.2,611.8 220.2,606.4 220.2,601.1 220.2,595.8 220.2,590.4 220.2,585.1 220.2,579.8 220.2,574.4 220.2,569.1 220.2,563.8 220.2,558.4 220.2,553.1 220.2,547.8 220.2,542.4 220.4,537.2 220.8,531.9 221.6,526.7 222.6,521.6 224.0,516.5 225.6,511.5 227.5,506.6 229.8,501.8 232.2,497.1 235.0,492.7 238.0,488.3 241.2,484.2 244.7,480.2 248.4,476.5 252.3,472.9 256.4,469.6 260.6,466.6 265.1,463.8 269.7,461.2 274.4,458.9 279.0,456.9 283.6,454.9 288.2,452.8 292.7,450.8 297.3,448.8 301.9,446.7 306.4,444.7 310.9,442.7 315.5,440.4 319.8,437.9 324.0,434.9 327.8,431.7 331.4,428.2 334.8,424.4 337.8,420.4 340.5,416.1 342.8,411.7 344.9,406.9 347.0,402.1 349.6,397.4 352.6,393.0 356.1,388.9 359.9,385.2 364.1,381.8 368.6,378.9 373.4,376.4 378.3,374.4 383.3,372.9 388.3,371.4 392.9,369.3 397.3,366.8 401.4,363.9 405.2,360.5 408.5,356.7 411.5,352.6 414.0,348.0 416.4,343.5 419.3,339.1 422.6,335.0 426.2,331.2 430.2,327.7 434.4,324.6 438.9,321.8 443.6,319.5 448.4,317.3 453.3,315.2 458.1,313.1 462.9,310.9 467.7,308.8 472.6,306.6 477.4,304.5 482.2,302.3 487.0,300.2 491.9,298.0 496.7,295.9 501.5,293.7 506.3,291.6 511.2,289.4 516.0,287.3 520.8,285.1 525.7,283.0 530.5,280.8 535.3,278.7 540.1,276.5 545.0,274.4 549.8,272.2 554.6,270.1 559.4,267.9 564.3,265.8 569.1,263.6 573.9,261.5 578.7,259.3 583.6,257.2 588.4,255.0 593.2,252.9 598.0,250.7 602.9,248.6 607.7,246.4 612.5,244.3 617.4,242.1 622.2,240.0 627.0,237.8 631.8,235.7 636.7,233.5 641.5,231.4 646.3,229.2 651.1,227.1 656.0,225.0 660.8,222.8 665.6,220.7 670.4,218.5 675.3,216.4 680.1,214.2 684.9,212.1 689.7,209.9 694.6,207.8 699.4,205.6 704.2,203.5 709.0,201.3 713.9,199.2 718.7,197.0 723.5,194.9 728.4,192.7 733.2,190.6 738.0,188.4 742.8,186.3 747.7,184.1 752.5,182.0 757.3,179.8 762.1,177.7 767.0,175.5 771.8,173.4 776.6,171.2 781.4,169.1 786.3,166.9 791.1,164.8 795.9,162.6 800.7,160.5 805.6,158.3 810.4,156.2 815.2,154.0 820.1,151.9 824.9,149.7 829.7,147.6 834.5,145.4 839.4,143.3 844.2,141.1 849.0,139.0 853.8,136.9 858.7,134.7 863.5,132.6 868.3,130.4 873.1,128.3 878.0,126.1 882.8,124.0 887.6,121.8 892.4,119.7 897.3,117.5 902.1,115.4 906.9,113.2 911.8,111.1 916.6,108.9 921.4,106.8 926.3,104.6 931.6,102.7 937.2,101.6 942.9,101.3 948.5,101.9 954.0,103.4 959.3,105.6 964.1,108.6 968.5,112.3 972.2,116.6 975.3,121.4 977.6,126.6 979.1,132.1 979.8,137.7 979.6,143.3 979.1,148.7 978.5,153.9 977.9,159.2 977.4,164.5 976.8,169.8 976.3,175.0 975.7,180.3 975.2,185.6 974.6,190.8 974.1,196.1 973.5,201.4 973.0,206.6 972.4,211.9 971.9,217.2 971.3,222.4 970.7,227.7 970.2,233.0 969.6,238.3 969.1,243.5 968.5,248.8 968.0,254.1 967.4,259.3 966.9,264.6 966.3,269.9 965.8,275.1 965.2,280.4 964.7,285.7 964.1,290.9 963.5,296.2 963.0,301.5 962.4,306.8 961.9,312.0 961.3,317.3 960.8,322.6 960.2,327.8 959.7,333.1 959.1,338.4 958.6,343.6 958.0,348.9 957.5,354.2 956.9,359.4 956.3,364.7 955.8,370.0 955.2,375.3 954.7,380.5 954.1,385.8 953.6,391.1 953.0,396.3 952.5,401.6 951.9,406.9 951.4,412.1 950.8,417.4 950.3,422.7 949.7,428.0 949.1,433.2 948.6,438.5 948.0,443.8 947.5,449.0 946.9,454.3 946.4,459.6 945.8,464.8 945.3,470.1 944.7,475.4 944.2,480.6 943.6,485.9 943.1,491.2 942.5,496.5 941.9,501.7 941.4,507.0 940.8,512.3 940.3,517.5 939.7,522.8 939.2,528.1 938.6,533.3 938.1,538.6 937.5,543.9 937.0,549.1 936.4,554.4 935.9,559.7 935.3,565.0 934.7,570.2 934.2,575.5 933.6,580.8 933.1,586.0 932.5,591.3 932.0,596.6 931.4,601.8 930.9,607.1 930.3,612.4 929.8,617.6 929.2,623.0 928.3,628.0 926.6,632.8 924.2,637.4 921.1,641.5 917.5,645.1 913.3,648.1 908.8,650.4 904.1,652.0 899.2,653.5 894.8,655.6 890.6,658.3 886.9,661.5 883.6,665.1 880.8,669.2 878.1,673.7 875.3,678.3 872.6,682.8 869.8,687.4 867.1,692.0 864.3,696.6 861.6,701.1 858.8,705.7 856.1,710.3 853.3,714.9 850.4,719.4 847.2,723.7 843.7,727.8 839.9,731.7 835.9,735.3 831.7,738.7 827.2,741.8 822.6,744.5 817.8,747.0 812.8,749.1 807.7,750.9 802.6,752.4 797.3,753.6 791.9,754.3 786.5,754.8 781.2,754.9 775.8,754.8 770.5,754.7 765.2,754.6 759.8,754.5 754.5,754.4 749.6,754.5 744.7,755.0 739.9,755.8 735.1,757.0 730.5,758.6 726.0,760.5 721.6,762.8 717.4,765.4 713.1,768.3 708.6,771.3 704.2,774.3 699.8,777.3 695.4,780.3 690.9,783.3 686.5,786.2 682.1,789.2 677.7,792.2 673.1,795.3 668.1,797.7 662.4,798.7 656.7,798.0 651.4,795.8 646.9,792.1 643.7,787.4 641.9,781.9 641.6,776.5 641.5,771.6 640.2,767.2 637.8,763.3 634.5,760.2 630.5,758.0 626.0,756.9 621.4,757.0 617.0,758.3 613.0,760.8 609.0,764.1 604.9,767.4 600.7,770.8 596.6,774.1 592.4,777.5 588.3,780.5 583.8,782.9 579.1,784.8 574.1,786.1 569.1,786.8 564.0,786.9 558.9,786.4 554.0,785.3 548.8,783.9 543.7,782.4 538.7,781.0 533.6,779.5 528.5,778.0 523.4,776.6 518.3,775.1 513.2,773.7 508.1,772.2 503.0,770.7 497.9,769.3 492.8,767.8 487.7,766.4 482.7,764.9 477.6,763.4 472.5,762.0 467.4,760.5 462.3,759.1 457.2,757.6 452.1,756.1 447.0,754.7 441.9,753.2 436.8,751.8 431.7,750.3 426.7,748.8 421.6,747.4 416.5,745.9 411.4,744.5 406.3,743.0 401.2,741.5 396.1,740.1 391.0,738.6 385.9,737.2 380.8,735.7 375.7,734.2 370.7,732.8 365.6,731.3 360.5,729.9 355.4,728.4 350.3,726.9 345.2,725.5 340.1,724.0 335.0,722.6 329.9,721.1 324.8,719.6 319.7,718.2 314.7,716.7 310.1,715.8 305.5,715.5 300.8,716.0 296.3,717.1 292.1,718.9 288.1,721.4 284.5,724.4 281.5,727.9 279.0,731.8 277.1,736.0 275.8,740.7 274.2,745.7 271.5,750.4 267.8,754.4 263.3,757.6 258.3,759.6 252.9,760.5 247.5,760.2 242.2,758.7 237.4,756.1 233.3,752.6 230.1,748.2 227.5,743.3 225.3,738.2 223.5,733.0 222.1,727.7 221.0,722.3 220.4,716.8 220.2,711.4 220.2,706.3 220.2,701.2 220.2,696.1 220.2,691.0 220.2,685.9 220.2,680.9 220.2,675.8 225.2,675.8 225.2,680.9 225.2,685.9 225.2,691.0 225.2,696.1 225.2,701.2 225.2,706.3 225.2,711.3 225.4,716.5 226.0,721.6 226.9,726.6 228.3,731.6 230.0,736.4 232.0,741.1 234.4,745.6 237.0,749.2 240.3,752.0 244.1,754.1 248.3,755.3 252.6,755.5 256.9,754.8 261.0,753.2 264.5,750.7 267.5,747.5 269.6,743.7 271.0,739.3 272.4,734.3 274.6,729.4 277.5,724.8 281.0,720.8 285.2,717.3 289.8,714.5 294.7,712.4 300.0,711.1 305.4,710.5 310.7,710.8 315.9,711.9 321.1,713.4 326.2,714.8 331.3,716.3 336.4,717.7 341.5,719.2 346.6,720.7 351.7,722.1 356.8,723.6 361.9,725.0 366.9,726.5 372.0,728.0 377.1,729.4 382.2,730.9 387.3,732.3 392.4,733.8 397.5,735.3 402.6,736.7 407.7,738.2 412.8,739.6 417.9,741.1 422.9,742.6 428.0,744.0 433.1,745.5 438.2,746.9 443.3,748.4 448.4,749.9 453.5,751.3 458.6,752.8 463.7,754.2 468.8,755.7 473.9,757.2 478.9,758.6 484.0,760.1 489.1,761.5 494.2,763.0 499.3,764.5 504.4,765.9 509.5,767.4 514.6,768.8 519.7,770.3 524.8,771.8 529.9,773.2 534.9,774.7 540.0,776.1 545.1,777.6 550.2,779.1 555.2,780.5 559.7,781.5 564.2,781.9 568.7,781.8 573.1,781.2 577.5,780.1 581.7,778.4 585.6,776.2 589.3,773.6 593.4,770.3 597.6,766.9 601.7,763.5 605.8,760.2 610.1,756.7 615.0,753.7 620.7,752.1 626.5,751.9 632.3,753.3 637.5,756.1 641.7,760.2 644.8,765.2 646.5,770.8 646.6,776.4 646.8,781.0 648.2,785.2 650.6,788.7 654.0,791.5 658.0,793.2 662.3,793.7 666.6,792.9 670.6,790.9 674.9,788.1 679.3,785.1 683.7,782.1 688.1,779.1 692.6,776.1 697.0,773.1 701.4,770.2 705.8,767.2 710.3,764.2 714.7,761.2 719.2,758.4 723.8,756.0 728.7,753.9 733.7,752.2 738.8,750.9 744.0,750.0 749.3,749.5 754.5,749.4 759.9,749.5 765.2,749.6 770.6,749.7 775.9,749.8 781.2,749.9 786.3,749.8 791.4,749.4 796.4,748.6 801.3,747.6 806.2,746.2 811.0,744.5 815.7,742.5 820.2,740.1 824.5,737.5 828.7,734.7 832.7,731.5 836.4,728.1 840.0,724.5 843.3,720.6 846.3,716.5 849.1,712.2 851.8,707.7 854.5,703.1 857.3,698.6 860.0,694.0 862.8,689.4 865.5,684.8 868.3,680.3 871.0,675.7 873.8,671.1 876.5,666.5 879.7,662.0 883.4,657.9 887.7,654.3 892.3,651.3 897.4,648.9 902.5,647.2 906.8,645.8 910.7,643.8 914.3,641.3 917.4,638.2 920.0,634.7 922.0,630.8 923.4,626.7 924.2,622.3 924.8,617.1 925.3,611.9 925.9,606.6 926.4,601.3 927.0,596.0 927.6,590.8 928.1,585.5 928.7,580.2 929.2,575.0 929.8,569.7 930.3,564.4 930.9,559.2 931.4,553.9 932.0,548.6 932.5,543.4 933.1,538.1 933.6,532.8 934.2,527.5 934.8,522.3 935.3,517.0 935.9,511.7 936.4,506.5 937.0,501.2 937.5,495.9 938.1,490.7 938.6,485.4 939.2,480.1 939.7,474.9 940.3,469.6 940.8,464.3 941.4,459.0 942.0,453.8 942.5,448.5 943.1,443.2 943.6,438.0 944.2,432.7 944.7,427.4 945.3,422.2 945.8,416.9 946.4,411.6 946.9,406.3 947.5,401.1 948.0,395.8 948.6,390.5 949.2,385.3 949.7,380.0 950.3,374.7 950.8,369.5 951.4,364.2 951.9,358.9 952.5,353.7 953.0,348.4 953.6,343.1 954.1,337.8 954.7,332.6 955.2,327.3 955.8,322.0 956.4,316.8 956.9,311.5 957.5,306.2 958.0,301.0 958.6,295.7 959.1,290.4 959.7,285.2 960.2,279.9 960.8,274.6 961.3,269.3 961.9,264.1 962.4,258.8 963.0,253.5 963.6,248.3 964.1,243.0 964.7,237.7 965.2,232.5 965.8,227.2 966.3,221.9 966.9,216.7 967.4,211.4 968.0,206.1 968.5,200.8 969.1,195.6 969.6,190.3 970.2,185.0 970.8,179.8 971.3,174.5 971.9,169.2 972.4,164.0 973.0,158.7 973.5,153.4 974.1,148.2 974.6,143.0 974.8,137.9 974.2,133.0 972.9,128.3 970.9,123.7 968.2,119.6 964.9,115.9 961.2,112.7 957.0,110.1 952.4,108.1 947.6,106.9 942.7,106.3 937.8,106.6 932.9,107.5 928.2,109.2 923.4,111.3 918.6,113.5 913.8,115.6 909.0,117.8 904.1,119.9 899.3,122.1 894.5,124.2 889.7,126.4 884.8,128.5 880.0,130.7 875.2,132.8 870.4,135.0 865.5,137.1 860.7,139.3 855.9,141.4 851.0,143.6 846.2,145.7 841.4,147.9 836.6,150.0 831.7,152.2 826.9,154.3 822.1,156.5 817.3,158.6 812.4,160.8 807.6,162.9 802.8,165.1 798.0,167.2 793.1,169.4 788.3,171.5 783.5,173.7 778.7,175.8 773.8,178.0 769.0,180.1 764.2,182.3 759.3,184.4 754.5,186.5 749.7,188.7 744.9,190.8 740.0,193.0 735.2,195.1 730.4,197.3 725.6,199.4 720.7,201.6 715.9,203.7 711.1,205.9 706.3,208.0 701.4,210.2 696.6,212.3 691.8,214.5 687.0,216.6 682.1,218.8 677.3,220.9 672.5,223.1 667.7,225.2 662.8,227.4 658.0,229.5 653.2,231.7 648.3,233.8 643.5,236.0 638.7,238.1 633.9,240.3 629.0,242.4 624.2,244.6 619.4,246.7 614.6,248.9 609.7,251.0 604.9,253.2 600.1,255.3 595.3,257.5 590.4,259.6 585.6,261.8 580.8,263.9 576.0,266.1 571.1,268.2 566.3,270.4 561.5,272.5 556.6,274.6 551.8,276.8 547.0,278.9 542.2,281.1 537.3,283.2 532.5,285.4 527.7,287.5 522.9,289.7 518.0,291.8 513.2,294.0 508.4,296.1 503.6,298.3 498.7,300.4 493.9,302.6 489.1,304.7 484.3,306.9 479.4,309.0 474.6,311.2 469.8,313.3 464.9,315.5 460.1,317.6 455.3,319.8 450.5,321.9 445.7,324.0 441.3,326.2 437.2,328.7 433.3,331.6 429.7,334.8 426.4,338.3 423.4,342.1 420.7,346.1 418.4,350.5 415.7,355.2 412.5,359.8 408.7,364.0 404.6,367.8 400.0,371.1 395.2,373.8 390.0,376.0 384.8,377.7 380.0,379.1 375.5,381.0 371.2,383.2 367.1,385.9 363.3,389.0 359.8,392.4 356.6,396.1 353.8,400.1 351.4,404.4 349.4,408.9 347.3,413.8 344.8,418.6 341.9,423.2 338.7,427.6 335.1,431.7 331.2,435.4 327.0,438.9 322.6,442.1 317.9,444.8 313.1,447.2 308.5,449.3 303.9,451.3 299.3,453.3 294.8,455.4 290.2,457.4 285.6,459.4 281.1,461.5 276.5,463.5 272.0,465.7 267.6,468.1 263.4,470.7 259.4,473.6 255.5,476.7 251.8,480.1 248.3,483.6 245.1,487.4 242.0,491.3 239.2,495.4 236.6,499.6 234.2,504.0 232.2,508.5 230.3,513.2 228.8,517.9 227.5,522.7 226.5,527.6 225.8,532.5 225.4,537.5 225.2,542.5 225.2,547.8 225.2,553.1 225.2,558.4 225.2,563.8 225.2,569.1 225.2,574.4 225.2,579.8 225.2,585.1 225.2,590.4 225.2,595.8 225.2,601.1 225.2,606.4 225.2,611.8 225.2,617.1 225.2,622.4 225.2,627.8 225.2,633.1 225.2,638.4 225.2,643.8 225.2,649.1 225.2,654.4 225.2,659.8 225.2,665.1 225.2,670.4 225.2,675.8 " fill="#2d2d44" stroke="none"/>
  <polyline points="220.2,675.8 220.2,670.4 220.2,665.1 220.2,659.8 220.2,654.4 220.2,649.1 220.2,643.8 220.2,638.4 220.2,633.1 220.2,627.8 220.2,622.4 220.2,617.1 220.2,611.8 220.2,606.4 220.2,601.1 220.2,595.8 220.2,590.4 220.2,585.1 220.2,579.8 220.2,574.4 220.2,569.1 220.2,563.8 220.2,558.4 220.2,553.1 220.2,547.8 220.2,542.4 220.4,537.2 220.8,531.9 221.6,526.7 222.6,521.6 224.0,516.5 225.6,511.5 227.5,506.6 229.8,501.8 232.2,497.1 235.0,492.7 238.0,488.3 241.2,484.2 244.7,480.2 248.4,476.5 252.3,472.9 256.4,469.6 260.6,466.6 265.1,463.8 269.7,461.2 274.4,458.9 279.0,456.9 283.6,454.9 288.2,452.8 292.7,450.8 297.3,448.8 301.9,446.7 306.4,444.7 310.9,442.7 315.5,440.4 319.8,437.9 324.0,434.9 327.8,431.7 331.4,428.2 334.8,424.4 337.8,420.4 340.5,416.1 342.8,411.7 344.9,406.9 347.0,402.1 349.6,397.4 352.6,393.0 356.1,388.9 359.9,385.2 364.1,381.8 368.6,378.9 373.4,376.4 378.3,374.4 383.3,372.9 388.3,371.4 392.9,369.3 397.3,366.8 401.4,363.9 405.2,360.5 408.5,356.7 411.5,352.6 414.0,348.0 416.4,343.5 419.3,339.1 422.6,335.0 426.2,331.2 430.2,327.7 434.4,324.6 438.9,321.8 443.6,319.5 448.4,317.3 453.3,315.2 458.1,313.1 462.9,310.9 467.7,308.8 472.6,306.6 477.4,304.5 482.2,302.3 487.0,300.2 491.9,298.0 496.7,295.9 501.5,293.7 506.3,291.6 511.2,289.4 516.0,287.3 520.8,285.1 525.7,283.0 530.5,280.8 535.3,278.7 540.1,276.5 545.0,274.4 549.8,272.2 554.6,270.1 559.4,267.9 564.3,265.8 569.1,263.6 573.9,261.5 578.7,259.3 583.6,257.2 588.4,255.0 593.2,252.9 598.0,250.7 602.9,248.6 607.7,246.4 612.5,244.3 617.4,242.1 622.2,240.0 627.0,237.8 631.8,235.7 636.7,233.5 641.5,231.4 646.3,229.2 651.1,227.1 656.0,225.0 660.8,222.8 665.6,220.7 670.4,218.5 675.3,216.4 680.1,214.2 684.9,212.1 689.7,209.9 694.6,207.8 699.4,205.6 704.2,203.5 709.0,201.3 713.9,199.2 718.7,197.0 723.5,194.9 728.4,192.7 733.2,190.6 738.0,188.4 742.8,186.3 747.7,184.1 752.5,182.0 757.3,179.8 762.1,177.7 767.0,175.5 771.8,173.4 776.6,171.2 781.4,169.1 786.3,166.9 791.1,164.8 795.9,162.6 800.7,160.5 805.6,158.3 810.4,156.2 815.2,154.0 820.1,151.9 824.9,149.7 829.7,147.6 834.5,145.4 839.4,143.3 844.2,141.1 849.0,139.0 853.8,136.9 858.7,134.7 863.5,132.6 868.3,130.4 873.1,128.3 878.0,126.1 882.8,124.0 887.6,121.8 892.4,119.7 897.3,117.5 902.1,115.4 906.9,113.2 911.8,111.1 916.6,108.9 921.4,106.8 926.3,104.6 931.6,102.7 937.2,101.6 942.9,101.3 948.5,101.9 954.0,103.4 959.3,105.6 964.1,108.6 968.5,112.3 972.2,116.6 975.3,121.4 977.6,126.6 979.1,132.1 979.8,137.7 979.6,143.3 979.1,148.7 978.5,153.9 977.9,159.2 977.4,164.5 976.8,169.8 976.3,175.0 975.7,180.3 975.2,185.6 974.6,190.8 974.1,196.1 973.5,201.4 973.0,206.6 972.4,211.9 971.9,217.2 971.3,222.4 970.7,227.7 970.2,233.0 969.6,238.3 969.1,243.5 968.5,248.8 968.0,254.1 967.4,259.3 966.9,264.6 966.3,269.9 965.8,275.1 965.2,280.4 964.7,285.7 964.1,290.9 963.5,296.2 963.0,301.5 962.4,306.8 961.9,312.0 961.3,317.3 960.8,322.6 960.2,327.8 959.7,333.1 959.1,338.4 958.6,343.6 958.0,348.9 957.5,354.2 956.9,359.4 956.3,364.7 955.8,370.0 955.2,375.3 954.7,380.5 954.1,385.8 953.6,391.1 953.0,396.3 952.5,401.6 951.9,406.9 951.4,412.1 950.8,417.4 950.3,422.7 949.7,428.0 949.1,433.2 948.6,438.5 948.0,443.8 947.5,449.0 946.9,454.3 946.4,459.6 945.8,464.8 945.3,470.1 944.7,475.4 944.2,480.6 943.6,485.9 943.1,491.2 942.5,496.5 941.9,501.7 941.4,507.0 940.8,512.3 940.3,517.5 939.7,522.8 939.2,528.1 938.6,533.3 938.1,538.6 937.5,543.9 937.0,549.1 936.4,554.4 935.9,559.7 935.3,565.0 934.7,570.2 934.2,575.5 933.6,580.8 933.1,586.0 932.5,591.3 932.0,596.6 931.4,601.8 930.9,607.1 930.3,612.4 929.8,617.6 929.2,623.0 928.3,628.0 926.6,632.8 924.2,637.4 921.1,641.5 917.5,645.1 913.3,648.1 908.8,650.4 904.1,652.0 899.2,653.5 894.8,655.6 890.6,658.3 886.9,661.5 883.6,665.1 880.8,669.2 878.1,673.7 875.3,678.3 872.6,682.8 869.8,687.4 867.1,692.0 864.3,696.6 861.6,701.1 858.8,705.7 856.1,710.3 853.3,714.9 850.4,719.4 847.2,723.7 843.7,727.8 839.9,731.7 835.9,735.3 831.7,738.7 827.2,741.8 822.6,744.5 817.8,747.0 812.8,749.1 807.7,750.9 802.6,752.4 797.3,753.6 791.9,754.3 786.5,754.8 781.2,754.9 775.8,754.8 770.5,754.7 765.2,754.6 759.8,754.5 754.5,754.4 749.6,754.5 744.7,755.0 739.9,755.8 735.1,757.0 730.5,758.6 726.0,760.5 721.6,762.8 717.4,765.4 713.1,768.3 708.6,771.3 704.2,774.3 699.8,777.3 695.4,780.3 690.9,783.3 686.5,786.2 682.1,789.2 677.7,792.2 673.1,795.3 668.1,797.7 662.4,798.7 656.7,798.0 651.4,795.8 646.9,792.1 643.7,787.4 641.9,781.9 641.6,776.5 641.5,771.6 640.2,767.2 637.8,763.3 634.5,760.2 630.5,758.0 626.0,756.9 621.4,757.0 617.0,758.3 613.0,760.8 609.0,764.1 604.9,767.4 600.7,770.8 596.6,774.1 592.4,777.5 588.3,780.5 583.8,782.9 579.1,784.8 574.1,786.1 569.1,786.8 564.0,786.9 558.9,786.4 554.0,785.3 548.8,783.9 543.7,782.4 538.7,781.0 533.6,779.5 528.5,778.0 523.4,776.6 518.3,775.1 513.2,773.7 508.1,772.2 503.0,770.7 497.9,769.3 492.8,767.8 487.7,766.4 482.7,764.9 477.6,763.4 472.5,762.0 467.4,760.5 462.3,759.1 457.2,757.6 452.1,756.1 447.0,754.7 441.9,753.2 436.8,751.8 431.7,750.3 426.7,748.8 421.6,747.4 416.5,745.9 411.4,744.5 406.3,743.0 401.2,741.5 396.1,740.1 391.0,738.6 385.9,737.2 380.8,735.7 375.7,734.2 370.7,732.8 365.6,731.3 360.5,729.9 355.4,728.4 350.3,726.9 345.2,725.5 340.1,724.0 335.0,722.6 329.9,721.1 324.8,719.6 319.7,718.2 314.7,716.7 310.1,715.8 305.5,715.5 300.8,716.0 296.3,717.1 292.1,718.9 288.1,721.4 284.5,724.4 281.5,727.9 279.0,731.8 277.1,736.0 275.8,740.7 274.2,745.7 271.5,750.4 267.8,754.4 263.3,757.6 258.3,759.6 252.9,760.5 247.5,760.2 242.2,758.7 237.4,756.1 233.3,752.6 230.1,748.2 227.5,743.3 225.3,738.2 223.5,733.0 222.1,727.7 221.0,722.3 220.4,716.8 220.2,711.4 220.2,706.3 220.2,701.2 220.2,696.1 220.2,691.0 220.2,685.9 220.2,680.9 220.2,675.8 220.2,675.8 " fill="none" stroke="#555555" stroke-width="1.00"/>
  <polyline points="225.2,675.8 225.2,670.4 225.2,665.1 225.2,659.8 225.2,654.4 225.2,649.1 225.2,643.8 225.2,638.4 225.2,633.1 225.2,627.8 225.2,622.4 225.2,617.1 225.2,611.8 225.2,606.4 225.2,601.1 225.2,595.8 225.2,590.4 225.2,585.1 225.2,579.8 225.2,574.4 225.2,569.1 225.2,563.8 225.2,558.4 225.2,553.1 225.2,547.8 225.2,542.5 225.4,537.5 225.8,532.5 226.5,527.6 227.5,522.7 228.8,517.9 230.3,513.2 232.2,508.5 234.2,504.0 236.6,499.6 239.2,495.4 242.0,491.3 245.1,487.4 248.3,483.6 251.8,480.1 255.5,476.7 259.4,473.6 263.4,470.7 267.6,468.1 272.0,465.7 276.5,463.5 281.1,461.5 285.6,459.4 290.2,457.4 294.8,455.4 299.3,453.3 303.9,451.3 308.5,449.3 313.1,447.2 317.9,444.8 322.6,442.1 327.0,438.9 331.2,435.4 335.1,431.7 338.7,427.6 341.9,423.2 344.8,418.6 347.3,413.8 349.4,408.9 351.4,404.4 353.8,400.1 356.6,396.1 359.8,392.4 363.3,389.0 367.1,385.9 371.2,383.2 375.5,381.0 380.0,379.1 384.8,377.7 390.0,376.0 395.2,373.8 400.0,371.1 404.6,367.8 408.7,364.0 412.5,359.8 415.7,355.2 418.4,350.5 420.7,346.1 423.4,342.1 426.4,338.3 429.7,334.8 433.3,331.6 437.2,328.7 441.3,326.2 445.7,324.0 450.5,321.9 455.3,319.8 460.1,317.6 464.9,315.5 469.8,313.3 474.6,311.2 479.4,309.0 484.3,306.9 489.1,304.7 493.9,302.6 498.7,300.4 503.6,298.3 508.4,296.1 513.2,294.0 518.0,291.8 522.9,289.7 527.7,287.5 532.5,285.4 537.3,283.2 542.2,281.1 547.0,278.9 551.8,276.8 556.6,274.6 561.5,272.5 566.3,270.4 571.1,268.2 576.0,266.1 580.8,263.9 585.6,261.8 590.4,259.6 595.3,257.5 600.1,255.3 604.9,253.2 609.7,251.0 614.6,248.9 619.4,246.7 624.2,244.6 629.0,242.4 633.9,240.3 638.7,238.1 643.5,236.0 648.3,233.8 653.2,231.7 658.0,229.5 662.8,227.4 667.7,225.2 672.5,223.1 677.3,220.9 682.1,218.8 687.0,216.6 691.8,214.5 696.6,212.3 701.4,210.2 706.3,208.0 711.1,205.9 715.9,203.7 720.7,201.6 725.6,199.4 730.4,197.3 735.2,195.1 740.0,193.0 744.9,190.8 749.7,188.7 754.5,186.5 759.3,184.4 764.2,182.3 769.0,180.1 773.8,178.0 778.7,175.8 783.5,173.7 788.3,171.5 793.1,169.4 798.0,167.2 802.8,165.1 807.6,162.9 812.4,160.8 817.3,158.6 822.1,156.5 826.9,154.3 831.7,152.2 836.6,150.0 841.4,147.9 846.2,145.7 851.0,143.6 855.9,141.4 860.7,139.3 865.5,137.1 870.4,135.0 875.2,132.8 880.0,130.7 884.8,128.5 889.7,126.4 894.5,124.2 899.3,122.1 904.1,119.9 909.0,117.8 913.8,115.6 918.6,113.5 923.4,111.3 928.2,109.2 932.9,107.5 937.8,106.6 942.7,106.3 947.6,106.9 952.4,108.1 957.0,110.1 961.2,112.7 964.9,115.9 968.2,119.6 970.9,123.7 972.9,128.3 974.2,133.0 974.8,137.9 974.6,143.0 974.1,148.2 973.5,153.4 973.0,158.7 972.4,164.0 971.9,169.2 971.3,174.5 970.8,179.8 970.2,185.0 969.6,190.3 969.1,195.6 968.5,200.8 968.0,206.1 967.4,211.4 966.9,216.7 966.3,221.9 965.8,227.2 965.2,232.5 964.7,237.7 964.1,243.0 963.6,248.3 963.0,253.5 962.4,258.8 961.9,264.1 961.3,269.3 960.8,274.6 960.2,279.9 959.7,285.2 959.1,290.4 958.6,295.7 958.0,301.0 957.5,306.2 956.9,311.5 956.4,316.8 955.8,322.0 955.2,327.3 954.7,332.6 954.1,337.8 953.6,343.1 953.0,348.4 952.5,353.7 951.9,358.9 951.4,364.2 950.8,369.5 950.3,374.7 949.7,380.0 949.2,385.3 948.6,390.5 948.0,395.8 947.5,401.1 946.9,406.3 946.4,411.6 945.8,416.9 945.3,422.2 944.7,427.4 944.2,432.7 943.6,438.0 943.1,443.2 942.5,448.5 942.0,453.8 941.4,459.0 940.8,464.3 940.3,469.6 939.7,474.9 939.2,480.1 938.6,485.4 938.1,490.7 937.5,495.9 937.0,501.2 936.4,506.5 935.9,511.7 935.3,517.0 934.8,522.3 934.2,527.5 933.6,532.8 933.1,538.1 932.5,543.4 932.0,548.6 931.4,553.9 930.9,559.2 930.3,564.4 929.8,569.7 929.2,575.0 928.7,580.2 928.1,585.5 927.6,590.8 927.0,596.0 926.4,601.3 925.9,606.6 925.3,611.9 924.8,617.1 924.2,622.3 923.4,626.7 922.0,630.8 920.0,634.7 917.4,638.2 914.3,641.3 910.7,643.8 906.8,645.8 902.5,647.2 897.4,648.9 892.3,651.3 887.7,654.3 883.4,657.9 879.7,662.0 876.5,666.5 873.8,671.1 871.0,675.7 868.3,680.3 865.5,684.8 862.8,689.4 860.0,694.0 857.3,698.6 854.5,703.1 851.8,707.7 849.1,712.2 846.3,716.5 843.3,720.6 840.0,724.5 836.4,728.1 832.7,731.5 828.7,734.7 824.5,737.5 820.2,740.1 815.7,742.5 811.0,744.5 806.2,746.2 801.3,747.6 796.4,748.6 791.4,749.4 786.3,749.8 781.2,749.9 775.9,749.8 770.6,749.7 765.2,749.6 759.9,749.5 754.5,749.4 749.3,749.5 744.0,750.0 738.8,750.9 733.7,752.2 728.7,753.9 723.8,756.0 719.2,758.4 714.7,761.2 710.3,764.2 705.8,767.2 701.4,770.2 697.0,773.1 692.6,776.1 688.1,779.1 683.7,782.1 679.3,785.1 674.9,788.1 670.6,790.9 666.6,792.9 662.3,793.7 658.0,793.2 654.0,791.5 650.6,788.7 648.2,785.2 646.8,781.0 646.6,776.4 646.5,770.8 644.8,765.2 641.7,760.2 637.5,756.1 632.3,753.3 626.5,751.9 620.7,752.1 615.0,753.7 610.1,756.7 605.8,760.2 601.7,763.5 597.6,766.9 593.4,770.3 589.3,773.6 585.6,776.2 581.7,778.4 577.5,780.1 573.1,781.2 568.7,781.8 564.2,781.9 559.7,781.5 555.2,780.5 550.2,779.1 545.1,777.6 540.0,776.1 534.9,774.7 529.9,773.2 524.8,771.8 519.7,770.3 514.6,768.8 509.5,767.4 504.4,765.9 499.3,764.5 494.2,763.0 489.1,761.5 484.0,760.1 478.9,758.6 473.9,757.2 468.8,755.7 463.7,754.2 458.6,752.8 453.5,751.3 448.4,749.9 443.3,748.4 438.2,746.9 433.1,745.5 428.0,744.0 422.9,742.6 417.9,741.1 412.8,739.6 407.7,738.2 402.6,736.7 397.5,735.3 392.4,733.8 387.3,732.3 382.2,730.9 377.1,729.4 372.0,728.0 366.9,726.5 361.9,725.0 356.8,723.6 351.7,722.1 346.6,720.7 341.5,719.2 336.4,717.7 331.3,716.3 326.2,714.8 321.1,713.4 315.9,711.9 310.7,710.8 305.4,710.5 300.0,711.1 294.7,712.4 289.8,714.5 285.2,717.3 281.0,720.8 277.5,724.8 274.6,729.4 272.4,734.3 271.0,739.3 269.6,743.7 267.5,747.5 264.5,750.7 261.0,753.2 256.9,754.8 252.6,755.5 248.3,755.3 244.1,754.1 240.3,752.0 237.0,749.2 234.4,745.6 232.0,741.1 230.0,736.4 228.3,731.6 226.9,726.6 226.0,721.6 225.4,716.5 225.2,711.3 225.2,706.3 225.2,701.2 225.2,696.1 225.2,691.0 225.2,685.9 225.2,680.9 225.2,675.8 225.2,675.8 " fill="none" stroke="#555555" stroke-width="1.00"/>
  <line x1="222.7" y1="675.8" x2="222.7" y2="670.4" stroke="#00ff03" stroke-width="2.50" stroke-linecap="round"/>
  <line x1="222.7" y1="670.4" x2="222.7" y2="665.1" stroke="#10ff00" stroke-width="2.50" stroke-linecap="round"/>
  <line x1="222.7" y1="665.1" x2="222.7" y2="659.8" stroke="#21ff00" stroke-width="2.50" stroke-linecap="round"/>
  <line x1="222.7" y1="659.8" x2="222.7" y2="654.4" stroke="#32ff00" stroke-width="2.50" stroke-linecap="round"/>
  <line x1="222.7" y1="654.4" x2="222.7" y2="649.1" stroke="#42ff00" stroke-width="2.50" stroke-linecap="round"/>
  <line x1="222.7" y1="649.1" x2="222.7" y2="643.8" stroke="#51ff00" stroke-width="2.50" stroke-linecap="round"/>
  <line x1="222.7" y1="643.8" x2="222.7" y2="638.4" stroke="#60ff00" stroke-width="2.50" stroke-linecap="round"/>
  <line x1="222.7" y1="638.4" x2="222.7" y2="633.1" stroke="#6eff00" stroke-width="2.50" stroke-linecap="round"/>
  <line x1="222.7" y1="633.1" x2="222.7" y2="627.8" stroke="#7cff00" stroke-width="2.50" stroke-linecap="round"/>
  <line x1="222.7" y1="627.8" x2="222.7" y2="622.4" stroke="#88ff00" stroke-width="2.50" stroke-linecap="round"/>
  <line x1="222.7" y1="622.4" x2="222.7" y2="617.1" stroke="#95ff00" stroke-width="2.50" stroke-linecap="round"/>
  <line x1="222.7" y1="617.1" x2="222.7" y2="611.8" stroke="#a1ff00" stroke-width="2.50" stroke-linecap="round"/>
  <line x1="222.7" y1="611.8" x2="222.7" y2="606.4" stroke="#acff00" stroke-width="2.50" stroke-linecap="round"/>
  <line x1="222.7" y1="606.4" x2="222.7" y2="601.1" stroke="#b7ff00" stroke-width="2.50" stroke-linecap="round"/>
  <line x1="222.7" y1="601.1" x2="222.7" y2="595.8" stroke="#c2ff00" stroke-width="2.50" stroke-linecap="round"/>
  <line x1="222.7" y1="595.8" x2="222.7" y2="590.4" stroke="#ccff00" stroke-width="2.50" stroke-linecap="round"/>
  <line x1="222.7" y1="590.4" x2="222.7" y2="585.1" stroke="#d6ff00" stroke-width="2.50" stroke-linecap="round"/>
  <line x1="222.7" y1="585.1" x2="222.7" y2="579.8" stroke="#e0ff00" stroke-width="2.50" stroke-linecap="round"/>
  <line x1="222.7" y1="579.8" x2="222.7" y2="574.4" stroke="#e9ff00" stroke-width="2.50" stroke-linecap="round"/>
  <line x1="222.7" y1="574.4" x2="222.7" y2="569.1" stroke="#f2ff00" stroke-width="2.50" stroke-linecap="round"/>
  <line x1="222.7" y1="569.1" x2="222.7" y2="563.8" stroke="#fbff00" stroke-width="2.50" stroke-linecap="round"/>
  <line x1="222.7" y1="563.8" x2="222.7" y2="558.4" stroke="#fffb00" stroke-width="2.50" stroke-linecap="round"/>
  <line x1="222.7" y1="558.4" x2="222.7" y2="553.1" stroke="#fff300" stroke-width="2.50" stroke-linecap="round"/>
  <line x1="222.7" y1="553.1" x2="222.7" y2="547.8" stroke="#ffeb00" stroke-width="2.50" stroke-linecap="round"/>
  <line x1="222.7" y1="547.8" x2="222.7" y2="542.4" stroke="#ffe400" stroke-width="2.50" stroke-linecap="round"/>
  <line x1="222.7" y1="542.4" x2="222.9" y2="537.3" stroke="#ffdd00" stroke-width="2.50" stroke-linecap="round"/>
  <line x1="222.9" y1="537.3" x2="223.3" y2="532.2" stroke="#ffd600" stroke-width="2.50" stroke-linecap="round"/>
  <line x1="223.3" y1="532.2" x2="224.0" y2="527.2" stroke="#ffcf00" stroke-width="2.50" stroke-linecap="round"/>
  <line x1="224.0" y1="527.2" x2="225.1" y2="522.1" stroke="#ffc900" stroke-width="2.50" stroke-linecap="round"/>
  <line x1="225.1" y1="522.1" x2="226.4" y2="517.2" stroke="#ffc300" stroke-width="2.50" stroke-linecap="round"/>
  <line x1="226.4" y1="517.2" x2="228.0" y2="512.3" stroke="#ffbd00" stroke-width="2.50" stroke-linecap="round"/>
  <line x1="228.0" y1="512.3" x2="229.8" y2="507.6" stroke="#ffb700" stroke-width="2.50" stroke-linecap="round"/>
  <line x1="229.8" y1="507.6" x2="232.0" y2="502.9" stroke="#ffb200" stroke-width="2.50" stroke-linecap="round"/>
  <line x1="232.0" y1="502.9" x2="234.4" y2="498.4" stroke="#ffac00" stroke-width="2.50" stroke-linecap="round"/>
  <line x1="234.4" y1="498.4" x2="237.1" y2="494.0" stroke="#ffa700" stroke-width="2.50" stroke-linecap="round"/>
  <line x1="237.1" y1="494.0" x2="240.0" y2="489.8" stroke="#ffa200" stroke-width="2.50" stroke-linecap="round"/>
  <line x1="240.0" y1="489.8" x2="243.1" y2="485.8" stroke="#ff9d00" stroke-width="2.50" stroke-linecap="round"/>
  <line x1="243.1" y1="485.8" x2="246.5" y2="481.9" stroke="#ff9800" stroke-width="2.50" stroke-linecap="round"/>
  <line x1="246.5" y1="481.9" x2="250.1" y2="478.3" stroke="#ff9300" stroke-width="2.50" stroke-linecap="round"/>
  <line x1="250.1" y1="478.3" x2="253.9" y2="474.8" stroke="#ff8f00" stroke-width="2.50" stroke-linecap="round"/>
  <line x1="253.9" y1="474.8" x2="257.9" y2="471.6" stroke="#ff8a00" stroke-width="2.50" stroke-linecap="round"/>
  <line x1="257.9" y1="471.6" x2="262.0" y2="468.6" stroke="#ff8600" stroke-width="2.50" stroke-linecap="round"/>
  <line x1="262.0" y1="468.6" x2="266.4" y2="465.9" stroke="#ff8200" stroke-width="2.50" stroke-linecap="round"/>
  <line x1="266.4" y1="465.9" x2="270.9" y2="463.4" stroke="#ff7e00" stroke-width="2.50" stroke-linecap="round"/>
  <line x1="270.9" y1="463.4" x2="275.5" y2="461.2" stroke="#ff7a00" stroke-width="2.50" stroke-linecap="round"/>
  <line x1="275.5" y1="461.2" x2="280.0" y2="459.2" stroke="#ff7600" stroke-width="2.50" stroke-linecap="round"/>
  <line x1="280.0" y1="459.2" x2="284.6" y2="457.1" stroke="#ff7300" stroke-width="2.50" stroke-linecap="round"/>
  <line x1="284.6" y1="457.1" x2="289.2" y2="455.1" stroke="#ff6f00" stroke-width="2.50" stroke-linecap="round"/>
  <line x1="289.2" y1="455.1" x2="293.7" y2="453.1" stroke="#ff6c00" stroke-width="2.50" stroke-linecap="round"/>
  <line x1="293.7" y1="453.1" x2="298.3" y2="451.0" stroke="#ff6800" stroke-width="2.50" stroke-linecap="round"/>
  <line x1="298.3" y1="451.0" x2="302.9" y2="449.0" stroke="#ff6500" stroke-width="2.50" stroke-linecap="round"/>
  <line x1="302.9" y1="449.0" x2="307.4" y2="447.0" stroke="#ff6200" stroke-width="2.50" stroke-linecap="round"/>
  <line x1="307.4" y1="447.0" x2="312.0" y2="444.9" stroke="#ff5f00" stroke-width="2.50" stroke-linecap="round"/>
  <line x1="312.0" y1="444.9" x2="316.7" y2="442.6" stroke="#ff5c00" stroke-width="2.50" stroke-linecap="round"/>
  <line x1="316.7" y1="442.6" x2="321.2" y2="440.0" stroke="#ff5900" stroke-width="2.50" stroke-linecap="round"/>
  <line x1="321.2" y1="440.0" x2="325.5" y2="436.9" stroke="#ff5600" stroke-width="2.50" stroke-linecap="round"/>
  <line x1="325.5" y1="436.9" x2="329.5" y2="433.6" stroke="#ff5300" stroke-width="2.50" stroke-linecap="round"/>
  <line x1="329.5" y1="433.6" x2="333.3" y2="429.9" stroke="#ff5000" stroke-width="2.50" stroke-linecap="round"/>
  <line x1="333.3" y1="429.9" x2="336.7" y2="426.0" stroke="#ff4e00" stroke-width="2.50" stroke-linecap="round"/>
  <line x1="336.7" y1="426.0" x2="339.8" y2="421.8" stroke="#ff4b00" stroke-width="2.50" stroke-linecap="round"/>
  <line x1="339.8" y1="421.8" x2="342.6" y2="417.4" stroke="#ff4900" stroke-width="2.50" stroke-linecap="round"/>
  <line x1="342.6" y1="417.4" x2="345.1" y2="412.7" stroke="#ff4600" stroke-width="2.50" stroke-linecap="round"/>
  <line x1="345.1" y1="412.7" x2="347.1" y2="407.9" stroke="#ff4400" stroke-width="2.50" stroke-linecap="round"/>
  <line x1="347.1" y1="407.9" x2="349.2" y2="403.2" stroke="#ff4100" stroke-width="2.50" stroke-linecap="round"/>
  <line x1="349.2" y1="403.2" x2="351.7" y2="398.8" stroke="#ff3f00" stroke-width="2.50" stroke-linecap="round"/>
  <line x1="351.7" y1="398.8" x2="354.6" y2="394.6" stroke="#ff3d00" stroke-width="2.50" stroke-linecap="round"/>
  <line x1="354.6" y1="394.6" x2="357.9" y2="390.7" stroke="#ff3b00" stroke-width="2.50" stroke-linecap="round"/>
  <line x1="357.9" y1="390.7" x2="361.6" y2="387.1" stroke="#ff3900" stroke-width="2.50" stroke-linecap="round"/>
  <line x1="361.6" y1="387.1" x2="365.6" y2="383.9" stroke="#ff3700" stroke-width="2.50" stroke-linecap="round"/>
  <line x1="365.6" y1="383.9" x2="369.9" y2="381.1" stroke="#ff3500" stroke-width="2.50" stroke-linecap="round"/>
  <line x1="369.9" y1="381.1" x2="374.4" y2="378.7" stroke="#ff3300" stroke-width="2.50" stroke-linecap="round"/>
  <line x1="374.4" y1="378.7" x2="379.1" y2="376.7" stroke="#ff4500" stroke-width="2.50" stroke-linecap="round"/>
  <line x1="379.1" y1="376.7" x2="384.1" y2="375.3" stroke="#ff7b00" stroke-width="2.50" stroke-linecap="round"/>
  <line x1="384.1" y1="375.3" x2="389.1" y2="373.7" stroke="#ffb100" stroke-width="2.50" stroke-linecap="round"/>
  <line x1="389.1" y1="373.7" x2="394.0" y2="371.6" stroke="#ffec00" stroke-width="2.50" stroke-linecap="round"/>
  <line x1="394.0" y1="371.6" x2="398.7" y2="368.9" stroke="#fffa00" stroke-width="2.50" stroke-linecap="round"/>
  <line x1="398.7" y1="368.9" x2="403.0" y2="365.8" stroke="#f5ff00" stroke-width="2.50" stroke-linecap="round"/>
  <line x1="403.0" y1="365.8" x2="407.0" y2="362.2" stroke="#f2ff00" stroke-width="2.50" stroke-linecap="round"/>
  <line x1="407.0" y1="362.2" x2="410.5" y2="358.3" stroke="#f0ff00" stroke-width="2.50" stroke-linecap="round"/>
  <line x1="410.5" y1="358.3" x2="413.6" y2="353.9" stroke="#efff00" stroke-width="2.50" stroke-linecap="round"/>
  <line x1="413.6" y1="353.9" x2="416.2" y2="349.2" stroke="#eeff00" stroke-width="2.50" stroke-linecap="round"/>
  <line x1="416.2" y1="349.2" x2="418.6" y2="344.8" stroke="#f7ff00" stroke-width="2.50" stroke-linecap="round"/>
  <line x1="418.6" y1="344.8" x2="421.4" y2="340.6" stroke="#ffff00" stroke-width="2.50" stroke-linecap="round"/>
  <line x1="421.4" y1="340.6" x2="424.5" y2="336.7" stroke="#fff700" stroke-width="2.50" stroke-linecap="round"/>
  <line x1="424.5" y1="336.7" x2="428.0" y2="333.0" stroke="#fff000" stroke-width="2.50" stroke-linecap="round"/>
  <line x1="428.0" y1="333.0" x2="431.8" y2="329.7" stroke="#ffe800" stroke-width="2.50" stroke-linecap="round"/>
  <line x1="431.8" y1="329.7" x2="435.8" y2="326.7" stroke="#ffe100" stroke-width="2.50" stroke-linecap="round"/>
  <line x1="435.8" y1="326.7" x2="440.1" y2="324.0" stroke="#ffdb00" stroke-width="2.50" stroke-linecap="round"/>
  <line x1="440.1" y1="324.0" x2="444.6" y2="321.8" stroke="#ffd400" stroke-width="2.50" stroke-linecap="round"/>
  <line x1="444.6" y1="321.8" x2="449.5" y2="319.6" stroke="#ffce00" stroke-width="2.50" stroke-linecap="round"/>
  <line x1="449.5" y1="319.6" x2="454.3" y2="317.5" stroke="#ffc700" stroke-width="2.50" stroke-linecap="round"/>
  <line x1="454.3" y1="317.5" x2="459.1" y2="315.3" stroke="#ffc100" stroke-width="2.50" stroke-linecap="round"/>
  <line x1="459.1" y1="315.3" x2="463.9" y2="313.2" stroke="#ffbb00" stroke-width="2.50" stroke-linecap="round"/>
  <line x1="463.9" y1="313.2" x2="468.8" y2="311.0" stroke="#ffb500" stroke-width="2.50" stroke-linecap="round"/>
  <line x1="468.8" y1="311.0" x2="473.6" y2="308.9" stroke="#ffaf00" stroke-width="2.50" stroke-linecap="round"/>
  <line x1="473.6" y1="308.9" x2="478.4" y2="306.7" stroke="#ffaa00" stroke-width="2.50" stroke-linecap="round"/>
  <line x1="478.4" y1="306.7" x2="483.2" y2="304.6" stroke="#ffa400" stroke-width="2.50" stroke-linecap="round"/>
  <line x1="483.2" y1="304.6" x2="488.1" y2="302.4" stroke="#ff9f00" stroke-width="2.50" stroke-linecap="round"/>
  <line x1="488.1" y1="302.4" x2="492.9" y2="300.3" stroke="#ff9a00" stroke-width="2.50" stroke-linecap="round"/>
  <line x1="492.9" y1="300.3" x2="497.7" y2="298.1" stroke="#ff9500" stroke-width="2.50" stroke-linecap="round"/>
  <line x1="497.7" y1="298.1" x2="502.5" y2="296.0" stroke="#ff9100" stroke-width="2.50" stroke-linecap="round"/>
  <line x1="502.5" y1="296.0" x2="507.4" y2="293.8" stroke="#ff8c00" stroke-width="2.50" stroke-linecap="round"/>
  <line x1="507.4" y1="293.8" x2="512.2" y2="291.7" stroke="#ff8800" stroke-width="2.50" stroke-linecap="round"/>
  <line x1="512.2" y1="291.7" x2="517.0" y2="289.6" stroke="#ff8300" stroke-width="2.50" stroke-linecap="round"/>
  <line x1="517.0" y1="289.6" x2="521.8" y2="287.4" stroke="#ff7f00" stroke-width="2.50" stroke-linecap="round"/>
  <line x1="521.8" y1="287.4" x2="526.7" y2="285.3" stroke="#ff7b00" stroke-width="2.50" stroke-linecap="round"/>
  <line x1="526.7" y1="285.3" x2="531.5" y2="283.1" stroke="#ff7700" stroke-width="2.50" stroke-linecap="round"/>
  <line x1="531.5" y1="283.1" x2="536.3" y2="281.0" stroke="#ff7300" stroke-width="2.50" stroke-linecap="round"/>
  <line x1="536.3" y1="281.0" x2="541.2" y2="278.8" stroke="#ff6f00" stroke-width="2.50" stroke-linecap="round"/>
  <line x1="541.2" y1="278.8" x2="546.0" y2="276.7" stroke="#ff6c00" stroke-width="2.50" stroke-linecap="round"/>
  <line x1="546.0" y1="276.7" x2="550.8" y2="274.5" stroke="#ff6800" stroke-width="2.50" stroke-linecap="round"/>
  <line x1="550.8" y1="274.5" x2="555.6" y2="272.4" stroke="#ff6500" stroke-width="2.50" stroke-linecap="round"/>
  <line x1="555.6" y1="272.4" x2="560.5" y2="270.2" stroke="#ff6200" stroke-width="2.50" stroke-linecap="round"/>
  <line x1="560.5" y1="270.2" x2="565.3" y2="268.1" stroke="#ff5e00" stroke-width="2.50" stroke-linecap="round"/>
  <line x1="565.3" y1="268.1" x2="570.1" y2="265.9" stroke="#ff5b00" stroke-width="2.50" stroke-linecap="round"/>
  <line x1="570.1" y1="265.9" x2="574.9" y2="263.8" stroke="#ff5800" stroke-width="2.50" stroke-linecap="round"/>
  <line x1="574.9" y1="263.8" x2="579.8" y2="261.6" stroke="#ff5500" stroke-width="2.50" stroke-linecap="round"/>
  <line x1="579.8" y1="261.6" x2="584.6" y2="259.5" stroke="#ff5200" stroke-width="2.50" stroke-linecap="round"/>
  <line x1="584.6" y1="259.5" x2="589.4" y2="257.3" stroke="#ff5000" stroke-width="2.50" stroke-linecap="round"/>
  <line x1="589.4" y1="257.3" x2="594.2" y2="255.2" stroke="#ff4d00" stroke-width="2.50" stroke-linecap="round"/>
  <line x1="594.2" y1="255.2" x2="599.1" y2="253.0" stroke="#ff4a00" stroke-width="2.50" stroke-linecap="round"/>
  <line x1="599.1" y1="253.0" x2="603.9" y2="250.9" stroke="#ff4800" stroke-width="2.50" stroke-linecap="round"/>
  <line x1="603.9" y1="250.9" x2="608.7" y2="248.7" stroke="#ff4500" stroke-width="2.50" stroke-linecap="round"/>
  <line x1="608.7" y1="248.7" x2="613.5" y2="246.6" stroke="#ff4300" stroke-width="2.50" stroke-linecap="round"/>
  <line x1="613.5" y1="246.6" x2="618.4" y2="244.4" stroke="#ff4100" stroke-width="2.50" stroke-linecap="round"/>
  <line x1="618.4" y1="244.4" x2="623.2" y2="242.3" stroke="#ff3e00" stroke-width="2.50" stroke-linecap="round"/>
  <line x1="623.2" y1="242.3" x2="628.0" y2="240.1" stroke="#ff3c00" stroke-width="2.50" stroke-linecap="round"/>
  <line x1="628.0" y1="240.1" x2="632.8" y2="238.0" stroke="#ff3a00" stroke-width="2.50" stroke-linecap="round"/>
  <line x1="632.8" y1="238.0" x2="637.7" y2="235.8" stroke="#ff3800" stroke-width="2.50" stroke-linecap="round"/>
  <line x1="637.7" y1="235.8" x2="642.5" y2="233.7" stroke="#ff3600" stroke-width="2.50" stroke-linecap="round"/>
  <line x1="642.5" y1="233.7" x2="647.3" y2="231.5" stroke="#ff3400" stroke-width="2.50" stroke-linecap="round"/>
  <line x1="647.3" y1="231.5" x2="652.2" y2="229.4" stroke="#ff3200" stroke-width="2.50" stroke-linecap="round"/>
  <line x1="652.2" y1="229.4" x2="657.0" y2="227.2" stroke="#ff3000" stroke-width="2.50" stroke-linecap="round"/>
  <line x1="657.0" y1="227.2" x2="661.8" y2="225.1" stroke="#ff2e00" stroke-width="2.50" stroke-linecap="round"/>
  <line x1="661.8" y1="225.1" x2="666.6" y2="222.9" stroke="#ff2c00" stroke-width="2.50" stroke-linecap="round"/>
  <line x1="666.6" y1="222.9" x2="671.5" y2="220.8" stroke="#ff2b00" stroke-width="2.50" stroke-linecap="round"/>
  <line x1="671.5" y1="220.8" x2="676.3" y2="218.6" stroke="#ff2900" stroke-width="2.50" stroke-linecap="round"/>
  <line x1="676.3" y1="218.6" x2="681.1" y2="216.5" stroke="#ff2700" stroke-width="2.50" stroke-linecap="round"/>
  <line x1="681.1" y1="216.5" x2="685.9" y2="214.3" stroke="#ff2600" stroke-width="2.50" stroke-linecap="round"/>
  <line x1="685.9" y1="214.3" x2="690.8" y2="212.2" stroke="#ff2400" stroke-width="2.50" stroke-linecap="round"/>
  <line x1="690.8" y1="212.2" x2="695.6" y2="210.0" stroke="#ff2300" stroke-width="2.50" stroke-linecap="round"/>
  <line x1="695.6" y1="210.0" x2="700.4" y2="207.9" stroke="#ff2100" stroke-width="2.50" stroke-linecap="round"/>
  <line x1="700.4" y1="207.9" x2="705.2" y2="205.8" stroke="#ff2000" stroke-width="2.50" stroke-linecap="round"/>
  <line x1="705.2" y1="205.8" x2="710.1" y2="203.6" stroke="#ff1f00" stroke-width="2.50" stroke-linecap="round"/>
  <line x1="710.1" y1="203.6" x2="714.9" y2="201.5" stroke="#ff1d00" stroke-width="2.50" stroke-linecap="round"/>
  <line x1="714.9" y1="201.5" x2="719.7" y2="199.3" stroke="#ff1c00" stroke-width="2.50" stroke-linecap="round"/>
  <line x1="719.7" y1="199.3" x2="724.5" y2="197.2" stroke="#ff1b00" stroke-width="2.50" stroke-linecap="round"/>
  <line x1="724.5" y1="197.2" x2="729.4" y2="195.0" stroke="#ff1900" stroke-width="2.50" stroke-linecap="round"/>
  <line x1="729.4" y1="195.0" x2="734.2" y2="192.9" stroke="#ff1800" stroke-width="2.50" stroke-linecap="round"/>
  <line x1="734.2" y1="192.9" x2="739.0" y2="190.7" stroke="#ff1700" stroke-width="2.50" stroke-linecap="round"/>
  <line x1="739.0" y1="190.7" x2="743.9" y2="188.6" stroke="#ff1600" stroke-width="2.50" stroke-linecap="round"/>
  <line x1="743.9" y1="188.6" x2="748.7" y2="186.4" stroke="#ff1500" stroke-width="2.50" stroke-linecap="round"/>
  <line x1="748.7" y1="186.4" x2="753.5" y2="184.3" stroke="#ff1400" stroke-width="2.50" stroke-linecap="round"/>
  <line x1="753.5" y1="184.3" x2="758.3" y2="182.1" stroke="#ff1300" stroke-width="2.50" stroke-linecap="round"/>
  <line x1="758.3" y1="182.1" x2="763.2" y2="180.0" stroke="#ff1200" stroke-width="2.50" stroke-linecap="round"/>
  <line x1="763.2" y1="180.0" x2="768.0" y2="177.8" stroke="#ff1100" stroke-width="2.50" stroke-linecap="round"/>
  <line x1="768.0" y1="177.8" x2="772.8" y2="175.7" stroke="#ff1000" stroke-width="2.50" stroke-linecap="round"/>
  <line x1="772.8" y1="175.7" x2="777.6" y2="173.5" stroke="#ff0f00" stroke-width="2.50" stroke-linecap="round"/>
  <line x1="777.6" y1="173.5" x2="782.5" y2="171.4" stroke="#ff0e00" stroke-width="2.50" stroke-linecap="round"/>
  <line x1="782.5" y1="171.4" x2="787.3" y2="169.2" stroke="#ff0d00" stroke-width="2.50" stroke-linecap="round"/>
  <line x1="787.3" y1="169.2" x2="792.1" y2="167.1" stroke="#ff0c00" stroke-width="2.50" stroke-linecap="round"/>
  <line x1="792.1" y1="167.1" x2="796.9" y2="164.9" stroke="#ff0b00" stroke-width="2.50" stroke-linecap="round"/>
  <line x1="796.9" y1="164.9" x2="801.8" y2="162.8" stroke="#ff0a00" stroke-width="2.50" stroke-linecap="round"/>
  <line x1="801.8" y1="162.8" x2="806.6" y2="160.6" stroke="#ff0a00" stroke-width="2.50" stroke-linecap="round"/>
  <line x1="806.6" y1="160.6" x2="811.4" y2="158.5" stroke="#ff0900" stroke-width="2.50" stroke-linecap="round"/>
  <line x1="811.4" y1="158.5" x2="816.2" y2="156.3" stroke="#ff0800" stroke-width="2.50" stroke-linecap="round"/>
  <line x1="816.2" y1="156.3" x2="821.1" y2="154.2" stroke="#ff0700" stroke-width="2.50" stroke-linecap="round"/>
  <line x1="821.1" y1="154.2" x2="825.9" y2="152.0" stroke="#ff0700" stroke-width="2.50" stroke-linecap="round"/>
  <line x1="825.9" y1="152.0" x2="830.7" y2="149.9" stroke="#ff0600" stroke-width="2.50" stroke-linecap="round"/>
  <line x1="830.7" y1="149.9" x2="835.5" y2="147.7" stroke="#ff0500" stroke-width="2.50" stroke-linecap="round"/>
  <line x1="835.5" y1="147.7" x2="840.4" y2="145.6" stroke="#ff0500" stroke-width="2.50" stroke-linecap="round"/>
  <line x1="840.4" y1="145.6" x2="845.2" y2="143.4" stroke="#ff0400" stroke-width="2.50" stroke-linecap="round"/>
  <line x1="845.2" y1="143.4" x2="850.0" y2="141.3" stroke="#ff0300" stroke-width="2.50" stroke-linecap="round"/>
  <line x1="850.0" y1="141.3" x2="854.9" y2="139.1" stroke="#ff0300" stroke-width="2.50" stroke-linecap="round"/>
  <line x1="854.9" y1="139.1" x2="859.7" y2="137.0" stroke="#ff0200" stroke-width="2.50" stroke-linecap="round"/>
  <line x1="859.7" y1="137.0" x2="864.5" y2="134.8" stroke="#ff0200" stroke-width="2.50" stroke-linecap="round"/>
  <line x1="864.5" y1="134.8" x2="869.3" y2="132.7" stroke="#ff0100" stroke-width="2.50" stroke-linecap="round"/>
  <line x1="869.3" y1="132.7" x2="874.2" y2="130.5" stroke="#ff0100" stroke-width="2.50" stroke-linecap="round"/>
  <line x1="874.2" y1="130.5" x2="879.0" y2="128.4" stroke="#ff0000" stroke-width="2.50" stroke-linecap="round"/>
  <line x1="879.0" y1="128.4" x2="883.8" y2="126.2" stroke="#ff2800" stroke-width="2.50" stroke-linecap="round"/>
  <line x1="883.8" y1="126.2" x2="888.6" y2="124.1" stroke="#ff5f00" stroke-width="2.50" stroke-linecap="round"/>
  <line x1="888.6" y1="124.1" x2="893.5" y2="121.9" stroke="#ff9700" stroke-width="2.50" stroke-linecap="round"/>
  <line x1="893.5" y1="121.9" x2="898.3" y2="119.8" stroke="#ffcf00" stroke-width="2.50" stroke-linecap="round"/>
  <line x1="898.3" y1="119.8" x2="903.1" y2="117.7" stroke="#f4ff00" stroke-width="2.50" stroke-linecap="round"/>
  <line x1="903.1" y1="117.7" x2="907.9" y2="115.5" stroke="#b8ff00" stroke-width="2.50" stroke-linecap="round"/>
  <line x1="907.9" y1="115.5" x2="912.8" y2="113.4" stroke="#7aff00" stroke-width="2.50" stroke-linecap="round"/>
  <line x1="912.8" y1="113.4" x2="917.6" y2="111.2" stroke="#39ff00" stroke-width="2.50" stroke-linecap="round"/>
  <line x1="917.6" y1="111.2" x2="922.4" y2="109.1" stroke="#00ff0b" stroke-width="2.50" stroke-linecap="round"/>
  <line x1="922.4" y1="109.1" x2="927.2" y2="106.9" stroke="#00ff53" stroke-width="2.50" stroke-linecap="round"/>
  <line x1="927.2" y1="106.9" x2="932.3" y2="105.1" stroke="#00ffa0" stroke-width="2.50" stroke-linecap="round"/>
  <line x1="932.3" y1="105.1" x2="937.5" y2="104.1" stroke="#00ffd2" stroke-width="2.50" stroke-linecap="round"/>
  <line x1="937.5" y1="104.1" x2="942.8" y2="103.8" stroke="#00ffdb" stroke-width="2.50" stroke-linecap="round"/>
  <line x1="942.8" y1="103.8" x2="948.1" y2="104.4" stroke="#00ffe3" stroke-width="2.50" stroke-linecap="round"/>
  <line x1="948.1" y1="104.4" x2="953.2" y2="105.7" stroke="#00ffde" stroke-width="2.50" stroke-linecap="round"/>
  <line x1="953.2" y1="105.7" x2="958.1" y2="107.8" stroke="#00ffde" stroke-width="2.50" stroke-linecap="round"/>
  <line x1="958.1" y1="107.8" x2="962.6" y2="110.6" stroke="#00ffde" stroke-width="2.50" stroke-linecap="round"/>
  <line x1="962.6" y1="110.6" x2="966.7" y2="114.1" stroke="#00ffde" stroke-width="2.50" stroke-linecap="round"/>
  <line x1="966.7" y1="114.1" x2="970.2" y2="118.1" stroke="#00ffde" stroke-width="2.50" stroke-linecap="round"/>
  <line x1="970.2" y1="118.1" x2="973.1" y2="122.6" stroke="#00ffde" stroke-width="2.50" stroke-linecap="round"/>
  <line x1="973.1" y1="122.6" x2="975.2" y2="127.4" stroke="#00ffde" stroke-width="2.50" stroke-linecap="round"/>
  <line x1="975.2" y1="127.4" x2="976.6" y2="132.5" stroke="#00ffde" stroke-width="2.50" stroke-linecap="round"/>
  <line x1="976.6" y1="132.5" x2="977.3" y2="137.8" stroke="#00ffde" stroke-width="2.50" stroke-linecap="round"/>
  <line x1="977.3" y1="137.8" x2="977.1" y2="143.1" stroke="#00ffde" stroke-width="2.50" stroke-linecap="round"/>
  <line x1="977.1" y1="143.1" x2="976.6" y2="148.4" stroke="#00ffbf" stroke-width="2.50" stroke-linecap="round"/>
  <line x1="976.6" y1="148.4" x2="976.0" y2="153.7" stroke="#00ffa2" stroke-width="2.50" stroke-linecap="round"/>
  <line x1="976.0" y1="153.7" x2="975.5" y2="159.0" stroke="#00ff87" stroke-width="2.50" stroke-linecap="round"/>
  <line x1="975.5" y1="159.0" x2="974.9" y2="164.2" stroke="#00ff6d" stroke-width="2.50" stroke-linecap="round"/>
  <line x1="974.9" y1="164.2" x2="974.4" y2="169.5" stroke="#00ff55" stroke-width="2.50" stroke-linecap="round"/>
  <line x1="974.4" y1="169.5" x2="973.8" y2="174.8" stroke="#00ff3f" stroke-width="2.50" stroke-linecap="round"/>
  <line x1="973.8" y1="174.8" x2="973.2" y2="180.0" stroke="#00ff2a" stroke-width="2.50" stroke-linecap="round"/>
  <line x1="973.2" y1="180.0" x2="972.7" y2="185.3" stroke="#00ff15" stroke-width="2.50" stroke-linecap="round"/>
  <line x1="972.7" y1="185.3" x2="972.1" y2="190.6" stroke="#00ff02" stroke-width="2.50" stroke-linecap="round"/>
  <line x1="972.1" y1="190.6" x2="971.6" y2="195.8" stroke="#10ff00" stroke-width="2.50" stroke-linecap="round"/>
  <line x1="971.6" y1="195.8" x2="971.0" y2="201.1" stroke="#21ff00" stroke-width="2.50" stroke-linecap="round"/>
  <line x1="971.0" y1="201.1" x2="970.5" y2="206.4" stroke="#32ff00" stroke-width="2.50" stroke-linecap="round"/>
  <line x1="970.5" y1="206.4" x2="969.9" y2="211.6" stroke="#42ff00" stroke-width="2.50" stroke-linecap="round"/>
  <line x1="969.9" y1="211.6" x2="969.4" y2="216.9" stroke="#51ff00" stroke-width="2.50" stroke-linecap="round"/>
  <line x1="969.4" y1="216.9" x2="968.8" y2="222.2" stroke="#60ff00" stroke-width="2.50" stroke-linecap="round"/>
  <line x1="968.8" y1="222.2" x2="968.3" y2="227.5" stroke="#6eff00" stroke-width="2.50" stroke-linecap="round"/>
  <line x1="968.3" y1="227.5" x2="967.7" y2="232.7" stroke="#7bff00" stroke-width="2.50" stroke-linecap="round"/>
  <line x1="967.7" y1="232.7" x2="967.2" y2="238.0" stroke="#88ff00" stroke-width="2.50" stroke-linecap="round"/>
  <line x1="967.2" y1="238.0" x2="966.6" y2="243.3" stroke="#94ff00" stroke-width="2.50" stroke-linecap="round"/>
  <line x1="966.6" y1="243.3" x2="966.0" y2="248.5" stroke="#a0ff00" stroke-width="2.50" stroke-linecap="round"/>
  <line x1="966.0" y1="248.5" x2="965.5" y2="253.8" stroke="#acff00" stroke-width="2.50" stroke-linecap="round"/>
  <line x1="965.5" y1="253.8" x2="964.9" y2="259.1" stroke="#b7ff00" stroke-width="2.50" stroke-linecap="round"/>
  <line x1="964.9" y1="259.1" x2="964.4" y2="264.3" stroke="#c1ff00" stroke-width="2.50" stroke-linecap="round"/>
  <line x1="964.4" y1="264.3" x2="963.8" y2="269.6" stroke="#ccff00" stroke-width="2.50" stroke-linecap="round"/>
  <line x1="963.8" y1="269.6" x2="963.3" y2="274.9" stroke="#d5ff00" stroke-width="2.50" stroke-linecap="round"/>
  <line x1="963.3" y1="274.9" x2="962.7" y2="280.1" stroke="#dfff00" stroke-width="2.50" stroke-linecap="round"/>
  <line x1="962.7" y1="280.1" x2="962.2" y2="285.4" stroke="#e8ff00" stroke-width="2.50" stroke-linecap="round"/>
  <line x1="962.2" y1="285.4" x2="961.6" y2="290.7" stroke="#f1ff00" stroke-width="2.50" stroke-linecap="round"/>
  <line x1="961.6" y1="290.7" x2="961.1" y2="296.0" stroke="#faff00" stroke-width="2.50" stroke-linecap="round"/>
  <line x1="961.1" y1="296.0" x2="960.5" y2="301.2" stroke="#fffc00" stroke-width="2.50" stroke-linecap="round"/>
  <line x1="960.5" y1="301.2" x2="960.0" y2="306.5" stroke="#fff400" stroke-width="2.50" stroke-linecap="round"/>
  <line x1="960.0" y1="306.5" x2="959.4" y2="311.8" stroke="#ffec00" stroke-width="2.50" stroke-linecap="round"/>
  <line x1="959.4" y1="311.8" x2="958.8" y2="317.0" stroke="#ffe500" stroke-width="2.50" stroke-linecap="round"/>
  <line x1="958.8" y1="317.0" x2="958.3" y2="322.3" stroke="#ffde00" stroke-width="2.50" stroke-linecap="round"/>
  <line x1="958.3" y1="322.3" x2="957.7" y2="327.6" stroke="#ffd700" stroke-width="2.50" stroke-linecap="round"/>
  <line x1="957.7" y1="327.6" x2="957.2" y2="332.8" stroke="#ffd000" stroke-width="2.50" stroke-linecap="round"/>
  <line x1="957.2" y1="332.8" x2="956.6" y2="338.1" stroke="#ffc900" stroke-width="2.50" stroke-linecap="round"/>
  <line x1="956.6" y1="338.1" x2="956.1" y2="343.4" stroke="#ffc300" stroke-width="2.50" stroke-linecap="round"/>
  <line x1="956.1" y1="343.4" x2="955.5" y2="348.6" stroke="#ffbd00" stroke-width="2.50" stroke-linecap="round"/>
  <line x1="955.5" y1="348.6" x2="955.0" y2="353.9" stroke="#ffb700" stroke-width="2.50" stroke-linecap="round"/>
  <line x1="955.0" y1="353.9" x2="954.4" y2="359.2" stroke="#ffb100" stroke-width="2.50" stroke-linecap="round"/>
  <line x1="954.4" y1="359.2" x2="953.9" y2="364.5" stroke="#ffab00" stroke-width="2.50" stroke-linecap="round"/>
  <line x1="953.9" y1="364.5" x2="953.3" y2="369.7" stroke="#ffa600" stroke-width="2.50" stroke-linecap="round"/>
  <line x1="953.3" y1="369.7" x2="952.8" y2="375.0" stroke="#ffa100" stroke-width="2.50" stroke-linecap="round"/>
  <line x1="952.8" y1="375.0" x2="952.2" y2="380.3" stroke="#ff9c00" stroke-width="2.50" stroke-linecap="round"/>
  <line x1="952.2" y1="380.3" x2="951.6" y2="385.5" stroke="#ff9700" stroke-width="2.50" stroke-linecap="round"/>
  <line x1="951.6" y1="385.5" x2="951.1" y2="390.8" stroke="#ff9200" stroke-width="2.50" stroke-linecap="round"/>
  <line x1="951.1" y1="390.8" x2="950.5" y2="396.1" stroke="#ff8d00" stroke-width="2.50" stroke-linecap="round"/>
  <line x1="950.5" y1="396.1" x2="950.0" y2="401.3" stroke="#ff8900" stroke-width="2.50" stroke-linecap="round"/>
  <line x1="950.0" y1="401.3" x2="949.4" y2="406.6" stroke="#ff8400" stroke-width="2.50" stroke-linecap="round"/>
  <line x1="949.4" y1="406.6" x2="948.9" y2="411.9" stroke="#ff8000" stroke-width="2.50" stroke-linecap="round"/>
  <line x1="948.9" y1="411.9" x2="948.3" y2="417.1" stroke="#ff7c00" stroke-width="2.50" stroke-linecap="round"/>
  <line x1="948.3" y1="417.1" x2="947.8" y2="422.4" stroke="#ff7800" stroke-width="2.50" stroke-linecap="round"/>
  <line x1="947.8" y1="422.4" x2="947.2" y2="427.7" stroke="#ff7400" stroke-width="2.50" stroke-linecap="round"/>
  <line x1="947.2" y1="427.7" x2="946.7" y2="433.0" stroke="#ff7000" stroke-width="2.50" stroke-linecap="round"/>
  <line x1="946.7" y1="433.0" x2="946.1" y2="438.2" stroke="#ff6d00" stroke-width="2.50" stroke-linecap="round"/>
  <line x1="946.1" y1="438.2" x2="945.6" y2="443.5" stroke="#ff6900" stroke-width="2.50" stroke-linecap="round"/>
  <line x1="945.6" y1="443.5" x2="945.0" y2="448.8" stroke="#ff6600" stroke-width="2.50" stroke-linecap="round"/>
  <line x1="945.0" y1="448.8" x2="944.4" y2="454.0" stroke="#ff6200" stroke-width="2.50" stroke-linecap="round"/>
  <line x1="944.4" y1="454.0" x2="943.9" y2="459.3" stroke="#ff5f00" stroke-width="2.50" stroke-linecap="round"/>
  <line x1="943.9" y1="459.3" x2="943.3" y2="464.6" stroke="#ff5c00" stroke-width="2.50" stroke-linecap="round"/>
  <line x1="943.3" y1="464.6" x2="942.8" y2="469.8" stroke="#ff5900" stroke-width="2.50" stroke-linecap="round"/>
  <line x1="942.8" y1="469.8" x2="942.2" y2="475.1" stroke="#ff5600" stroke-width="2.50" stroke-linecap="round"/>
  <line x1="942.2" y1="475.1" x2="941.7" y2="480.4" stroke="#ff5300" stroke-width="2.50" stroke-linecap="round"/>
  <line x1="941.7" y1="480.4" x2="941.1" y2="485.7" stroke="#ff5000" stroke-width="2.50" stroke-linecap="round"/>
  <line x1="941.1" y1="485.7" x2="940.6" y2="490.9" stroke="#ff4e00" stroke-width="2.50" stroke-linecap="round"/>
  <line x1="940.6" y1="490.9" x2="940.0" y2="496.2" stroke="#ff4b00" stroke-width="2.50" stroke-linecap="round"/>
  <line x1="940.0" y1="496.2" x2="939.5" y2="501.5" stroke="#ff4800" stroke-width="2.50" stroke-linecap="round"/>
  <line x1="939.5" y1="501.5" x2="938.9" y2="506.7" stroke="#ff4600" stroke-width="2.50" stroke-linecap="round"/>
  <line x1="938.9" y1="506.7" x2="938.4" y2="512.0" stroke="#ff4300" stroke-width="2.50" stroke-linecap="round"/>
  <line x1="938.4" y1="512.0" x2="937.8" y2="517.3" stroke="#ff4100" stroke-width="2.50" stroke-linecap="round"/>
  <line x1="937.8" y1="517.3" x2="937.2" y2="522.5" stroke="#ff3f00" stroke-width="2.50" stroke-linecap="round"/>
  <line x1="937.2" y1="522.5" x2="936.7" y2="527.8" stroke="#ff3d00" stroke-width="2.50" stroke-linecap="round"/>
  <line x1="936.7" y1="527.8" x2="936.1" y2="533.1" stroke="#ff3a00" stroke-width="2.50" stroke-linecap="round"/>
  <line x1="936.1" y1="533.1" x2="935.6" y2="538.3" stroke="#ff3800" stroke-width="2.50" stroke-linecap="round"/>
  <line x1="935.6" y1="538.3" x2="935.0" y2="543.6" stroke="#ff3600" stroke-width="2.50" stroke-linecap="round"/>
  <line x1="935.0" y1="543.6" x2="934.5" y2="548.9" stroke="#ff3400" stroke-width="2.50" stroke-linecap="round"/>
  <line x1="934.5" y1="548.9" x2="933.9" y2="554.2" stroke="#ff3200" stroke-width="2.50" stroke-linecap="round"/>
  <line x1="933.9" y1="554.2" x2="933.4" y2="559.4" stroke="#ff3000" stroke-width="2.50" stroke-linecap="round"/>
  <line x1="933.4" y1="559.4" x2="932.8" y2="564.7" stroke="#ff2f00" stroke-width="2.50" stroke-linecap="round"/>
  <line x1="932.8" y1="564.7" x2="932.3" y2="570.0" stroke="#ff3200" stroke-width="2.50" stroke-linecap="round"/>
  <line x1="932.3" y1="570.0" x2="931.7" y2="575.2" stroke="#ff6900" stroke-width="2.50" stroke-linecap="round"/>
  <line x1="931.7" y1="575.2" x2="931.2" y2="580.5" stroke="#ffa100" stroke-width="2.50" stroke-linecap="round"/>
  <line x1="931.2" y1="580.5" x2="930.6" y2="585.8" stroke="#ffda00" stroke-width="2.50" stroke-linecap="round"/>
  <line x1="930.6" y1="585.8" x2="930.0" y2="591.0" stroke="#e9ff00" stroke-width="2.50" stroke-linecap="round"/>
  <line x1="930.0" y1="591.0" x2="929.5" y2="596.3" stroke="#acff00" stroke-width="2.50" stroke-linecap="round"/>
  <line x1="929.5" y1="596.3" x2="928.9" y2="601.6" stroke="#6dff00" stroke-width="2.50" stroke-linecap="round"/>
  <line x1="928.9" y1="601.6" x2="928.4" y2="606.8" stroke="#2cff00" stroke-width="2.50" stroke-linecap="round"/>
  <line x1="928.4" y1="606.8" x2="927.8" y2="612.1" stroke="#00ff19" stroke-width="2.50" stroke-linecap="round"/>
  <line x1="927.8" y1="612.1" x2="927.3" y2="617.4" stroke="#00ff62" stroke-width="2.50" stroke-linecap="round"/>
  <line x1="927.3" y1="617.4" x2="926.7" y2="622.7" stroke="#00ffb2" stroke-width="2.50" stroke-linecap="round"/>
  <line x1="926.7" y1="622.7" x2="925.9" y2="627.3" stroke="#00fcff" stroke-width="2.50" stroke-linecap="round"/>
  <line x1="925.9" y1="627.3" x2="924.3" y2="631.8" stroke="#00d3ff" stroke-width="2.50" stroke-linecap="round"/>
  <line x1="924.3" y1="631.8" x2="922.1" y2="636.0" stroke="#00ccff" stroke-width="2.50" stroke-linecap="round"/>
  <line x1="922.1" y1="636.0" x2="919.3" y2="639.8" stroke="#00c6ff" stroke-width="2.50" stroke-linecap="round"/>
  <line x1="919.3" y1="639.8" x2="915.9" y2="643.2" stroke="#00cbff" stroke-width="2.50" stroke-linecap="round"/>
  <line x1="915.9" y1="643.2" x2="912.0" y2="646.0" stroke="#00c9ff" stroke-width="2.50" stroke-linecap="round"/>
  <line x1="912.0" y1="646.0" x2="907.8" y2="648.1" stroke="#00cbff" stroke-width="2.50" stroke-linecap="round"/>
  <line x1="907.8" y1="648.1" x2="903.3" y2="649.6" stroke="#00caff" stroke-width="2.50" stroke-linecap="round"/>
  <line x1="903.3" y1="649.6" x2="898.3" y2="651.2" stroke="#00ecff" stroke-width="2.50" stroke-linecap="round"/>
  <line x1="898.3" y1="651.2" x2="893.6" y2="653.4" stroke="#00ffef" stroke-width="2.50" stroke-linecap="round"/>
  <line x1="893.6" y1="653.4" x2="889.2" y2="656.3" stroke="#00ffcf" stroke-width="2.50" stroke-linecap="round"/>
  <line x1="889.2" y1="656.3" x2="885.2" y2="659.7" stroke="#00ffb1" stroke-width="2.50" stroke-linecap="round"/>
  <line x1="885.2" y1="659.7" x2="881.6" y2="663.5" stroke="#00ff9a" stroke-width="2.50" stroke-linecap="round"/>
  <line x1="881.6" y1="663.5" x2="878.7" y2="667.8" stroke="#00ff89" stroke-width="2.50" stroke-linecap="round"/>
  <line x1="878.7" y1="667.8" x2="875.9" y2="672.4" stroke="#00ff6f" stroke-width="2.50" stroke-linecap="round"/>
  <line x1="875.9" y1="672.4" x2="873.2" y2="677.0" stroke="#00ff57" stroke-width="2.50" stroke-linecap="round"/>
  <line x1="873.2" y1="677.0" x2="870.4" y2="681.6" stroke="#00ff41" stroke-width="2.50" stroke-linecap="round"/>
  <line x1="870.4" y1="681.6" x2="867.7" y2="686.1" stroke="#00ff2b" stroke-width="2.50" stroke-linecap="round"/>
  <line x1="867.7" y1="686.1" x2="864.9" y2="690.7" stroke="#00ff17" stroke-width="2.50" stroke-linecap="round"/>
  <line x1="864.9" y1="690.7" x2="862.2" y2="695.3" stroke="#00ff03" stroke-width="2.50" stroke-linecap="round"/>
  <line x1="862.2" y1="695.3" x2="859.4" y2="699.8" stroke="#0fff00" stroke-width="2.50" stroke-linecap="round"/>
  <line x1="859.4" y1="699.8" x2="856.7" y2="704.4" stroke="#21ff00" stroke-width="2.50" stroke-linecap="round"/>
  <line x1="856.7" y1="704.4" x2="853.9" y2="709.0" stroke="#31ff00" stroke-width="2.50" stroke-linecap="round"/>
  <line x1="853.9" y1="709.0" x2="851.2" y2="713.6" stroke="#41ff00" stroke-width="2.50" stroke-linecap="round"/>
  <line x1="851.2" y1="713.6" x2="848.3" y2="718.0" stroke="#51ff00" stroke-width="2.50" stroke-linecap="round"/>
  <line x1="848.3" y1="718.0" x2="845.2" y2="722.2" stroke="#5fff00" stroke-width="2.50" stroke-linecap="round"/>
  <line x1="845.2" y1="722.2" x2="841.8" y2="726.2" stroke="#6dff00" stroke-width="2.50" stroke-linecap="round"/>
  <line x1="841.8" y1="726.2" x2="838.2" y2="729.9" stroke="#7aff00" stroke-width="2.50" stroke-linecap="round"/>
  <line x1="838.2" y1="729.9" x2="834.3" y2="733.4" stroke="#87ff00" stroke-width="2.50" stroke-linecap="round"/>
  <line x1="834.3" y1="733.4" x2="830.2" y2="736.7" stroke="#93ff00" stroke-width="2.50" stroke-linecap="round"/>
  <line x1="830.2" y1="736.7" x2="825.9" y2="739.7" stroke="#9fff00" stroke-width="2.50" stroke-linecap="round"/>
  <line x1="825.9" y1="739.7" x2="821.4" y2="742.3" stroke="#abff00" stroke-width="2.50" stroke-linecap="round"/>
  <line x1="821.4" y1="742.3" x2="816.7" y2="744.7" stroke="#b5ff00" stroke-width="2.50" stroke-linecap="round"/>
  <line x1="816.7" y1="744.7" x2="811.9" y2="746.8" stroke="#c0ff00" stroke-width="2.50" stroke-linecap="round"/>
  <line x1="811.9" y1="746.8" x2="807.0" y2="748.6" stroke="#caff00" stroke-width="2.50" stroke-linecap="round"/>
  <line x1="807.0" y1="748.6" x2="801.9" y2="750.0" stroke="#d4ff00" stroke-width="2.50" stroke-linecap="round"/>
  <line x1="801.9" y1="750.0" x2="796.8" y2="751.1" stroke="#ddff00" stroke-width="2.50" stroke-linecap="round"/>
  <line x1="796.8" y1="751.1" x2="791.6" y2="751.9" stroke="#e7ff00" stroke-width="2.50" stroke-linecap="round"/>
  <line x1="791.6" y1="751.9" x2="786.4" y2="752.3" stroke="#efff00" stroke-width="2.50" stroke-linecap="round"/>
  <line x1="786.4" y1="752.3" x2="781.2" y2="752.4" stroke="#f8ff00" stroke-width="2.50" stroke-linecap="round"/>
  <line x1="781.2" y1="752.4" x2="775.9" y2="752.3" stroke="#fffe00" stroke-width="2.50" stroke-linecap="round"/>
  <line x1="775.9" y1="752.3" x2="770.5" y2="752.2" stroke="#fff600" stroke-width="2.50" stroke-linecap="round"/>
  <line x1="770.5" y1="752.2" x2="765.2" y2="752.1" stroke="#ffee00" stroke-width="2.50" stroke-linecap="round"/>
  <line x1="765.2" y1="752.1" x2="759.9" y2="752.0" stroke="#ffe600" stroke-width="2.50" stroke-linecap="round"/>
  <line x1="759.9" y1="752.0" x2="754.5" y2="751.9" stroke="#ffdf00" stroke-width="2.50" stroke-linecap="round"/>
  <line x1="754.5" y1="751.9" x2="749.4" y2="752.0" stroke="#ffd800" stroke-width="2.50" stroke-linecap="round"/>
  <line x1="749.4" y1="752.0" x2="744.4" y2="752.5" stroke="#ffd100" stroke-width="2.50" stroke-linecap="round"/>
  <line x1="744.4" y1="752.5" x2="739.4" y2="753.4" stroke="#ffcb00" stroke-width="2.50" stroke-linecap="round"/>
  <line x1="739.4" y1="753.4" x2="734.4" y2="754.6" stroke="#ffc500" stroke-width="2.50" stroke-linecap="round"/>
  <line x1="734.4" y1="754.6" x2="729.6" y2="756.3" stroke="#ffbf00" stroke-width="2.50" stroke-linecap="round"/>
  <line x1="729.6" y1="756.3" x2="724.9" y2="758.3" stroke="#ffb900" stroke-width="2.50" stroke-linecap="round"/>
  <line x1="724.9" y1="758.3" x2="720.4" y2="760.6" stroke="#ffb300" stroke-width="2.50" stroke-linecap="round"/>
  <line x1="720.4" y1="760.6" x2="716.1" y2="763.3" stroke="#ffb300" stroke-width="2.50" stroke-linecap="round"/>
  <line x1="716.1" y1="763.3" x2="711.7" y2="766.3" stroke="#ffeb00" stroke-width="2.50" stroke-linecap="round"/>
  <line x1="711.7" y1="766.3" x2="707.2" y2="769.2" stroke="#d8ff00" stroke-width="2.50" stroke-linecap="round"/>
  <line x1="707.2" y1="769.2" x2="702.8" y2="772.2" stroke="#9aff00" stroke-width="2.50" stroke-linecap="round"/>
  <line x1="702.8" y1="772.2" x2="698.4" y2="775.2" stroke="#5aff00" stroke-width="2.50" stroke-linecap="round"/>
  <line x1="698.4" y1="775.2" x2="694.0" y2="778.2" stroke="#17ff00" stroke-width="2.50" stroke-linecap="round"/>
  <line x1="694.0" y1="778.2" x2="689.5" y2="781.2" stroke="#00ff2f" stroke-width="2.50" stroke-linecap="round"/>
  <line x1="689.5" y1="781.2" x2="685.1" y2="784.2" stroke="#00ff7b" stroke-width="2.50" stroke-linecap="round"/>
  <line x1="685.1" y1="784.2" x2="680.7" y2="787.1" stroke="#00ffcd" stroke-width="2.50" stroke-linecap="round"/>
  <line x1="680.7" y1="787.1" x2="676.3" y2="790.1" stroke="#00d7ff" stroke-width="2.50" stroke-linecap="round"/>
  <line x1="676.3" y1="790.1" x2="671.9" y2="793.1" stroke="#007fff" stroke-width="2.50" stroke-linecap="round"/>
  <line x1="671.9" y1="793.1" x2="667.3" y2="795.3" stroke="#0034ff" stroke-width="2.50" stroke-linecap="round"/>
  <line x1="667.3" y1="795.3" x2="662.3" y2="796.2" stroke="#0009ff" stroke-width="2.50" stroke-linecap="round"/>
  <line x1="662.3" y1="796.2" x2="657.3" y2="795.6" stroke="#0005ff" stroke-width="2.50" stroke-linecap="round"/>
  <line x1="657.3" y1="795.6" x2="652.7" y2="793.6" stroke="#0000ff" stroke-width="2.50" stroke-linecap="round"/>
  <line x1="652.7" y1="793.6" x2="648.8" y2="790.4" stroke="#0005ff" stroke-width="2.50" stroke-linecap="round"/>
  <line x1="648.8" y1="790.4" x2="645.9" y2="786.3" stroke="#0000ff" stroke-width="2.50" stroke-linecap="round"/>
  <line x1="645.9" y1="786.3" x2="644.3" y2="781.5" stroke="#0005ff" stroke-width="2.50" stroke-linecap="round"/>
  <line x1="644.3" y1="781.5" x2="644.1" y2="776.5" stroke="#0000ff" stroke-width="2.50" stroke-linecap="round"/>
  <line x1="644.1" y1="776.5" x2="644.0" y2="771.2" stroke="#0036ff" stroke-width="2.50" stroke-linecap="round"/>
  <line x1="644.0" y1="771.2" x2="642.5" y2="766.2" stroke="#0028ff" stroke-width="2.50" stroke-linecap="round"/>
  <line x1="642.5" y1="766.2" x2="639.8" y2="761.7" stroke="#0022ff" stroke-width="2.50" stroke-linecap="round"/>
  <line x1="639.8" y1="761.7" x2="636.0" y2="758.1" stroke="#001dff" stroke-width="2.50" stroke-linecap="round"/>
  <line x1="636.0" y1="758.1" x2="631.4" y2="755.6" stroke="#0022ff" stroke-width="2.50" stroke-linecap="round"/>
  <line x1="631.4" y1="755.6" x2="626.3" y2="754.4" stroke="#001dff" stroke-width="2.50" stroke-linecap="round"/>
  <line x1="626.3" y1="754.4" x2="621.1" y2="754.5" stroke="#0022ff" stroke-width="2.50" stroke-linecap="round"/>
  <line x1="621.1" y1="754.5" x2="616.0" y2="756.0" stroke="#001dff" stroke-width="2.50" stroke-linecap="round"/>
  <line x1="616.0" y1="756.0" x2="611.6" y2="758.8" stroke="#002aff" stroke-width="2.50" stroke-linecap="round"/>
  <line x1="611.6" y1="758.8" x2="607.4" y2="762.1" stroke="#004cff" stroke-width="2.50" stroke-linecap="round"/>
  <line x1="607.4" y1="762.1" x2="603.3" y2="765.5" stroke="#0081ff" stroke-width="2.50" stroke-linecap="round"/>
  <line x1="603.3" y1="765.5" x2="599.1" y2="768.8" stroke="#00afff" stroke-width="2.50" stroke-linecap="round"/>
  <line x1="599.1" y1="768.8" x2="595.0" y2="772.2" stroke="#00d8ff" stroke-width="2.50" stroke-linecap="round"/>
  <line x1="595.0" y1="772.2" x2="590.8" y2="775.6" stroke="#00fdff" stroke-width="2.50" stroke-linecap="round"/>
  <line x1="590.8" y1="775.6" x2="586.9" y2="778.3" stroke="#00ffdf" stroke-width="2.50" stroke-linecap="round"/>
  <line x1="586.9" y1="778.3" x2="582.7" y2="780.6" stroke="#00ffc3" stroke-width="2.50" stroke-linecap="round"/>
  <line x1="582.7" y1="780.6" x2="578.3" y2="782.4" stroke="#00ffa8" stroke-width="2.50" stroke-linecap="round"/>
  <line x1="578.3" y1="782.4" x2="573.6" y2="783.7" stroke="#00ff95" stroke-width="2.50" stroke-linecap="round"/>
  <line x1="573.6" y1="783.7" x2="568.9" y2="784.3" stroke="#00ff86" stroke-width="2.50" stroke-linecap="round"/>
  <line x1="568.9" y1="784.3" x2="564.1" y2="784.4" stroke="#00ff7d" stroke-width="2.50" stroke-linecap="round"/>
  <line x1="564.1" y1="784.4" x2="559.3" y2="784.0" stroke="#00ff77" stroke-width="2.50" stroke-linecap="round"/>
  <line x1="559.3" y1="784.0" x2="554.6" y2="782.9" stroke="#00ff74" stroke-width="2.50" stroke-linecap="round"/>
  <line x1="554.6" y1="782.9" x2="549.5" y2="781.5" stroke="#00ff5e" stroke-width="2.50" stroke-linecap="round"/>
  <line x1="549.5" y1="781.5" x2="544.4" y2="780.0" stroke="#00ff47" stroke-width="2.50" stroke-linecap="round"/>
  <line x1="544.4" y1="780.0" x2="539.3" y2="778.5" stroke="#00ff32" stroke-width="2.50" stroke-linecap="round"/>
  <line x1="539.3" y1="778.5" x2="534.3" y2="777.1" stroke="#00ff1d" stroke-width="2.50" stroke-linecap="round"/>
  <line x1="534.3" y1="777.1" x2="529.2" y2="775.6" stroke="#00ff0a" stroke-width="2.50" stroke-linecap="round"/>
  <line x1="529.2" y1="775.6" x2="524.1" y2="774.2" stroke="#09ff00" stroke-width="2.50" stroke-linecap="round"/>
  <line x1="524.1" y1="774.2" x2="519.0" y2="772.7" stroke="#1bff00" stroke-width="2.50" stroke-linecap="round"/>
  <line x1="519.0" y1="772.7" x2="513.9" y2="771.2" stroke="#2cff00" stroke-width="2.50" stroke-linecap="round"/>
  <line x1="513.9" y1="771.2" x2="508.8" y2="769.8" stroke="#3cff00" stroke-width="2.50" stroke-linecap="round"/>
  <line x1="508.8" y1="769.8" x2="503.7" y2="768.3" stroke="#4bff00" stroke-width="2.50" stroke-linecap="round"/>
  <line x1="503.7" y1="768.3" x2="498.6" y2="766.9" stroke="#5aff00" stroke-width="2.50" stroke-linecap="round"/>
  <line x1="498.6" y1="766.9" x2="493.5" y2="765.4" stroke="#68ff00" stroke-width="2.50" stroke-linecap="round"/>
  <line x1="493.5" y1="765.4" x2="488.4" y2="763.9" stroke="#76ff00" stroke-width="2.50" stroke-linecap="round"/>
  <line x1="488.4" y1="763.9" x2="483.3" y2="762.5" stroke="#83ff00" stroke-width="2.50" stroke-linecap="round"/>
  <line x1="483.3" y1="762.5" x2="478.3" y2="761.0" stroke="#90ff00" stroke-width="2.50" stroke-linecap="round"/>
  <line x1="478.3" y1="761.0" x2="473.2" y2="759.6" stroke="#9cff00" stroke-width="2.50" stroke-linecap="round"/>
  <line x1="473.2" y1="759.6" x2="468.1" y2="758.1" stroke="#a7ff00" stroke-width="2.50" stroke-linecap="round"/>
  <line x1="468.1" y1="758.1" x2="463.0" y2="756.6" stroke="#b2ff00" stroke-width="2.50" stroke-linecap="round"/>
  <line x1="463.0" y1="756.6" x2="457.9" y2="755.2" stroke="#bdff00" stroke-width="2.50" stroke-linecap="round"/>
  <line x1="457.9" y1="755.2" x2="452.8" y2="753.7" stroke="#c8ff00" stroke-width="2.50" stroke-linecap="round"/>
  <line x1="452.8" y1="753.7" x2="447.7" y2="752.3" stroke="#d2ff00" stroke-width="2.50" stroke-linecap="round"/>
  <line x1="447.7" y1="752.3" x2="442.6" y2="750.8" stroke="#dbff00" stroke-width="2.50" stroke-linecap="round"/>
  <line x1="442.6" y1="750.8" x2="437.5" y2="749.3" stroke="#e5ff00" stroke-width="2.50" stroke-linecap="round"/>
  <line x1="437.5" y1="749.3" x2="432.4" y2="747.9" stroke="#eeff00" stroke-width="2.50" stroke-linecap="round"/>
  <line x1="432.4" y1="747.9" x2="427.3" y2="746.4" stroke="#f6ff00" stroke-width="2.50" stroke-linecap="round"/>
  <line x1="427.3" y1="746.4" x2="422.3" y2="745.0" stroke="#ffff00" stroke-width="2.50" stroke-linecap="round"/>
  <line x1="422.3" y1="745.0" x2="417.2" y2="743.5" stroke="#fff700" stroke-width="2.50" stroke-linecap="round"/>
  <line x1="417.2" y1="743.5" x2="412.1" y2="742.1" stroke="#ffef00" stroke-width="2.50" stroke-linecap="round"/>
  <line x1="412.1" y1="742.1" x2="407.0" y2="740.6" stroke="#ffe800" stroke-width="2.50" stroke-linecap="round"/>
  <line x1="407.0" y1="740.6" x2="401.9" y2="739.1" stroke="#ffe000" stroke-width="2.50" stroke-linecap="round"/>
  <line x1="401.9" y1="739.1" x2="396.8" y2="737.7" stroke="#ffd900" stroke-width="2.50" stroke-linecap="round"/>
  <line x1="396.8" y1="737.7" x2="391.7" y2="736.2" stroke="#ffd200" stroke-width="2.50" stroke-linecap="round"/>
  <line x1="391.7" y1="736.2" x2="386.6" y2="734.8" stroke="#ffcc00" stroke-width="2.50" stroke-linecap="round"/>
  <line x1="386.6" y1="734.8" x2="381.5" y2="733.3" stroke="#ffc500" stroke-width="2.50" stroke-linecap="round"/>
  <line x1="381.5" y1="733.3" x2="376.4" y2="731.8" stroke="#ffbf00" stroke-width="2.50" stroke-linecap="round"/>
  <line x1="376.4" y1="731.8" x2="371.3" y2="730.4" stroke="#ffb900" stroke-width="2.50" stroke-linecap="round"/>
  <line x1="371.3" y1="730.4" x2="366.3" y2="728.9" stroke="#ffb300" stroke-width="2.50" stroke-linecap="round"/>
  <line x1="366.3" y1="728.9" x2="361.2" y2="727.5" stroke="#ffae00" stroke-width="2.50" stroke-linecap="round"/>
  <line x1="361.2" y1="727.5" x2="356.1" y2="726.0" stroke="#ffa800" stroke-width="2.50" stroke-linecap="round"/>
  <line x1="356.1" y1="726.0" x2="351.0" y2="724.5" stroke="#ffb900" stroke-width="2.50" stroke-linecap="round"/>
  <line x1="351.0" y1="724.5" x2="345.9" y2="723.1" stroke="#fff300" stroke-width="2.50" stroke-linecap="round"/>
  <line x1="345.9" y1="723.1" x2="340.8" y2="721.6" stroke="#d0ff00" stroke-width="2.50" stroke-linecap="round"/>
  <line x1="340.8" y1="721.6" x2="335.7" y2="720.2" stroke="#92ff00" stroke-width="2.50" stroke-linecap="round"/>
  <line x1="335.7" y1="720.2" x2="330.6" y2="718.7" stroke="#53ff00" stroke-width="2.50" stroke-linecap="round"/>
  <line x1="330.6" y1="718.7" x2="325.5" y2="717.2" stroke="#10ff00" stroke-width="2.50" stroke-linecap="round"/>
  <line x1="325.5" y1="717.2" x2="320.4" y2="715.8" stroke="#00ff37" stroke-width="2.50" stroke-linecap="round"/>
  <line x1="320.4" y1="715.8" x2="315.3" y2="714.3" stroke="#00ff82" stroke-width="2.50" stroke-linecap="round"/>
  <line x1="315.3" y1="714.3" x2="310.4" y2="713.3" stroke="#00ffd4" stroke-width="2.50" stroke-linecap="round"/>
  <line x1="310.4" y1="713.3" x2="305.4" y2="713.0" stroke="#00fdff" stroke-width="2.50" stroke-linecap="round"/>
  <line x1="305.4" y1="713.0" x2="300.4" y2="713.5" stroke="#00f6ff" stroke-width="2.50" stroke-linecap="round"/>
  <line x1="300.4" y1="713.5" x2="295.5" y2="714.8" stroke="#00eeff" stroke-width="2.50" stroke-linecap="round"/>
  <line x1="295.5" y1="714.8" x2="290.9" y2="716.7" stroke="#00f4ff" stroke-width="2.50" stroke-linecap="round"/>
  <line x1="290.9" y1="716.7" x2="286.6" y2="719.3" stroke="#00f3ff" stroke-width="2.50" stroke-linecap="round"/>
  <line x1="286.6" y1="719.3" x2="282.8" y2="722.6" stroke="#00f3ff" stroke-width="2.50" stroke-linecap="round"/>
  <line x1="282.8" y1="722.6" x2="279.5" y2="726.4" stroke="#00f3ff" stroke-width="2.50" stroke-linecap="round"/>
  <line x1="279.5" y1="726.4" x2="276.8" y2="730.6" stroke="#00f3ff" stroke-width="2.50" stroke-linecap="round"/>
  <line x1="276.8" y1="730.6" x2="274.7" y2="735.2" stroke="#00f3ff" stroke-width="2.50" stroke-linecap="round"/>
  <line x1="274.7" y1="735.2" x2="273.4" y2="740.0" stroke="#00cdff" stroke-width="2.50" stroke-linecap="round"/>
  <line x1="273.4" y1="740.0" x2="271.9" y2="744.7" stroke="#007bff" stroke-width="2.50" stroke-linecap="round"/>
  <line x1="271.9" y1="744.7" x2="269.5" y2="748.9" stroke="#0046ff" stroke-width="2.50" stroke-linecap="round"/>
  <line x1="269.5" y1="748.9" x2="266.2" y2="752.6" stroke="#0041ff" stroke-width="2.50" stroke-linecap="round"/>
  <line x1="266.2" y1="752.6" x2="262.1" y2="755.4" stroke="#003cff" stroke-width="2.50" stroke-linecap="round"/>
  <line x1="262.1" y1="755.4" x2="257.6" y2="757.2" stroke="#0041ff" stroke-width="2.50" stroke-linecap="round"/>
  <line x1="257.6" y1="757.2" x2="252.8" y2="758.0" stroke="#003cff" stroke-width="2.50" stroke-linecap="round"/>
  <line x1="252.8" y1="758.0" x2="247.9" y2="757.7" stroke="#0041ff" stroke-width="2.50" stroke-linecap="round"/>
  <line x1="247.9" y1="757.7" x2="243.2" y2="756.4" stroke="#003cff" stroke-width="2.50" stroke-linecap="round"/>
  <line x1="243.2" y1="756.4" x2="238.9" y2="754.1" stroke="#0041ff" stroke-width="2.50" stroke-linecap="round"/>
  <line x1="238.9" y1="754.1" x2="235.2" y2="750.9" stroke="#003cff" stroke-width="2.50" stroke-linecap="round"/>
  <line x1="235.2" y1="750.9" x2="232.3" y2="746.9" stroke="#0046ff" stroke-width="2.50" stroke-linecap="round"/>
  <line x1="232.3" y1="746.9" x2="229.8" y2="742.2" stroke="#005eff" stroke-width="2.50" stroke-linecap="round"/>
  <line x1="229.8" y1="742.2" x2="227.6" y2="737.3" stroke="#0090ff" stroke-width="2.50" stroke-linecap="round"/>
  <line x1="227.6" y1="737.3" x2="225.9" y2="732.3" stroke="#00bcff" stroke-width="2.50" stroke-linecap="round"/>
  <line x1="225.9" y1="732.3" x2="224.5" y2="727.2" stroke="#00e4ff" stroke-width="2.50" stroke-linecap="round"/>
  <line x1="224.5" y1="727.2" x2="223.5" y2="721.9" stroke="#00fff6" stroke-width="2.50" stroke-linecap="round"/>
  <line x1="223.5" y1="721.9" x2="222.9" y2="716.7" stroke="#00ffd5" stroke-width="2.50" stroke-linecap="round"/>
  <line x1="222.9" y1="716.7" x2="222.7" y2="711.3" stroke="#00ffb7" stroke-width="2.50" stroke-linecap="round"/>
  <line x1="222.7" y1="711.3" x2="222.7" y2="706.3" stroke="#00ff9a" stroke-width="2.50" stroke-linecap="round"/>
  <line x1="222.7" y1="706.3" x2="222.7" y2="701.2" stroke="#00ff81" stroke-width="2.50" stroke-linecap="round"/>
  <line x1="222.7" y1="701.2" x2="222.7" y2="696.1" stroke="#00ff69" stroke-width="2.50" stroke-linecap="round"/>
  <line x1="222.7" y1="696.1" x2="222.7" y2="691.0" stroke="#00ff52" stroke-width="2.50" stroke-linecap="round"/>
  <line x1="222.7" y1="691.0" x2="222.7" y2="685.9" stroke="#00ff3d" stroke-width="2.50" stroke-linecap="round"/>
  <line x1="222.7" y1="685.9" x2="222.7" y2="680.9" stroke="#00ff28" stroke-width="2.50" stroke-linecap="round"/>
  <line x1="222.7" y1="680.9" x2="222.7" y2="675.8" stroke="#00ff15" stroke-width="2.50" stroke-linecap="round"/>
  <line x1="222.7" y1="675.8" x2="222.7" y2="675.8" stroke="#00ff03" stroke-width="2.50" stroke-linecap="round"/>
  <line x1="220.2" y1="675.8" x2="225.2" y2="675.8" stroke="#ffffff" stroke-width="1.00"/>
  <text x="30" y="50" font-family="sans-serif" font-size="34" fill="#ffffff">Apex-14 — Silverstone</text>
  <rect x="910.0" y="842.0" width="5.33" height="18.0" fill="#0000ff"/>
  <rect x="914.4" y="842.0" width="5.33" height="18.0" fill="#0011ff"/>
  <rect x="918.8" y="842.0" width="5.33" height="18.0" fill="#0023ff"/>
  <rect x="923.2" y="842.0" width="5.33" height="18.0" fill="#0034ff"/>
  <rect x="927.6" y="842.0" width="5.33" height="18.0" fill="#0045ff"/>
  <rect x="932.0" y="842.0" width="5.33" height="18.0" fill="#0056ff"/>
  <rect x="936.4" y="842.0" width="5.33" height="18.0" fill="#0068ff"/>
  <rect x="940.8" y="842.0" width="5.33" height="18.0" fill="#0079ff"/>
  <rect x="945.3" y="842.0" width="5.33" height="18.0" fill="#008aff"/>
  <rect x="949.7" y="842.0" width="5.33" height="18.0" fill="#009cff"/>
  <rect x="954.1" y="842.0" width="5.33" height="18.0" fill="#00adff"/>
  <rect x="958.5" y="842.0" width="5.33" height="18.0" fill="#00beff"/>
  <rect x="962.9" y="842.0" width="5.33" height="18.0" fill="#00cfff"/>
  <rect x="967.3" y="842.0" width="5.33" height="18.0" fill="#00e1ff"/>
  <rect x="971.7" y="842.0" width="5.33" height="18.0" fill="#00f2ff"/>
  <rect x="976.1" y="842.0" width="5.33" height="18.0" fill="#00fffb"/>
  <rect x="980.5" y="842.0" width="5.33" height="18.0" fill="#00ffe9"/>
  <rect x="984.9" y="842.0" width="5.33" height="18.0" fill="#00ffd8"/>
  <rect x="989.3" y="842.0" width="5.33" height="18.0" fill="#00ffc7"/>
  <rect x="993.7" y="842.0" width="5.33" height="18.0" fill="#00ffb6"/>
  <rect x="998.1" y="842.0" width="5.33" height="18.0" fill="#00ffa4"/>
  <rect x="1002.5" y="842.0" width="5.33" height="18.0" fill="#00ff93"/>
  <rect x="1006.9" y="842.0" width="5.33" height="18.0" fill="#00ff82"/>
  <rect x="1011.4" y="842.0" width="5.33" height="18.0" fill="#00ff70"/>
  <rect x="1015.8" y="842.0" width="5.33" height="18.0" fill="#00ff5f"/>
  <rect x="1020.2" y="842.0" width="5.33" height="18.0" fill="#00ff4e"/>
  <rect x="1024.6" y="842.0" width="5.33" height="18.0" fill="#00ff3d"/>
  <rect x="1029.0" y="842.0" width="5.33" height="18.0" fill="#00ff2b"/>
  <rect x="1033.4" y="842.0" width="5.33" height="18.0" fill="#00ff1a"/>
  <rect x="1037.8" y="842.0" width="5.33" height="18.0" fill="#00ff09"/>
  <rect x="1042.2" y="842.0" width="5.33" height="18.0" fill="#09ff00"/>
  <rect x="1046.6" y="842.0" width="5.33" height="18.0" fill="#1aff00"/>
  <rect x="1051.0" y="842.0" width="5.33" height="18.0" fill="#2bff00"/>
  <rect x="1055.4" y="842.0" width="5.33" height="18.0" fill="#3dff00"/>
  <rect x="1059.8" y="842.0" width="5.33" height="18.0" fill="#4eff00"/>
  <rect x="1064.2" y="842.0" width="5.33" height="18.0" fill="#5fff00"/>
  <rect x="1068.6" y="842.0" width="5.33" height="18.0" fill="#70ff00"/>
  <rect x="1073.1" y="842.0" width="5.33" height="18.0" fill="#82ff00"/>
  <rect x="1077.5" y="842.0" width="5.33" height="18.0" fill="#93ff00"/>
  <rect x="1081.9" y="842.0" width="5.33" height="18.0" fill="#a4ff00"/>
  <rect x="1086.3" y="842.0" width="5.33" height="18.0" fill="#b6ff00"/>
  <rect x="1090.7" y="842.0" width="5.33" height="18.0" fill="#c7ff00"/>
  <rect x="1095.1" y="842.0" width="5.33" height="18.0" fill="#d8ff00"/>
  <rect x="1099.5" y="842.0" width="5.33" height="18.0" fill="#e9ff00"/>
  <rect x="1103.9" y="842.0" width="5.33" height="18.0" fill="#fbff00"/>
  <rect x="1108.3" y="842.0" width="5.33" height="18.0" fill="#fff200"/>
  <rect x="1112.7" y="842.0" width="5.33" height="18.0" fill="#ffe100"/>
  <rect x="1117.1" y="842.0" width="5.33" height="18.0" fill="#ffcf00"/>
  <rect x="1121.5" y="842.0" width="5.33" height="18.0" fill="#ffbe00"/>
  <rect x="1125.9" y="842.0" width="5.33" height="18.0" fill="#ffad00"/>
  <rect x="1130.3" y="842.0" width="5.33" height="18.0" fill="#ff9c00"/>
  <rect x="1134.7" y="842.0" width="5.33" height="18.0" fill="#ff8a00"/>
  <rect x="1139.2" y="842.0" width="5.33" height="18.0" fill="#ff7900"/>
  <rect x="1143.6" y="842.0" width="5.33" height="18.0" fill="#ff6800"/>
  <rect x="1148.0" y="842.0" width="5.33" height="18.0" fill="#ff5600"/>
  <rect x="1152.4" y="842.0" width="5.33" height="18.0" fill="#ff4500"/>
  <rect x="1156.8" y="842.0" width="5.33" height="18.0" fill="#ff3400"/>
  <rect x="1161.2" y="842.0" width="5.33" height="18.0" fill="#ff2300"/>
  <rect x="1165.6" y="842.0" width="5.33" height="18.0" fill="#ff1100"/>
  <rect x="1170.0" y="842.0" width="5.33" height="18.0" fill="#ff0000"/>
  <text x="910.0" y="836.0" font-family="sans-serif" font-size="18" fill="#ffffff" text-anchor="start">115 km/h</text>
  <text x="1170.0" y="836.0" font-family="sans-serif" font-size="18" fill="#ffffff" text-anchor="end">476 km/h</text>
</svg>
