<?xml version="1.0" encoding="UTF-8"?>
<svg xmlns="http://www.w3.org/2000/svg" width="1200" height="900" viewBox="0 0 1200 900">
  <rect x="0" y="0" width="1200" height="900" fill="#1a1a2e"/>
  <polygon points="925.4,450.0 925.2,439.8 924.7,429.6 923.9,419.4 922.8,409.2 921.4,399.1 919.6,389.0 917.5,379.0 915.2,369.1 912.5,359.2 909.5,349.5 906.1,339.8 902.5,330.2 898.6,320.8 894.4,311.5 889.9,302.3 885.1,293.2 880.1,284.4 874.7,275.7 869.1,267.1 863.2,258.7 857.1,250.6 850.7,242.6 844.1,234.8 837.2,227.3 830.1,219.9 822.7,212.8 815.2,205.9 807.4,199.3 799.4,192.9 791.3,186.8 782.9,180.9 774.3,175.3 765.6,169.9 756.8,164.9 747.7,160.1 738.5,155.6 729.2,151.4 719.8,147.5 710.2,143.9 700.5,140.5 690.8,137.5 680.9,134.8 671.0,132.5 661.0,130.4 650.9,128.6 640.8,127.2 630.6,126.1 620.4,125.3 610.2,124.8 600.0,124.6 589.8,124.8 579.6,125.3 569.4,126.1 559.2,127.2 549.1,128.6 539.0,130.4 529.0,132.5 519.1,134.8 509.2,137.5 499.5,140.5 489.8,143.9 480.2,147.5 470.8,151.4 461.5,155.6 452.3,160.1 443.2,164.9 434.4,169.9 425.7,175.3 417.1,180.9 408.7,186.8 400.6,192.9 392.6,199.3 384.8,205.9 377.3,212.8 369.9,219.9 362.8,227.3 355.9,234.8 349.3,242.6 342.9,250.6 336.8,258.7 330.9,267.1 325.3,275.7 319.9,284.4 314.9,293.2 310.1,302.3 305.6,311.5 301.4,320.8 297.5,330.2 293.9,339.8 290.5,349.5 287.5,359.2 284.8,369.1 282.5,379.0 280.4,389.0 278.6,399.1 277.2,409.2 276.1,419.4 275.3,429.6 274.8,439.8 274.6,450.0 274.8,460.2 275.3,470.4 276.1,480.6 277.2,490.8 278.6,500.9 280.4,511.0 282.5,521.0 284.8,530.9 287.5,540.8 290.5,550.5 293.9,560.2 297.5,569.8 301.4,579.2 305.6,588.5 310.1,597.7 314.9,606.8 319.9,615.6 325.3,624.3 330.9,632.9 336.8,641.3 342.9,649.4 349.3,657.4 355.9,665.2 362.8,672.7 369.9,680.1 377.3,687.2 384.8,694.1 392.6,700.7 400.6,707.1 408.7,713.2 417.1,719.1 425.7,724.7 434.4,730.1 443.2,735.1 452.3,739.9 461.5,744.4 470.8,748.6 480.2,752.5 489.8,756.1 499.5,759.5 509.2,762.5 519.1,765.2 529.0,767.5 539.0,769.6 549.1,771.4 559.2,772.8 569.4,773.9 579.6,774.7 589.8,775.2 600.0,775.4 610.2,775.2 620.4,774.7 630.6,773.9 640.8,772.8 650.9,771.4 661.0,769.6 671.0,767.5 680.9,765.2 690.8,762.5 700.5,759.5 710.2,756.1 719.8,752.5 729.2,748.6 738.5,744.4 747.7,739.9 756.8,735.1 765.6,730.1 774.3,724.7 782.9,719.1 791.3,713.2 799.4,707.1 807.4,700.7 815.2,694.1 822.7,687.2 830.1,680.1 837.2,672.7 844.1,665.2 850.7,657.4 857.1,649.4 863.2,641.3 869.1,632.9 874.7,624.3 880.1,615.6 885.1,606.8 889.9,597.7 894.4,588.5 898.6,579.2 902.5,569.8 906.1,560.2 909.5,550.5 912.5,540.8 915.2,530.9 917.5,521.0 919.6,511.0 921.4,500.9 922.8,490.8 923.9,480.6 924.7,470.4 925.2,460.2 966.7,461.5 966.2,473.0 965.3,484.5 964.0,496.0 962.4,507.4 960.4,518.8 958.1,530.0 955.4,541.3 952.4,552.4 949.0,563.4 945.2,574.3 941.2,585.1 936.7,595.7 932.0,606.2 926.9,616.6 921.5,626.8 915.8,636.8 909.8,646.6 903.5,656.2 896.8,665.7 889.9,674.9 882.7,683.9 875.2,692.7 867.5,701.2 859.5,709.5 851.2,717.5 842.7,725.2 833.9,732.7 824.9,739.9 815.7,746.8 806.2,753.5 796.6,759.8 786.8,765.8 776.8,771.5 766.6,776.9 756.2,782.0 745.7,786.7 735.1,791.2 724.3,795.2 713.4,799.0 702.4,802.4 691.3,805.4 680.0,808.1 668.8,810.4 657.4,812.4 646.0,814.0 634.5,815.3 623.0,816.2 611.5,816.7 600.0,816.9 588.5,816.7 577.0,816.2 565.5,815.3 554.0,814.0 542.6,812.4 531.2,810.4 520.0,808.1 508.7,805.4 497.6,802.4 486.6,799.0 475.7,795.2 464.9,791.2 454.3,786.7 443.8,782.0 433.4,776.9 423.2,771.5 413.2,765.8 403.4,759.8 393.8,753.5 384.3,746.8 375.1,739.9 366.1,732.7 357.3,725.2 348.8,717.5 340.5,709.5 332.5,701.2 324.8,692.7 317.3,683.9 310.1,674.9 303.2,665.7 296.5,656.2 290.2,646.6 284.2,636.8 278.5,626.8 273.1,616.6 268.0,606.2 263.3,595.7 258.8,585.1 254.8,574.3 251.0,563.4 247.6,552.4 244.6,541.3 241.9,530.0 239.6,518.8 237.6,507.4 236.0,496.0 234.7,484.5 233.8,473.0 233.3,461.5 233.1,450.0 233.3,438.5 233.8,427.0 234.7,415.5 236.0,404.0 237.6,392.6 239.6,381.2 241.9,370.0 244.6,358.7 247.6,347.6 251.0,336.6 254.8,325.7 258.8,314.9 263.3,304.3 268.0,293.8 273.1,283.4 278.5,273.2 284.2,263.2 290.2,253.4 296.5,243.8 303.2,234.3 310.1,225.1 317.3,216.1 324.8,207.3 332.5,198.8 340.5,190.5 348.8,182.5 357.3,174.8 366.1,167.3 375.1,160.1 384.3,153.2 393.8,146.5 403.4,140.2 413.2,134.2 423.2,128.5 433.4,123.1 443.8,118.0 454.3,113.3 464.9,108.8 475.7,104.8 486.6,101.0 497.6,97.6 508.7,94.6 520.0,91.9 531.2,89.6 542.6,87.6 554.0,86.0 565.5,84.7 577.0,83.8 588.5,83.3 600.0,83.1 611.5,83.3 623.0,83.8 634.5,84.7 646.0,86.0 657.4,87.6 668.8,89.6 680.0,91.9 691.3,94.6 702.4,97.6 713.4,101.0 724.3,104.8 735.1,108.8 745.7,113.3 756.2,118.0 766.6,123.1 776.8,128.5 786.8,134.2 796.6,140.2 806.2,146.5 815.7,153.2 824.9,160.1 833.9,167.3 842.7,174.8 851.2,182.5 859.5,190.5 867.5,198.8 875.2,207.3 882.7,216.1 889.9,225.1 896.8,234.3 903.5,243.8 909.8,253.4 915.8,263.2 921.5,273.2 926.9,283.4 932.0,293.8 936.7,304.3 941.2,314.9 945.2,325.7 949.0,336.6 952.4,347.6 955.4,358.7 958.1,370.0 960.4,381.2 962.4,392.6 964.0,404.0 965.3,415.5 966.2,427.0 966.7,438.5 966.9,450.0 " fill="#2d2d44" stroke="none"/>
  <polyline points="925.4,450.0 925.2,439.8 924.7,429.6 923.9,419.4 922.8,409.2 921.4,399.1 919.6,389.0 917.5,379.0 915.2,369.1 912.5,359.2 909.5,349.5 906.1,339.8 902.5,330.2 898.6,320.8 894.4,311.5 889.9,302.3 885.1,293.2 880.1,284.4 874.7,275.7 869.1,267.1 863.2,258.7 857.1,250.6 850.7,242.6 844.1,234.8 837.2,227.3 830.1,219.9 822.7,212.8 815.2,205.9 807.4,199.3 799.4,192.9 791.3,186.8 782.9,180.9 774.3,175.3 765.6,169.9 756.8,164.9 747.7,160.1 738.5,155.6 729.2,151.4 719.8,147.5 710.2,143.9 700.5,140.5 690.8,137.5 680.9,134.8 671.0,132.5 661.0,130.4 650.9,128.6 640.8,127.2 630.6,126.1 620.4,125.3 610.2,124.8 600.0,124.6 589.8,124.8 579.6,125.3 569.4,126.1 559.2,127.2 549.1,128.6 539.0,130.4 529.0,132.5 519.1,134.8 509.2,137.5 499.5,140.5 489.8,143.9 480.2,147.5 470.8,151.4 461.5,155.6 452.3,160.1 443.2,164.9 434.4,169.9 425.7,175.3 417.1,180.9 408.7,186.8 400.6,192.9 392.6,199.3 384.8,205.9 377.3,212.8 369.9,219.9 362.8,227.3 355.9,234.8 349.3,242.6 342.9,250.6 336.8,258.7 330.9,267.1 325.3,275.7 319.9,284.4 314.9,293.2 310.1,302.3 305.6,311.5 301.4,320.8 297.5,330.2 293.9,339.8 290.5,349.5 287.5,359.2 284.8,369.1 282.5,379.0 280.4,389.0 278.6,399.1 277.2,409.2 276.1,419.4 275.3,429.6 274.8,439.8 274.6,450.0 274.8,460.2 275.3,470.4 276.1,480.6 277.2,490.8 278.6,500.9 280.4,511.0 282.5,521.0 284.8,530.9 287.5,540.8 290.5,550.5 293.9,560.2 297.5,569.8 301.4,579.2 305.6,588.5 310.1,597.7 314.9,606.8 319.9,615.6 325.3,624.3 330.9,632.9 336.8,641.3 342.9,649.4 349.3,657.4 355.9,665.2 362.8,672.7 369.9,680.1 377.3,687.2 384.8,694.1 392.6,700.7 400.6,707.1 408.7,713.2 417.1,719.1 425.7,724.7 434.4,730.1 443.2,735.1 452.3,739.9 461.5,744.4 470.8,748.6 480.2,752.5 489.8,756.1 499.5,759.5 509.2,762.5 519.1,765.2 529.0,767.5 539.0,769.6 549.1,771.4 559.2,772.8 569.4,773.9 579.6,774.7 589.8,775.2 600.0,775.4 610.2,775.2 620.4,774.7 630.6,773.9 640.8,772.8 650.9,771.4 661.0,769.6 671.0,767.5 680.9,765.2 690.8,762.5 700.5,759.5 710.2,756.1 719.8,752.5 729.2,748.6 738.5,744.4 747.7,739.9 756.8,735.1 765.6,730.1 774.3,724.7 782.9,719.1 791.3,713.2 799.4,707.1 807.4,700.7 815.2,694.1 822.7,687.2 830.1,680.1 837.2,672.7 844.1,665.2 850.7,657.4 857.1,649.4 863.2,641.3 869.1,632.9 874.7,624.3 880.1,615.6 885.1,606.8 889.9,597.7 894.4,588.5 898.6,579.2 902.5,569.8 906.1,560.2 909.5,550.5 912.5,540.8 915.2,530.9 917.5,521.0 919.6,511.0 921.4,500.9 922.8,490.8 923.9,480.6 924.7,470.4 925.2,460.2 925.4,450.0 " fill="none" stroke="#555555" stroke-width="4.15"/>
  <polyline points="966.9,450.0 966.7,438.5 966.2,427.0 965.3,415.5 964.0,404.0 962.4,392.6 960.4,381.2 958.1,370.0 955.4,358.7 952.4,347.6 949.0,336.6 945.2,325.7 941.2,314.9 936.7,304.3 932.0,293.8 926.9,283.4 921.5,273.2 915.8,263.2 909.8,253.4 903.5,243.8 896.8,234.3 889.9,225.1 882.7,216.1 875.2,207.3 867.5,198.8 859.5,190.5 851.2,182.5 842.7,174.8 833.9,167.3 824.9,160.1 815.7,153.2 806.2,146.5 796.6,140.2 786.8,134.2 776.8,128.5 766.6,123.1 756.2,118.0 745.7,113.3 735.1,108.8 724.3,104.8 713.4,101.0 702.4,97.6 691.3,94.6 680.0,91.9 668.8,89.6 657.4,87.6 646.0,86.0 634.5,84.7 623.0,83.8 611.5,83.3 600.0,83.1 588.5,83.3 577.0,83.8 565.5,84.7 554.0,86.0 542.6,87.6 531.2,89.6 520.0,91.9 508.7,94.6 497.6,97.6 486.6,101.0 475.7,104.8 464.9,108.8 454.3,113.3 443.8,118.0 433.4,123.1 423.2,128.5 413.2,134.2 403.4,140.2 393.8,146.5 384.3,153.2 375.1,160.1 366.1,167.3 357.3,174.8 348.8,182.5 340.5,190.5 332.5,198.8 324.8,207.3 317.3,216.1 310.1,225.1 303.2,234.3 296.5,243.8 290.2,253.4 284.2,263.2 278.5,273.2 273.1,283.4 268.0,293.8 263.3,304.3 258.8,314.9 254.8,325.7 251.0,336.6 247.6,347.6 244.6,358.7 241.9,370.0 239.6,381.2 237.6,392.6 236.0,404.0 234.7,415.5 233.8,427.0 233.3,438.5 233.1,450.0 233.3,461.5 233.8,473.0 234.7,484.5 236.0,496.0 237.6,507.4 239.6,518.8 241.9,530.0 244.6,541.3 247.6,552.4 251.0,563.4 254.8,574.3 258.8,585.1 263.3,595.7 268.0,606.2 273.1,616.6 278.5,626.8 284.2,636.8 290.2,646.6 296.5,656.2 303.2,665.7 310.1,674.9 317.3,683.9 324.8,692.7 332.5,701.2 340.5,709.5 348.8,717.5 357.3,725.2 366.1,732.7 375.1,739.9 384.3,746.8 393.8,753.5 403.4,759.8 413.2,765.8 423.2,771.5 433.4,776.9 443.8,782.0 454.3,786.7 464.9,791.2 475.7,795.2 486.6,799.0 497.6,802.4 508.7,805.4 520.0,808.1 531.2,810.4 542.6,812.4 554.0,814.0 565.5,815.3 577.0,816.2 588.5,816.7 600.0,816.9 611.5,816.7 623.0,816.2 634.5,815.3 646.0,814.0 657.4,812.4 668.8,810.4 680.0,808.1 691.3,805.4 702.4,802.4 713.4,799.0 724.3,795.2 735.1,791.2 745.7,786.7 756.2,782.0 766.6,776.9 776.8,771.5 786.8,765.8 796.6,759.8 806.2,753.5 815.7,746.8 824.9,739.9 833.9,732.7 842.7,725.2 851.2,717.5 859.5,709.5 867.5,701.2 875.2,692.7 882.7,683.9 889.9,674.9 896.8,665.7 903.5,656.2 909.8,646.6 915.8,636.8 921.5,626.8 926.9,616.6 932.0,606.2 936.7,595.7 941.2,585.1 945.2,574.3 949.0,563.4 952.4,552.4 955.4,541.3 958.1,530.0 960.4,518.8 962.4,507.4 964.0,496.0 965.3,484.5 966.2,473.0 966.7,461.5 966.9,450.0 " fill="none" stroke="#555555" stroke-width="4.15"/>
  <line x1="946.2" y1="450.0" x2="946.0" y2="439.1" stroke="#74ff00" stroke-width="10.38" stroke-linecap="round"/>
  <line x1="946.0" y1="439.1" x2="945.5" y2="428.3" stroke="#00ff78" stroke-width="10.38" stroke-linecap="round"/>
  <line x1="945.5" y1="428.3" x2="944.6" y2="417.4" stroke="#00fff7" stroke-width="10.38" stroke-linecap="round"/>
  <line x1="944.6" y1="417.4" x2="943.4" y2="406.6" stroke="#25ff00" stroke-width="10.38" stroke-linecap="round"/>
  <line x1="943.4" y1="406.6" x2="941.9" y2="395.8" stroke="#ffd700" stroke-width="10.38" stroke-linecap="round"/>
  <line x1="941.9" y1="395.8" x2="940.0" y2="385.1" stroke="#8eff00" stroke-width="10.38" stroke-linecap="round"/>
  <line x1="940.0" y1="385.1" x2="937.8" y2="374.5" stroke="#0fff00" stroke-width="10.38" stroke-linecap="round"/>
  <line x1="937.8" y1="374.5" x2="935.3" y2="363.9" stroke="#00ff3f" stroke-width="10.38" stroke-linecap="round"/>
  <line x1="935.3" y1="363.9" x2="932.4" y2="353.4" stroke="#00ffad" stroke-width="10.38" stroke-linecap="round"/>
  <line x1="932.4" y1="353.4" x2="929.2" y2="343.0" stroke="#00ff74" stroke-width="10.38" stroke-linecap="round"/>
  <line x1="929.2" y1="343.0" x2="925.7" y2="332.7" stroke="#14ff00" stroke-width="10.38" stroke-linecap="round"/>
  <line x1="925.7" y1="332.7" x2="921.8" y2="322.6" stroke="#ffb800" stroke-width="10.38" stroke-linecap="round"/>
  <line x1="921.8" y1="322.6" x2="917.7" y2="312.5" stroke="#ffdf00" stroke-width="10.38" stroke-linecap="round"/>
  <line x1="917.7" y1="312.5" x2="913.2" y2="302.6" stroke="#00ff51" stroke-width="10.38" stroke-linecap="round"/>
  <line x1="913.2" y1="302.6" x2="908.4" y2="292.8" stroke="#00ff3b" stroke-width="10.38" stroke-linecap="round"/>
  <line x1="908.4" y1="292.8" x2="903.3" y2="283.2" stroke="#86ff00" stroke-width="10.38" stroke-linecap="round"/>
  <line x1="903.3" y1="283.2" x2="897.9" y2="273.8" stroke="#9bff00" stroke-width="10.38" stroke-linecap="round"/>
  <line x1="897.9" y1="273.8" x2="892.3" y2="264.5" stroke="#21ff00" stroke-width="10.38" stroke-linecap="round"/>
  <line x1="892.3" y1="264.5" x2="886.3" y2="255.4" stroke="#00ff14" stroke-width="10.38" stroke-linecap="round"/>
  <line x1="886.3" y1="255.4" x2="880.0" y2="246.5" stroke="#00ff74" stroke-width="10.38" stroke-linecap="round"/>
  <line x1="880.0" y1="246.5" x2="873.5" y2="237.8" stroke="#00ff32" stroke-width="10.38" stroke-linecap="round"/>
  <line x1="873.5" y1="237.8" x2="866.7" y2="229.4" stroke="#32ff00" stroke-width="10.38" stroke-linecap="round"/>
  <line x1="866.7" y1="229.4" x2="859.7" y2="221.1" stroke="#00ff14" stroke-width="10.38" stroke-linecap="round"/>
  <line x1="859.7" y1="221.1" x2="852.3" y2="213.0" stroke="#14ff00" stroke-width="10.38" stroke-linecap="round"/>
  <line x1="852.3" y1="213.0" x2="844.8" y2="205.2" stroke="#a9ff00" stroke-width="10.38" stroke-linecap="round"/>
  <line x1="844.8" y1="205.2" x2="837.0" y2="197.7" stroke="#97ff00" stroke-width="10.38" stroke-linecap="round"/>
  <line x1="837.0" y1="197.7" x2="828.9" y2="190.3" stroke="#00ff44" stroke-width="10.38" stroke-linecap="round"/>
  <line x1="828.9" y1="190.3" x2="820.6" y2="183.3" stroke="#4dff00" stroke-width="10.38" stroke-linecap="round"/>
  <line x1="820.6" y1="183.3" x2="812.2" y2="176.5" stroke="#fcff00" stroke-width="10.38" stroke-linecap="round"/>
  <line x1="812.2" y1="176.5" x2="803.5" y2="170.0" stroke="#00ffad" stroke-width="10.38" stroke-linecap="round"/>
  <line x1="803.5" y1="170.0" x2="794.6" y2="163.7" stroke="#00ffa4" stroke-width="10.38" stroke-linecap="round"/>
  <line x1="794.6" y1="163.7" x2="785.5" y2="157.7" stroke="#efff00" stroke-width="10.38" stroke-linecap="round"/>
  <line x1="785.5" y1="157.7" x2="776.2" y2="152.1" stroke="#4dff00" stroke-width="10.38" stroke-linecap="round"/>
  <line x1="776.2" y1="152.1" x2="766.8" y2="146.7" stroke="#00ff14" stroke-width="10.38" stroke-linecap="round"/>
  <line x1="766.8" y1="146.7" x2="757.2" y2="141.6" stroke="#00ff3f" stroke-width="10.38" stroke-linecap="round"/>
  <line x1="757.2" y1="141.6" x2="747.4" y2="136.8" stroke="#00ff44" stroke-width="10.38" stroke-linecap="round"/>
  <line x1="747.4" y1="136.8" x2="737.5" y2="132.3" stroke="#ddff00" stroke-width="10.38" stroke-linecap="round"/>
  <line x1="737.5" y1="132.3" x2="727.4" y2="128.2" stroke="#8eff00" stroke-width="10.38" stroke-linecap="round"/>
  <line x1="727.4" y1="128.2" x2="717.3" y2="124.3" stroke="#32ff00" stroke-width="10.38" stroke-linecap="round"/>
  <line x1="717.3" y1="124.3" x2="707.0" y2="120.8" stroke="#1cff00" stroke-width="10.38" stroke-linecap="round"/>
  <line x1="707.0" y1="120.8" x2="696.6" y2="117.6" stroke="#00ffa4" stroke-width="10.38" stroke-linecap="round"/>
  <line x1="696.6" y1="117.6" x2="686.1" y2="114.7" stroke="#00ff3f" stroke-width="10.38" stroke-linecap="round"/>
  <line x1="686.1" y1="114.7" x2="675.5" y2="112.2" stroke="#c7ff00" stroke-width="10.38" stroke-linecap="round"/>
  <line x1="675.5" y1="112.2" x2="664.9" y2="110.0" stroke="#4dff00" stroke-width="10.38" stroke-linecap="round"/>
  <line x1="664.9" y1="110.0" x2="654.2" y2="108.1" stroke="#8aff00" stroke-width="10.38" stroke-linecap="round"/>
  <line x1="654.2" y1="108.1" x2="643.4" y2="106.6" stroke="#ff2c00" stroke-width="10.38" stroke-linecap="round"/>
  <line x1="643.4" y1="106.6" x2="632.6" y2="105.4" stroke="#4dff00" stroke-width="10.38" stroke-linecap="round"/>
  <line x1="632.6" y1="105.4" x2="621.7" y2="104.5" stroke="#00bcff" stroke-width="10.38" stroke-linecap="round"/>
  <line x1="621.7" y1="104.5" x2="610.9" y2="104.0" stroke="#21ff00" stroke-width="10.38" stroke-linecap="round"/>
  <line x1="610.9" y1="104.0" x2="600.0" y2="103.8" stroke="#fcff00" stroke-width="10.38" stroke-linecap="round"/>
  <line x1="600.0" y1="103.8" x2="589.1" y2="104.0" stroke="#44ff00" stroke-width="10.38" stroke-linecap="round"/>
  <line x1="589.1" y1="104.0" x2="578.3" y2="104.5" stroke="#00ff55" stroke-width="10.38" stroke-linecap="round"/>
  <line x1="578.3" y1="104.5" x2="567.4" y2="105.4" stroke="#00ffd0" stroke-width="10.38" stroke-linecap="round"/>
  <line x1="567.4" y1="105.4" x2="556.6" y2="106.6" stroke="#1cff00" stroke-width="10.38" stroke-linecap="round"/>
  <line x1="556.6" y1="106.6" x2="545.8" y2="108.1" stroke="#ccff00" stroke-width="10.38" stroke-linecap="round"/>
  <line x1="545.8" y1="108.1" x2="535.1" y2="110.0" stroke="#67ff00" stroke-width="10.38" stroke-linecap="round"/>
  <line x1="535.1" y1="110.0" x2="524.5" y2="112.2" stroke="#00ff07" stroke-width="10.38" stroke-linecap="round"/>
  <line x1="524.5" y1="112.2" x2="513.9" y2="114.7" stroke="#00ff78" stroke-width="10.38" stroke-linecap="round"/>
  <line x1="513.9" y1="114.7" x2="503.4" y2="117.6" stroke="#00ff8a" stroke-width="10.38" stroke-linecap="round"/>
  <line x1="503.4" y1="117.6" x2="493.0" y2="120.8" stroke="#00ff07" stroke-width="10.38" stroke-linecap="round"/>
  <line x1="493.0" y1="120.8" x2="482.7" y2="124.3" stroke="#62ff00" stroke-width="10.38" stroke-linecap="round"/>
  <line x1="482.7" y1="124.3" x2="472.6" y2="128.2" stroke="#5aff00" stroke-width="10.38" stroke-linecap="round"/>
  <line x1="472.6" y1="128.2" x2="462.5" y2="132.3" stroke="#4dff00" stroke-width="10.38" stroke-linecap="round"/>
  <line x1="462.5" y1="132.3" x2="452.6" y2="136.8" stroke="#a0ff00" stroke-width="10.38" stroke-linecap="round"/>
  <line x1="452.6" y1="136.8" x2="442.8" y2="141.6" stroke="#a4ff00" stroke-width="10.38" stroke-linecap="round"/>
  <line x1="442.8" y1="141.6" x2="433.2" y2="146.7" stroke="#00ff18" stroke-width="10.38" stroke-linecap="round"/>
  <line x1="433.2" y1="146.7" x2="423.8" y2="152.1" stroke="#25ff00" stroke-width="10.38" stroke-linecap="round"/>
  <line x1="423.8" y1="152.1" x2="414.5" y2="157.7" stroke="#b1ff00" stroke-width="10.38" stroke-linecap="round"/>
  <line x1="414.5" y1="157.7" x2="405.4" y2="163.7" stroke="#00ff2e" stroke-width="10.38" stroke-linecap="round"/>
  <line x1="405.4" y1="163.7" x2="396.5" y2="170.0" stroke="#0095ff" stroke-width="10.38" stroke-linecap="round"/>
  <line x1="396.5" y1="170.0" x2="387.8" y2="176.5" stroke="#00ff62" stroke-width="10.38" stroke-linecap="round"/>
  <line x1="387.8" y1="176.5" x2="379.4" y2="183.3" stroke="#ff3900" stroke-width="10.38" stroke-linecap="round"/>
  <line x1="379.4" y1="183.3" x2="371.1" y2="190.3" stroke="#ffe400" stroke-width="10.38" stroke-linecap="round"/>
  <line x1="371.1" y1="190.3" x2="363.0" y2="197.7" stroke="#00ffef" stroke-width="10.38" stroke-linecap="round"/>
  <line x1="363.0" y1="197.7" x2="355.2" y2="205.2" stroke="#00ffe6" stroke-width="10.38" stroke-linecap="round"/>
  <line x1="355.2" y1="205.2" x2="347.7" y2="213.0" stroke="#07ff00" stroke-width="10.38" stroke-linecap="round"/>
  <line x1="347.7" y1="213.0" x2="340.3" y2="221.1" stroke="#00ff25" stroke-width="10.38" stroke-linecap="round"/>
  <line x1="340.3" y1="221.1" x2="333.3" y2="229.4" stroke="#51ff00" stroke-width="10.38" stroke-linecap="round"/>
  <line x1="333.3" y1="229.4" x2="326.5" y2="237.8" stroke="#ffc900" stroke-width="10.38" stroke-linecap="round"/>
  <line x1="326.5" y1="237.8" x2="320.0" y2="246.5" stroke="#3fff00" stroke-width="10.38" stroke-linecap="round"/>
  <line x1="320.0" y1="246.5" x2="313.7" y2="255.4" stroke="#00fff3" stroke-width="10.38" stroke-linecap="round"/>
  <line x1="313.7" y1="255.4" x2="307.7" y2="264.5" stroke="#00ff0b" stroke-width="10.38" stroke-linecap="round"/>
  <line x1="307.7" y1="264.5" x2="302.1" y2="273.8" stroke="#ff6d00" stroke-width="10.38" stroke-linecap="round"/>
  <line x1="302.1" y1="273.8" x2="296.7" y2="283.2" stroke="#ffa600" stroke-width="10.38" stroke-linecap="round"/>
  <line x1="296.7" y1="283.2" x2="291.6" y2="292.8" stroke="#00ff62" stroke-width="10.38" stroke-linecap="round"/>
  <line x1="291.6" y1="292.8" x2="286.8" y2="302.6" stroke="#00ffe1" stroke-width="10.38" stroke-linecap="round"/>
  <line x1="286.8" y1="302.6" x2="282.3" y2="312.5" stroke="#a0ff00" stroke-width="10.38" stroke-linecap="round"/>
  <line x1="282.3" y1="312.5" x2="278.2" y2="322.6" stroke="#efff00" stroke-width="10.38" stroke-linecap="round"/>
  <line x1="278.2" y1="322.6" x2="274.3" y2="332.7" stroke="#00ff5a" stroke-width="10.38" stroke-linecap="round"/>
  <line x1="274.3" y1="332.7" x2="270.8" y2="343.0" stroke="#00ff8a" stroke-width="10.38" stroke-linecap="round"/>
  <line x1="270.8" y1="343.0" x2="267.6" y2="353.4" stroke="#00ff21" stroke-width="10.38" stroke-linecap="round"/>
  <line x1="267.6" y1="353.4" x2="264.7" y2="363.9" stroke="#00ff18" stroke-width="10.38" stroke-linecap="round"/>
  <line x1="264.7" y1="363.9" x2="262.2" y2="374.5" stroke="#51ff00" stroke-width="10.38" stroke-linecap="round"/>
  <line x1="262.2" y1="374.5" x2="260.0" y2="385.1" stroke="#e1ff00" stroke-width="10.38" stroke-linecap="round"/>
  <line x1="260.0" y1="385.1" x2="258.1" y2="395.8" stroke="#62ff00" stroke-width="10.38" stroke-linecap="round"/>
  <line x1="258.1" y1="395.8" x2="256.6" y2="406.6" stroke="#2aff00" stroke-width="10.38" stroke-linecap="round"/>
  <line x1="256.6" y1="406.6" x2="255.4" y2="417.4" stroke="#baff00" stroke-width="10.38" stroke-linecap="round"/>
  <line x1="255.4" y1="417.4" x2="254.5" y2="428.3" stroke="#00ff0b" stroke-width="10.38" stroke-linecap="round"/>
  <line x1="254.5" y1="428.3" x2="254.0" y2="439.1" stroke="#18ff00" stroke-width="10.38" stroke-linecap="round"/>
  <line x1="254.0" y1="439.1" x2="253.8" y2="450.0" stroke="#fff100" stroke-width="10.38" stroke-linecap="round"/>
  <line x1="253.8" y1="450.0" x2="254.0" y2="460.9" stroke="#51ff00" stroke-width="10.38" stroke-linecap="round"/>
  <line x1="254.0" y1="460.9" x2="254.5" y2="471.7" stroke="#00ffc3" stroke-width="10.38" stroke-linecap="round"/>
  <line x1="254.5" y1="471.7" x2="255.4" y2="482.6" stroke="#00ecff" stroke-width="10.38" stroke-linecap="round"/>
  <line x1="255.4" y1="482.6" x2="256.6" y2="493.4" stroke="#1cff00" stroke-width="10.38" stroke-linecap="round"/>
  <line x1="256.6" y1="493.4" x2="258.1" y2="504.2" stroke="#ffd700" stroke-width="10.38" stroke-linecap="round"/>
  <line x1="258.1" y1="504.2" x2="260.0" y2="514.9" stroke="#00ff44" stroke-width="10.38" stroke-linecap="round"/>
  <line x1="260.0" y1="514.9" x2="262.2" y2="525.5" stroke="#00ff78" stroke-width="10.38" stroke-linecap="round"/>
  <line x1="262.2" y1="525.5" x2="264.7" y2="536.1" stroke="#ff7200" stroke-width="10.38" stroke-linecap="round"/>
  <line x1="264.7" y1="536.1" x2="267.6" y2="546.6" stroke="#d0ff00" stroke-width="10.38" stroke-linecap="round"/>
  <line x1="267.6" y1="546.6" x2="270.8" y2="557.0" stroke="#00ffa0" stroke-width="10.38" stroke-linecap="round"/>
  <line x1="270.8" y1="557.0" x2="274.3" y2="567.3" stroke="#00ff4d" stroke-width="10.38" stroke-linecap="round"/>
  <line x1="274.3" y1="567.3" x2="278.2" y2="577.4" stroke="#51ff00" stroke-width="10.38" stroke-linecap="round"/>
  <line x1="278.2" y1="577.4" x2="282.3" y2="587.5" stroke="#67ff00" stroke-width="10.38" stroke-linecap="round"/>
  <line x1="282.3" y1="587.5" x2="286.8" y2="597.4" stroke="#00ffad" stroke-width="10.38" stroke-linecap="round"/>
  <line x1="286.8" y1="597.4" x2="291.6" y2="607.2" stroke="#00ffa4" stroke-width="10.38" stroke-linecap="round"/>
  <line x1="291.6" y1="607.2" x2="296.7" y2="616.8" stroke="#ff7600" stroke-width="10.38" stroke-linecap="round"/>
  <line x1="296.7" y1="616.8" x2="302.1" y2="626.2" stroke="#ffe800" stroke-width="10.38" stroke-linecap="round"/>
  <line x1="302.1" y1="626.2" x2="307.7" y2="635.5" stroke="#0053ff" stroke-width="10.38" stroke-linecap="round"/>
  <line x1="307.7" y1="635.5" x2="313.7" y2="644.6" stroke="#00ffa9" stroke-width="10.38" stroke-linecap="round"/>
  <line x1="313.7" y1="644.6" x2="320.0" y2="653.5" stroke="#ff0000" stroke-width="10.38" stroke-linecap="round"/>
  <line x1="320.0" y1="653.5" x2="326.5" y2="662.2" stroke="#c3ff00" stroke-width="10.38" stroke-linecap="round"/>
  <line x1="326.5" y1="662.2" x2="333.3" y2="670.6" stroke="#00dfff" stroke-width="10.38" stroke-linecap="round"/>
  <line x1="333.3" y1="670.6" x2="340.3" y2="678.9" stroke="#3bff00" stroke-width="10.38" stroke-linecap="round"/>
  <line x1="340.3" y1="678.9" x2="347.7" y2="687.0" stroke="#ff6900" stroke-width="10.38" stroke-linecap="round"/>
  <line x1="347.7" y1="687.0" x2="355.2" y2="694.8" stroke="#00ff6b" stroke-width="10.38" stroke-linecap="round"/>
  <line x1="355.2" y1="694.8" x2="363.0" y2="702.3" stroke="#0000ff" stroke-width="10.38" stroke-linecap="round"/>
  <line x1="363.0" y1="702.3" x2="371.1" y2="709.7" stroke="#00ff1c" stroke-width="10.38" stroke-linecap="round"/>
  <line x1="371.1" y1="709.7" x2="379.4" y2="716.7" stroke="#ffc500" stroke-width="10.38" stroke-linecap="round"/>
  <line x1="379.4" y1="716.7" x2="387.8" y2="723.5" stroke="#ffe400" stroke-width="10.38" stroke-linecap="round"/>
  <line x1="387.8" y1="723.5" x2="396.5" y2="730.0" stroke="#00ff3b" stroke-width="10.38" stroke-linecap="round"/>
  <line x1="396.5" y1="730.0" x2="405.4" y2="736.3" stroke="#00ceff" stroke-width="10.38" stroke-linecap="round"/>
  <line x1="405.4" y1="736.3" x2="414.5" y2="742.3" stroke="#1cff00" stroke-width="10.38" stroke-linecap="round"/>
  <line x1="414.5" y1="742.3" x2="423.8" y2="747.9" stroke="#ff6900" stroke-width="10.38" stroke-linecap="round"/>
  <line x1="423.8" y1="747.9" x2="433.2" y2="753.3" stroke="#ffab00" stroke-width="10.38" stroke-linecap="round"/>
  <line x1="433.2" y1="753.3" x2="442.8" y2="758.4" stroke="#00ff74" stroke-width="10.38" stroke-linecap="round"/>
  <line x1="442.8" y1="758.4" x2="452.6" y2="763.2" stroke="#00ffc7" stroke-width="10.38" stroke-linecap="round"/>
  <line x1="452.6" y1="763.2" x2="462.5" y2="767.7" stroke="#a9ff00" stroke-width="10.38" stroke-linecap="round"/>
  <line x1="462.5" y1="767.7" x2="472.6" y2="771.8" stroke="#62ff00" stroke-width="10.38" stroke-linecap="round"/>
  <line x1="472.6" y1="771.8" x2="482.7" y2="775.7" stroke="#00ff2a" stroke-width="10.38" stroke-linecap="round"/>
  <line x1="482.7" y1="775.7" x2="493.0" y2="779.2" stroke="#07ff00" stroke-width="10.38" stroke-linecap="round"/>
  <line x1="493.0" y1="779.2" x2="503.4" y2="782.4" stroke="#00ff3f" stroke-width="10.38" stroke-linecap="round"/>
  <line x1="503.4" y1="782.4" x2="513.9" y2="785.3" stroke="#0fff00" stroke-width="10.38" stroke-linecap="round"/>
  <line x1="513.9" y1="785.3" x2="524.5" y2="787.8" stroke="#ffe400" stroke-width="10.38" stroke-linecap="round"/>
  <line x1="524.5" y1="787.8" x2="535.1" y2="790.0" stroke="#f3ff00" stroke-width="10.38" stroke-linecap="round"/>
  <line x1="535.1" y1="790.0" x2="545.8" y2="791.9" stroke="#00ff81" stroke-width="10.38" stroke-linecap="round"/>
  <line x1="545.8" y1="791.9" x2="556.6" y2="793.4" stroke="#00ff3b" stroke-width="10.38" stroke-linecap="round"/>
  <line x1="556.6" y1="793.4" x2="567.4" y2="794.6" stroke="#5aff00" stroke-width="10.38" stroke-linecap="round"/>
  <line x1="567.4" y1="794.6" x2="578.3" y2="795.5" stroke="#00ff78" stroke-width="10.38" stroke-linecap="round"/>
  <line x1="578.3" y1="795.5" x2="589.1" y2="796.0" stroke="#81ff00" stroke-width="10.38" stroke-linecap="round"/>
  <line x1="589.1" y1="796.0" x2="600.0" y2="796.2" stroke="#ff6d00" stroke-width="10.38" stroke-linecap="round"/>
  <line x1="600.0" y1="796.2" x2="610.9" y2="796.0" stroke="#6bff00" stroke-width="10.38" stroke-linecap="round"/>
  <line x1="610.9" y1="796.0" x2="621.7" y2="795.5" stroke="#00ffd0" stroke-width="10.38" stroke-linecap="round"/>
  <line x1="621.7" y1="795.5" x2="632.6" y2="794.6" stroke="#00d7ff" stroke-width="10.38" stroke-linecap="round"/>
  <line x1="632.6" y1="794.6" x2="643.4" y2="793.4" stroke="#93ff00" stroke-width="10.38" stroke-linecap="round"/>
  <line x1="643.4" y1="793.4" x2="654.2" y2="791.9" stroke="#ffd200" stroke-width="10.38" stroke-linecap="round"/>
  <line x1="654.2" y1="791.9" x2="664.9" y2="790.0" stroke="#00ff37" stroke-width="10.38" stroke-linecap="round"/>
  <line x1="664.9" y1="790.0" x2="675.5" y2="787.8" stroke="#25ff00" stroke-width="10.38" stroke-linecap="round"/>
  <line x1="675.5" y1="787.8" x2="686.1" y2="785.3" stroke="#b1ff00" stroke-width="10.38" stroke-linecap="round"/>
  <line x1="686.1" y1="785.3" x2="696.6" y2="782.4" stroke="#00ff62" stroke-width="10.38" stroke-linecap="round"/>
  <line x1="696.6" y1="782.4" x2="707.0" y2="779.2" stroke="#00ff5e" stroke-width="10.38" stroke-linecap="round"/>
  <line x1="707.0" y1="779.2" x2="717.3" y2="775.7" stroke="#7dff00" stroke-width="10.38" stroke-linecap="round"/>
  <line x1="717.3" y1="775.7" x2="727.4" y2="771.8" stroke="#4dff00" stroke-width="10.38" stroke-linecap="round"/>
  <line x1="727.4" y1="771.8" x2="737.5" y2="767.7" stroke="#ccff00" stroke-width="10.38" stroke-linecap="round"/>
  <line x1="737.5" y1="767.7" x2="747.4" y2="763.2" stroke="#ddff00" stroke-width="10.38" stroke-linecap="round"/>
  <line x1="747.4" y1="763.2" x2="757.2" y2="758.4" stroke="#00fffc" stroke-width="10.38" stroke-linecap="round"/>
  <line x1="757.2" y1="758.4" x2="766.8" y2="753.3" stroke="#00c1ff" stroke-width="10.38" stroke-linecap="round"/>
  <line x1="766.8" y1="753.3" x2="776.2" y2="747.9" stroke="#00ff0f" stroke-width="10.38" stroke-linecap="round"/>
  <line x1="776.2" y1="747.9" x2="785.5" y2="742.3" stroke="#00ff02" stroke-width="10.38" stroke-linecap="round"/>
  <line x1="785.5" y1="742.3" x2="794.6" y2="736.3" stroke="#efff00" stroke-width="10.38" stroke-linecap="round"/>
  <line x1="794.6" y1="736.3" x2="803.5" y2="730.0" stroke="#ffd700" stroke-width="10.38" stroke-linecap="round"/>
  <line x1="803.5" y1="730.0" x2="812.2" y2="723.5" stroke="#4dff00" stroke-width="10.38" stroke-linecap="round"/>
  <line x1="812.2" y1="723.5" x2="820.6" y2="716.7" stroke="#5aff00" stroke-width="10.38" stroke-linecap="round"/>
  <line x1="820.6" y1="716.7" x2="828.9" y2="709.7" stroke="#00ff6b" stroke-width="10.38" stroke-linecap="round"/>
  <line x1="828.9" y1="709.7" x2="837.0" y2="702.3" stroke="#00bcff" stroke-width="10.38" stroke-linecap="round"/>
  <line x1="837.0" y1="702.3" x2="844.8" y2="694.8" stroke="#fffe00" stroke-width="10.38" stroke-linecap="round"/>
  <line x1="844.8" y1="694.8" x2="852.3" y2="687.0" stroke="#ff1f00" stroke-width="10.38" stroke-linecap="round"/>
  <line x1="852.3" y1="687.0" x2="859.7" y2="678.9" stroke="#00ffd9" stroke-width="10.38" stroke-linecap="round"/>
  <line x1="859.7" y1="678.9" x2="866.7" y2="670.6" stroke="#25ff00" stroke-width="10.38" stroke-linecap="round"/>
  <line x1="866.7" y1="670.6" x2="873.5" y2="662.2" stroke="#8aff00" stroke-width="10.38" stroke-linecap="round"/>
  <line x1="873.5" y1="662.2" x2="880.0" y2="653.5" stroke="#00f1ff" stroke-width="10.38" stroke-linecap="round"/>
  <line x1="880.0" y1="653.5" x2="886.3" y2="644.6" stroke="#00ff1c" stroke-width="10.38" stroke-linecap="round"/>
  <line x1="886.3" y1="644.6" x2="892.3" y2="635.5" stroke="#00ff07" stroke-width="10.38" stroke-linecap="round"/>
  <line x1="892.3" y1="635.5" x2="897.9" y2="626.2" stroke="#ffb300" stroke-width="10.38" stroke-linecap="round"/>
  <line x1="897.9" y1="626.2" x2="903.3" y2="616.8" stroke="#ff5300" stroke-width="10.38" stroke-linecap="round"/>
  <line x1="903.3" y1="616.8" x2="908.4" y2="607.2" stroke="#008cff" stroke-width="10.38" stroke-linecap="round"/>
  <line x1="908.4" y1="607.2" x2="913.2" y2="597.4" stroke="#00ff97" stroke-width="10.38" stroke-linecap="round"/>
  <line x1="913.2" y1="597.4" x2="917.7" y2="587.5" stroke="#ffe800" stroke-width="10.38" stroke-linecap="round"/>
  <line x1="917.7" y1="587.5" x2="921.8" y2="577.4" stroke="#6bff00" stroke-width="10.38" stroke-linecap="round"/>
  <line x1="921.8" y1="577.4" x2="925.7" y2="567.3" stroke="#48ff00" stroke-width="10.38" stroke-linecap="round"/>
  <line x1="925.7" y1="567.3" x2="929.2" y2="557.0" stroke="#00ff1c" stroke-width="10.38" stroke-linecap="round"/>
  <line x1="929.2" y1="557.0" x2="932.4" y2="546.6" stroke="#00ff5a" stroke-width="10.38" stroke-linecap="round"/>
  <line x1="932.4" y1="546.6" x2="935.3" y2="536.1" stroke="#00ff5e" stroke-width="10.38" stroke-linecap="round"/>
  <line x1="935.3" y1="536.1" x2="937.8" y2="525.5" stroke="#00ff14" stroke-width="10.38" stroke-linecap="round"/>
  <line x1="937.8" y1="525.5" x2="940.0" y2="514.9" stroke="#70ff00" stroke-width="10.38" stroke-linecap="round"/>
  <line x1="940.0" y1="514.9" x2="941.9" y2="504.2" stroke="#adff00" stroke-width="10.38" stroke-linecap="round"/>
  <line x1="941.9" y1="504.2" x2="943.4" y2="493.4" stroke="#9bff00" stroke-width="10.38" stroke-linecap="round"/>
  <line x1="943.4" y1="493.4" x2="944.6" y2="482.6" stroke="#fffe00" stroke-width="10.38" stroke-linecap="round"/>
  <line x1="944.6" y1="482.6" x2="945.5" y2="471.7" stroke="#00ff62" stroke-width="10.38" stroke-linecap="round"/>
  <line x1="945.5" y1="471.7" x2="946.0" y2="460.9" stroke="#00ff97" stroke-width="10.38" stroke-linecap="round"/>
  <line x1="946.0" y1="460.9" x2="946.2" y2="450.0" stroke="#f7ff00" stroke-width="10.38" stroke-linecap="round"/>
  <line x1="925.4" y1="450.0" x2="966.9" y2="450.0" stroke="#ffffff" stroke-width="4.15"/>
  <text x="30" y="50" font-family="sans-serif" font-size="34" fill="#ffffff">Apex-14 — Circle (R=100m)</text>
  <rect x="910.0" y="842.0" width="5.33" height="18.0" fill="#0000ff"/>
  <rect x="914.4" y="842.0" width="5.33" height="18.0" fill="#0012ff"/>
  <rect x="918.8" y="842.0" width="5.33" height="18.0" fill="#0023ff"/>
  <rect x="923.2" y="842.0" width="5.33" height="18.0" fill="#0035ff"/>
  <rect x="927.6" y="842.0" width="5.33" height="18.0" fill="#0046ff"/>
  <rect x="932.0" y="842.0" width="5.33" height="18.0" fill="#0058ff"/>
  <rect x="936.4" y="842.0" width="5.33" height="18.0" fill="#0069ff"/>
  <rect x="940.8" y="842.0" width="5.33" height="18.0" fill="#007bff"/>
  <rect x="945.3" y="842.0" width="5.33" height="18.0" fill="#008cff"/>
  <rect x="949.7" y="842.0" width="5.33" height="18.0" fill="#009eff"/>
  <rect x="954.1" y="842.0" width="5.33" height="18.0" fill="#00abff"/>
  <rect x="958.5" y="842.0" width="5.33" height="18.0" fill="#00bcff"/>
  <rect x="962.9" y="842.0" width="5.33" height="18.0" fill="#00ceff"/>
  <rect x="967.3" y="842.0" width="5.33" height="18.0" fill="#00dfff"/>
  <rect x="971.7" y="842.0" width="5.33" height="18.0" fill="#00f1ff"/>
  <rect x="976.1" y="842.0" width="5.33" height="18.0" fill="#00fffc"/>
  <rect x="980.5" y="842.0" width="5.33" height="18.0" fill="#00ffea"/>
  <rect x="984.9" y="842.0" width="5.33" height="18.0" fill="#00ffd9"/>
  <rect x="989.3" y="842.0" width="5.33" height="18.0" fill="#00ffc7"/>
  <rect x="993.7" y="842.0" width="5.33" height="18.0" fill="#00ffb6"/>
  <rect x="998.1" y="842.0" width="5.33" height="18.0" fill="#00ffa4"/>
  <rect x="1002.5" y="842.0" width="5.33" height="18.0" fill="#00ff93"/>
  <rect x="1006.9" y="842.0" width="5.33" height="18.0" fill="#00ff81"/>
  <rect x="1011.4" y="842.0" width="5.33" height="18.0" fill="#00ff70"/>
  <rect x="1015.8" y="842.0" width="5.33" height="18.0" fill="#00ff5e"/>
  <rect x="1020.2" y="842.0" width="5.33" height="18.0" fill="#00ff4d"/>
  <rect x="1024.6" y="842.0" width="5.33" height="18.0" fill="#00ff3b"/>
  <rect x="1029.0" y="842.0" width="5.33" height="18.0" fill="#00ff2a"/>
  <rect x="1033.4" y="842.0" width="5.33" height="18.0" fill="#00ff18"/>
  <rect x="1037.8" y="842.0" width="5.33" height="18.0" fill="#00ff07"/>
  <rect x="1042.2" y="842.0" width="5.33" height="18.0" fill="#07ff00"/>
  <rect x="1046.6" y="842.0" width="5.33" height="18.0" fill="#18ff00"/>
  <rect x="1051.0" y="842.0" width="5.33" height="18.0" fill="#2aff00"/>
  <rect x="1055.4" y="842.0" width="5.33" height="18.0" fill="#3bff00"/>
  <rect x="1059.8" y="842.0" width="5.33" height="18.0" fill="#4dff00"/>
  <rect x="1064.2" y="842.0" width="5.33" height="18.0" fill="#5eff00"/>
  <rect x="1068.6" y="842.0" width="5.33" height="18.0" fill="#70ff00"/>
  <rect x="1073.1" y="842.0" width="5.33" height="18.0" fill="#81ff00"/>
  <rect x="1077.5" y="842.0" width="5.33" height="18.0" fill="#93ff00"/>
  <rect x="1081.9" y="842.0" width="5.33" height="18.0" fill="#a4ff00"/>
  <rect x="1086.3" y="842.0" width="5.33" height="18.0" fill="#b6ff00"/>
  <rect x="1090.7" y="842.0" width="5.33" height="18.0" fill="#c7ff00"/>
  <rect x="1095.1" y="842.0" width="5.33" height="18.0" fill="#d9ff00"/>
  <rect x="1099.5" y="842.0" width="5.33" height="18.0" fill="#eaff00"/>
  <rect x="1103.9" y="842.0" width="5.33" height="18.0" fill="#fcff00"/>
  <rect x="1108.3" y="842.0" width="5.33" height="18.0" fill="#fff100"/>
  <rect x="1112.7" y="842.0" width="5.33" height="18.0" fill="#ffdf00"/>
  <rect x="1117.1" y="842.0" width="5.33" height="18.0" fill="#ffce00"/>
  <rect x="1121.5" y="842.0" width="5.33" height="18.0" fill="#ffbc00"/>
  <rect x="1125.9" y="842.0" width="5.33" height="18.0" fill="#ffab00"/>
  <rect x="1130.3" y="842.0" width="5.33" height="18.0" fill="#ff9e00"/>
  <rect x="1134.7" y="842.0" width="5.33" height="18.0" fill="#ff8c00"/>
  <rect x="1139.2" y="842.0" width="5.33" height="18.0" fill="#ff7b00"/>
  <rect x="1143.6" y="842.0" width="5.33" height="18.0" fill="#ff6900"/>
  <rect x="1148.0" y="842.0" width="5.33" height="18.0" fill="#ff5800"/>
  <rect x="1152.4" y="842.0" width="5.33" height="18.0" fill="#ff4600"/>
  <rect x="1156.8" y="842.0" width="5.33" height="18.0" fill="#ff3500"/>
  <rect x="1161.2" y="842.0" width="5.33" height="18.0" fill="#ff2300"/>
  <rect x="1165.6" y="842.0" width="5.33" height="18.0" fill="#ff1200"/>
  <rect x="1170.0" y="842.0" width="5.33" height="18.0" fill="#ff0000"/>
  <text x="910.0" y="836.0" font-family="sans-serif" font-size="18" fill="#ffffff" text-anchor="start">272 km/h</text>
  <text x="1170.0" y="836.0" font-family="sans-serif" font-size="18" fill="#ffffff" text-anchor="end">272 km/h</text>
</svg>
